<?xml version="1.0" encoding="UTF-8"?>
<svg xmlns="http://www.w3.org/2000/svg" xmlns:xlink="http://www.w3.org/1999/xlink" width="810pt" height="809.999993pt" viewBox="0 0 810 809.999993" version="1.2">
<defs>
<clipPath id="clip1">
  <path d="M 72 37.136719 L 734 37.136719 L 734 563 L 72 563 Z M 72 37.136719 "/>
</clipPath>
<clipPath id="clip2">
  <path d="M 14.179688 560 L 795.539062 560 L 795.539062 772.886719 L 14.179688 772.886719 Z M 14.179688 560 "/>
</clipPath>
</defs>
<g id="surface1">
<g clip-path="url(#clip1)" clip-rule="nonzero">
<path style=" stroke:none;fill-rule:nonzero;fill:rgb(14.898682%,15.289307%,14.898682%);fill-opacity:1;" d="M 722.1875 509.210938 L 710.90625 509.210938 C 710.90625 517.726562 707.488281 525.335938 701.917969 530.933594 C 696.332031 536.503906 688.726562 539.925781 680.207031 539.925781 L 125.71875 539.925781 C 117.214844 539.925781 109.609375 536.503906 104.023438 530.933594 C 98.445312 525.335938 95.035156 517.726562 95.023438 509.210938 L 95.023438 90.457031 C 95.035156 81.9375 98.445312 74.328125 104.023438 68.730469 C 109.609375 63.160156 117.214844 59.738281 125.71875 59.730469 L 680.207031 59.730469 C 688.726562 59.738281 696.324219 63.160156 701.917969 68.730469 C 707.488281 74.328125 710.90625 81.9375 710.90625 90.457031 L 710.90625 509.210938 L 733.46875 509.210938 L 733.46875 90.457031 C 733.476562 75.785156 727.492188 62.382812 717.871094 52.773438 C 708.273438 43.15625 694.886719 37.160156 680.207031 37.160156 L 125.71875 37.160156 C 111.046875 37.160156 97.660156 43.15625 88.0625 52.78125 C 78.449219 62.382812 72.464844 75.785156 72.464844 90.457031 L 72.464844 509.210938 C 72.464844 523.890625 78.449219 537.28125 88.0625 546.882812 C 97.660156 556.519531 111.046875 562.503906 125.71875 562.496094 L 680.207031 562.496094 C 694.886719 562.503906 708.273438 556.519531 717.871094 546.890625 C 727.492188 537.28125 733.476562 523.890625 733.46875 509.210938 L 722.1875 509.210938 "/>
</g>
<path style=" stroke:none;fill-rule:nonzero;fill:rgb(14.898682%,15.289307%,14.898682%);fill-opacity:1;" d="M 681.183594 482.300781 L 669.902344 482.300781 C 669.902344 489.328125 667.09375 495.589844 662.492188 500.207031 C 657.875 504.800781 651.609375 507.613281 644.585938 507.621094 L 161.347656 507.621094 C 154.324219 507.613281 148.066406 504.808594 143.449219 500.207031 C 138.847656 495.589844 136.046875 489.328125 136.039062 482.300781 L 136.039062 117.355469 C 136.046875 110.320312 138.847656 104.058594 143.449219 99.4375 C 148.066406 94.835938 154.324219 92.035156 161.347656 92.023438 L 644.585938 92.023438 C 651.609375 92.035156 657.875 94.835938 662.492188 99.4375 C 667.09375 104.066406 669.902344 110.328125 669.902344 117.355469 L 669.902344 482.300781 L 692.464844 482.300781 L 692.464844 117.355469 C 692.472656 104.164062 687.085938 92.121094 678.441406 83.480469 C 669.816406 74.832031 657.769531 69.445312 644.585938 69.453125 L 161.347656 69.453125 C 148.164062 69.445312 136.117188 74.832031 127.5 83.480469 C 118.855469 92.121094 113.46875 104.164062 113.476562 117.355469 L 113.476562 482.300781 C 113.46875 495.492188 118.855469 507.535156 127.5 516.164062 C 136.125 524.816406 148.164062 530.203125 161.347656 530.191406 L 644.585938 530.191406 C 657.769531 530.203125 669.816406 524.816406 678.433594 516.164062 C 687.085938 507.535156 692.472656 495.492188 692.464844 482.300781 L 681.183594 482.300781 "/>
<g clip-path="url(#clip2)" clip-rule="nonzero">
<path style=" stroke:none;fill-rule:nonzero;fill:rgb(14.898682%,15.289307%,14.898682%);fill-opacity:1;" d="M 783.890625 719.613281 L 772.613281 719.613281 C 772.605469 728.132812 769.191406 735.730469 763.625 741.328125 C 758.027344 746.902344 750.421875 750.320312 741.910156 750.332031 L 67.8125 750.332031 C 59.300781 750.320312 51.683594 746.902344 46.097656 741.328125 C 40.519531 735.730469 37.109375 728.132812 37.101562 719.613281 L 25.820312 719.613281 L 35.71875 725.035156 L 93.640625 619.203125 C 93.871094 618.789062 94.109375 618.261719 94.277344 617.828125 C 96.882812 611.058594 100.304688 605.609375 104.191406 601.128906 C 110.015625 594.4375 116.976562 589.898438 123.78125 587.03125 C 127.171875 585.59375 130.503906 584.589844 133.554688 583.957031 C 136.601562 583.320312 139.359375 583.054688 141.492188 583.066406 L 653.210938 583.066406 C 663.011719 583.054688 670.371094 583.875 675.984375 585.296875 C 680.214844 586.355469 683.464844 587.71875 686.355469 589.414062 C 688.523438 590.691406 690.507812 592.171875 692.488281 593.988281 C 695.460938 596.695312 698.445312 600.179688 701.769531 604.578125 C 705.082031 608.960938 708.695312 614.230469 712.980469 620.296875 L 722.1875 613.789062 L 712.449219 619.46875 L 774.15625 725.300781 L 783.890625 719.613281 L 772.613281 719.613281 L 783.890625 719.613281 L 793.640625 713.925781 L 731.933594 608.105469 L 731.40625 607.273438 C 726.453125 600.265625 722.179688 593.980469 717.667969 588.25 C 714.292969 583.964844 710.757812 579.980469 706.6875 576.410156 C 703.636719 573.738281 700.289062 571.320312 696.578125 569.265625 C 691.019531 566.164062 684.71875 563.933594 677.605469 562.53125 C 670.476562 561.121094 662.511719 560.496094 653.210938 560.484375 L 141.492188 560.484375 C 136.320312 560.496094 130.554688 561.269531 124.414062 562.964844 C 115.230469 565.503906 105.203125 570.140625 95.996094 577.722656 C 86.792969 585.296875 78.511719 595.894531 73.214844 609.742188 L 83.746094 613.789062 L 73.855469 608.367188 L 15.925781 714.191406 C 15.007812 715.867188 14.539062 717.699219 14.539062 719.613281 C 14.539062 734.292969 20.523438 747.6875 30.148438 757.285156 C 39.753906 766.914062 53.140625 772.902344 67.8125 772.902344 L 741.910156 772.902344 C 756.582031 772.902344 769.96875 766.914062 779.566406 757.285156 C 789.1875 747.6875 795.179688 734.292969 795.171875 719.613281 C 795.171875 717.640625 794.625 715.628906 793.640625 713.925781 L 783.890625 719.613281 "/>
</g>
<path style=" stroke:none;fill-rule:nonzero;fill:rgb(14.898682%,15.289307%,14.898682%);fill-opacity:1;" d="M 492.058594 722.054688 L 480.78125 722.054688 L 482.199219 722.054688 L 481.195312 721.042969 C 480.957031 721.273438 480.769531 721.695312 480.78125 722.054688 L 482.199219 722.054688 L 481.195312 721.042969 L 482.191406 722.039062 L 482.191406 720.628906 C 481.847656 720.628906 481.414062 720.804688 481.195312 721.042969 L 482.191406 722.039062 L 482.191406 720.628906 L 323.75 720.628906 L 323.75 722.046875 L 324.746094 721.042969 C 324.527344 720.8125 324.105469 720.628906 323.75 720.636719 L 323.75 722.046875 L 324.746094 721.042969 L 323.742188 722.054688 L 325.160156 722.054688 C 325.171875 721.6875 324.984375 721.261719 324.746094 721.042969 L 323.742188 722.054688 L 325.160156 722.054688 L 313.882812 722.054688 L 323.777344 727.46875 L 337.394531 702.597656 C 337.621094 702.183594 337.859375 701.664062 338.027344 701.222656 C 338.28125 700.570312 338.539062 700.191406 338.8125 699.875 C 339.207031 699.414062 339.71875 699.070312 340.265625 698.84375 C 340.53125 698.726562 340.792969 698.648438 340.972656 698.613281 L 341.148438 698.585938 L 341.066406 697.160156 L 341.066406 698.585938 L 341.148438 698.585938 L 341.066406 697.160156 L 341.066406 698.585938 L 461.347656 698.585938 C 463.183594 698.578125 464.222656 698.753906 464.589844 698.851562 L 464.8125 698.914062 L 464.953125 698.570312 L 464.769531 698.894531 L 464.8125 698.914062 L 464.953125 698.570312 L 464.769531 698.894531 L 465.066406 698.359375 L 464.707031 698.859375 L 464.769531 698.894531 L 465.066406 698.359375 L 464.707031 698.859375 L 464.714844 698.851562 L 464.707031 698.851562 L 464.707031 698.859375 L 464.714844 698.851562 L 464.707031 698.851562 C 464.722656 698.871094 465.042969 699.140625 465.667969 699.953125 C 466.292969 700.757812 467.191406 702.042969 468.355469 703.691406 L 477.5625 697.175781 L 467.816406 702.863281 L 482.3125 727.734375 L 492.058594 722.054688 L 480.78125 722.054688 L 492.058594 722.054688 L 501.804688 716.371094 L 487.300781 691.488281 L 486.765625 690.660156 C 485.644531 689.074219 484.597656 687.523438 483.265625 685.828125 C 482.269531 684.570312 481.097656 683.21875 479.597656 681.898438 C 478.480469 680.917969 477.167969 679.964844 475.730469 679.171875 C 473.570312 677.957031 471.15625 677.128906 468.761719 676.660156 C 466.34375 676.183594 463.929688 676.015625 461.347656 676.015625 L 341.066406 676.015625 C 338.960938 676.027344 336.910156 676.316406 334.757812 676.90625 C 331.550781 677.796875 328.121094 679.386719 324.886719 682.039062 C 321.671875 684.675781 318.746094 688.457031 316.964844 693.128906 L 327.496094 697.175781 L 317.609375 691.753906 L 303.984375 716.632812 C 303.070312 718.308594 302.601562 720.144531 302.601562 722.054688 C 302.601562 727.859375 304.988281 733.21875 308.796875 737.007812 C 312.585938 740.816406 317.945312 743.207031 323.75 743.199219 L 482.191406 743.207031 C 487.996094 743.207031 493.355469 740.816406 497.144531 737.007812 C 500.960938 733.210938 503.347656 727.859375 503.339844 722.054688 C 503.339844 720.082031 502.792969 718.070312 501.804688 716.371094 L 492.058594 722.054688 "/>
</g>
</svg>
