<?xml version="1.0" encoding="UTF-8"?>
<svg xmlns="http://www.w3.org/2000/svg" xmlns:xlink="http://www.w3.org/1999/xlink" width="810pt" height="809.999993pt" viewBox="0 0 810 809.999993" version="1.2">
<defs>
<clipPath id="clip1">
  <path d="M 157 87.835938 L 791 87.835938 L 791 722.335938 L 157 722.335938 Z M 157 87.835938 "/>
</clipPath>
<clipPath id="clip2">
  <path d="M 18.214844 423 L 623 423 L 623 516 L 18.214844 516 Z M 18.214844 423 "/>
</clipPath>
</defs>
<g id="surface1">
<g clip-path="url(#clip1)" clip-rule="nonzero">
<path style=" stroke:none;fill-rule:nonzero;fill:rgb(13.729858%,12.159729%,12.548828%);fill-opacity:1;" d="M 185.792969 505.128906 C 228.269531 628.332031 343.09375 710.535156 474.03125 710.535156 C 642.1875 710.535156 778.992188 573.546875 778.992188 405.164062 C 778.992188 236.777344 642.1875 99.785156 474.03125 99.785156 C 345.585938 99.785156 231.507812 179.9375 187.597656 300.085938 L 394.449219 304.351562 C 395.441406 279.765625 416.257812 260.207031 441.273438 261.367188 L 592.878906 268.300781 C 600.527344 268.652344 606.519531 274.933594 606.519531 282.597656 C 606.519531 287.121094 604.421875 291.148438 601.164062 293.777344 C 601.679688 294.183594 602.171875 294.625 602.628906 295.097656 C 605.128906 297.667969 606.519531 301.09375 606.519531 304.730469 C 606.519531 309.097656 604.488281 313 601.316406 315.535156 C 604.480469 318.082031 606.519531 321.992188 606.519531 326.347656 C 606.519531 330.703125 604.480469 334.609375 601.304688 337.152344 C 604.488281 339.6875 606.519531 343.582031 606.519531 347.949219 C 606.519531 352.59375 604.289062 356.675781 600.824219 359.183594 C 604.296875 361.992188 606.519531 366.292969 606.519531 371.101562 C 606.519531 379.3125 600.113281 386.03125 591.933594 386.394531 L 441.273438 393.292969 C 440.574219 393.328125 439.886719 393.339844 439.203125 393.339844 C 415.117188 393.339844 395.414062 374.191406 394.449219 350.292969 L 173.179688 354.859375 C 170.449219 371.421875 169.0625 388.324219 169.0625 405.164062 C 169.0625 420.597656 170.222656 436.054688 172.5 451.1875 L 283.714844 453.480469 L 283.714844 446.210938 C 283.714844 443.070312 286.152344 440.460938 289.289062 440.25 L 531.847656 424.015625 C 533.765625 423.882812 535.714844 423.820312 537.636719 423.820312 C 584.601562 423.820312 622.804688 462.132812 622.804688 509.222656 C 622.804688 510.828125 622.152344 512.371094 621.007812 513.492188 C 619.863281 514.617188 618.328125 515.21875 616.703125 515.199219 L 289.554688 507.976562 C 286.683594 507.910156 284.332031 505.835938 283.820312 503.105469 Z M 474.03125 722.484375 C 405.351562 722.484375 340.015625 700.855469 285.078125 659.929688 C 231.199219 619.804688 192.066406 564.890625 171.898438 501.125 C 171.332031 499.324219 171.640625 497.371094 172.738281 495.835938 C 173.832031 494.308594 175.582031 493.382812 177.46875 493.339844 L 289.5625 491.035156 C 291.179688 491.007812 292.71875 491.621094 293.859375 492.742188 C 294.796875 493.660156 295.402344 494.863281 295.589844 496.148438 L 610.617188 503.105469 C 607.507812 465.453125 575.96875 435.773438 537.636719 435.773438 C 535.984375 435.773438 534.296875 435.828125 532.640625 435.941406 L 295.648438 451.808594 L 295.648438 459.585938 C 295.648438 461.191406 295.003906 462.726562 293.859375 463.855469 C 292.710938 464.980469 291.171875 465.613281 289.5625 465.5625 L 167.261719 463.035156 C 164.398438 462.972656 161.980469 460.878906 161.503906 458.042969 C 158.597656 440.714844 157.125 422.921875 157.125 405.164062 C 157.125 385.976562 158.859375 366.714844 162.269531 347.917969 C 162.773438 345.121094 165.179688 343.074219 168.015625 343.015625 L 400.257812 338.21875 C 401.828125 338.179688 403.414062 338.800781 404.558594 339.921875 C 405.707031 341.046875 406.351562 342.582031 406.351562 344.1875 L 406.351562 348.457031 C 406.351562 367.125 421.929688 382.214844 440.726562 381.355469 L 591.394531 374.457031 C 593.1875 374.378906 594.585938 372.902344 594.585938 371.101562 C 594.585938 369.242188 593.078125 367.734375 591.226562 367.734375 L 473.917969 371.214844 C 473.859375 371.222656 473.703125 371.222656 473.644531 371.222656 C 471.179688 371.222656 468.871094 370.253906 467.128906 368.507812 C 465.398438 366.765625 464.445312 364.453125 464.445312 361.984375 C 464.445312 356.960938 468.375 352.90625 473.398438 352.765625 L 592.765625 349.824219 C 593.785156 349.804688 594.585938 348.976562 594.585938 347.949219 C 594.585938 346.910156 593.746094 346.070312 592.710938 346.070312 L 473.75 347.382812 C 471.199219 347.382812 468.890625 346.429688 467.152344 344.6875 C 465.40625 342.957031 464.445312 340.632812 464.445312 338.167969 C 464.445312 333.117188 468.542969 328.976562 473.578125 328.929688 L 592.726562 328.226562 C 593.746094 328.214844 594.585938 327.375 594.585938 326.347656 C 594.585938 325.3125 593.75 324.460938 592.726562 324.453125 L 473.570312 323.546875 C 468.535156 323.5 464.445312 319.363281 464.445312 314.328125 C 464.445312 309.230469 468.578125 305.089844 473.652344 305.089844 L 592.679688 306.609375 C 593.738281 306.609375 594.585938 305.769531 594.585938 304.730469 C 594.585938 304.238281 594.390625 303.761719 594.066406 303.421875 C 593.804688 303.15625 593.398438 302.867188 592.765625 302.847656 L 473.410156 299.707031 C 468.375 299.5625 464.445312 295.511719 464.445312 290.488281 C 464.445312 285.40625 468.570312 281.265625 473.632812 281.265625 C 473.703125 281.265625 473.90625 281.273438 473.972656 281.273438 L 592.148438 284.980469 C 593.53125 284.980469 594.585938 283.914062 594.585938 282.597656 C 594.585938 281.332031 593.59375 280.296875 592.332031 280.238281 L 440.726562 273.308594 C 440.203125 273.28125 439.6875 273.269531 439.167969 273.269531 C 421.070312 273.269531 406.351562 288.035156 406.351562 306.183594 L 406.351562 310.453125 C 406.351562 312.058594 405.707031 313.59375 404.558594 314.722656 C 403.414062 315.84375 401.835938 316.496094 400.257812 316.429688 L 179.121094 311.867188 C 177.222656 311.828125 175.457031 310.886719 174.355469 309.332031 C 173.265625 307.777344 172.980469 305.789062 173.585938 303.988281 C 216.984375 174.699219 337.726562 87.832031 474.03125 87.832031 C 648.769531 87.832031 790.929688 230.1875 790.929688 405.164062 C 790.929688 580.136719 648.769531 722.484375 474.03125 722.484375 "/>
</g>
<path style=" stroke:none;fill-rule:nonzero;fill:rgb(13.729858%,12.159729%,12.548828%);fill-opacity:1;" d="M 293.632812 508.0625 C 330.304688 572.292969 399.539062 613.039062 474.03125 613.039062 C 588.488281 613.039062 681.613281 519.789062 681.613281 405.164062 C 681.613281 290.542969 588.488281 197.296875 474.03125 197.296875 C 398.824219 197.296875 330.558594 237.269531 293.605469 302.269531 L 394.449219 304.351562 C 395.441406 279.765625 416.257812 260.207031 441.273438 261.367188 L 592.878906 268.300781 C 600.527344 268.652344 606.519531 274.933594 606.519531 282.597656 C 606.519531 287.121094 604.421875 291.148438 601.164062 293.777344 C 601.679688 294.183594 602.171875 294.625 602.628906 295.097656 C 605.128906 297.667969 606.519531 301.09375 606.519531 304.730469 C 606.519531 309.097656 604.488281 313 601.316406 315.535156 C 604.480469 318.082031 606.519531 321.992188 606.519531 326.347656 C 606.519531 330.703125 604.480469 334.609375 601.304688 337.152344 C 604.488281 339.6875 606.519531 343.582031 606.519531 347.949219 C 606.519531 352.59375 604.289062 356.675781 600.824219 359.183594 C 604.296875 361.992188 606.519531 366.292969 606.519531 371.101562 C 606.519531 379.3125 600.113281 386.03125 591.933594 386.394531 L 441.273438 393.292969 C 440.574219 393.328125 439.886719 393.339844 439.203125 393.339844 C 415.117188 393.339844 395.414062 374.191406 394.449219 350.292969 L 273.082031 352.785156 C 268.671875 369.828125 266.441406 387.421875 266.441406 405.164062 C 266.441406 421.394531 268.320312 437.542969 272.023438 453.242188 L 283.714844 453.480469 L 283.714844 446.210938 C 283.714844 443.070312 286.152344 440.460938 289.289062 440.25 L 531.847656 424.015625 C 533.765625 423.882812 535.714844 423.820312 537.636719 423.820312 C 584.601562 423.820312 622.804688 462.132812 622.804688 509.222656 C 622.804688 510.828125 622.152344 512.371094 621.007812 513.492188 C 619.863281 514.617188 618.328125 515.21875 616.703125 515.199219 Z M 474.03125 624.992188 C 431.777344 624.992188 390.75 612.941406 355.375 590.136719 C 320.933594 567.9375 293.425781 536.6875 275.820312 499.757812 C 274.949219 497.921875 275.066406 495.777344 276.128906 494.046875 C 277.191406 492.3125 279.0625 491.246094 281.089844 491.207031 L 289.5625 491.035156 C 291.179688 491.007812 292.71875 491.621094 293.859375 492.742188 C 294.796875 493.660156 295.402344 494.863281 295.589844 496.148438 L 610.617188 503.105469 C 607.507812 465.453125 575.96875 435.773438 537.636719 435.773438 C 535.984375 435.773438 534.296875 435.828125 532.640625 435.941406 L 295.648438 451.808594 L 295.648438 459.585938 C 295.648438 461.191406 295.003906 462.726562 293.859375 463.855469 C 292.710938 464.980469 291.171875 465.582031 289.5625 465.5625 L 267.207031 465.09375 C 264.539062 465.042969 262.226562 463.214844 261.554688 460.625 C 256.878906 442.578125 254.507812 423.914062 254.507812 405.164062 C 254.507812 384.84375 257.277344 364.699219 262.746094 345.28125 C 263.457031 342.753906 265.734375 340.988281 268.367188 340.933594 L 400.257812 338.21875 C 401.929688 338.171875 403.414062 338.800781 404.558594 339.921875 C 405.707031 341.046875 406.351562 342.582031 406.351562 344.1875 L 406.351562 348.457031 C 406.351562 367.125 421.929688 382.214844 440.726562 381.355469 L 591.394531 374.457031 C 593.1875 374.378906 594.585938 372.902344 594.585938 371.101562 C 594.585938 369.242188 593.078125 367.734375 591.226562 367.734375 L 473.917969 371.214844 C 473.859375 371.222656 473.703125 371.222656 473.644531 371.222656 C 471.179688 371.222656 468.871094 370.253906 467.128906 368.507812 C 465.398438 366.765625 464.445312 364.453125 464.445312 361.984375 C 464.445312 356.960938 468.375 352.90625 473.398438 352.765625 L 592.765625 349.824219 C 593.785156 349.804688 594.585938 348.976562 594.585938 347.949219 C 594.585938 346.910156 593.746094 346.070312 592.710938 346.070312 L 473.75 347.382812 C 471.199219 347.382812 468.890625 346.429688 467.152344 344.6875 C 465.40625 342.957031 464.445312 340.632812 464.445312 338.167969 C 464.445312 333.117188 468.542969 328.976562 473.578125 328.929688 L 592.726562 328.226562 C 593.746094 328.214844 594.585938 327.375 594.585938 326.347656 C 594.585938 325.3125 593.75 324.460938 592.726562 324.453125 L 473.570312 323.546875 C 468.535156 323.5 464.445312 319.363281 464.445312 314.328125 C 464.445312 309.230469 468.578125 305.089844 473.652344 305.089844 L 592.679688 306.609375 C 593.738281 306.609375 594.585938 305.769531 594.585938 304.730469 C 594.585938 304.238281 594.390625 303.761719 594.066406 303.421875 C 593.804688 303.15625 593.398438 302.867188 592.765625 302.847656 L 473.410156 299.707031 C 468.375 299.5625 464.445312 295.511719 464.445312 290.488281 C 464.445312 285.40625 468.570312 281.265625 473.632812 281.265625 C 473.703125 281.265625 473.898438 281.273438 473.972656 281.273438 L 592.148438 284.980469 C 593.53125 284.980469 594.585938 283.914062 594.585938 282.597656 C 594.585938 281.332031 593.59375 280.296875 592.332031 280.238281 L 440.726562 273.308594 C 440.203125 273.28125 439.6875 273.269531 439.167969 273.269531 C 421.070312 273.269531 406.351562 288.035156 406.351562 306.183594 L 406.351562 310.453125 C 406.351562 312.058594 405.707031 313.59375 404.558594 314.722656 C 403.414062 315.84375 401.835938 316.460938 400.257812 316.429688 L 283.59375 314.019531 C 281.535156 313.972656 279.652344 312.878906 278.589844 311.113281 C 277.539062 309.34375 277.464844 307.15625 278.398438 305.324219 C 316.136719 231.3125 391.097656 185.34375 474.03125 185.34375 C 595.070312 185.34375 693.550781 283.953125 693.550781 405.164062 C 693.550781 526.378906 595.070312 624.992188 474.03125 624.992188 "/>
<path style=" stroke:none;fill-rule:nonzero;fill:rgb(13.729858%,12.159729%,12.548828%);fill-opacity:1;" d="M 400.375 338.210938 C 401.933594 338.210938 403.441406 338.828125 404.554688 339.921875 C 405.699219 341.046875 406.34375 342.589844 406.34375 344.1875 L 406.34375 348.457031 C 406.34375 366.613281 421.078125 381.378906 439.1875 381.386719 C 439.195312 381.386719 439.195312 381.386719 439.195312 381.386719 C 439.703125 381.386719 440.214844 381.375 440.722656 381.347656 L 591.386719 374.449219 C 593.1875 374.371094 594.589844 372.894531 594.589844 371.09375 C 594.589844 369.242188 593.085938 367.734375 591.242188 367.734375 L 473.925781 371.214844 C 473.863281 371.214844 473.710938 371.214844 473.652344 371.214844 C 471.195312 371.214844 468.882812 370.253906 467.144531 368.519531 C 465.398438 366.773438 464.441406 364.457031 464.441406 361.992188 C 464.441406 356.941406 468.390625 352.894531 473.425781 352.765625 L 592.757812 349.832031 C 593.785156 349.8125 594.589844 348.984375 594.589844 347.949219 C 594.589844 346.917969 593.746094 346.070312 592.710938 346.070312 L 473.75 347.382812 C 471.1875 347.382812 468.875 346.421875 467.136719 344.683594 C 465.398438 342.941406 464.441406 340.628906 464.441406 338.160156 C 464.441406 333.105469 468.550781 328.960938 473.589844 328.929688 L 592.71875 328.226562 C 593.75 328.214844 594.589844 327.375 594.589844 326.339844 C 594.589844 325.3125 593.75 324.464844 592.726562 324.460938 L 473.578125 323.550781 C 468.542969 323.511719 464.441406 319.371094 464.441406 314.328125 C 464.441406 309.238281 468.570312 305.097656 473.652344 305.097656 L 592.6875 306.609375 C 593.746094 306.609375 594.589844 305.769531 594.589844 304.730469 C 594.589844 303.703125 593.785156 302.875 592.757812 302.847656 L 473.40625 299.714844 C 468.375 299.582031 464.441406 295.527344 464.441406 290.488281 C 464.441406 285.40625 468.570312 281.265625 473.652344 281.265625 C 473.710938 281.265625 473.878906 281.273438 473.9375 281.273438 L 592.148438 284.980469 C 592.148438 284.980469 592.148438 284.980469 592.152344 284.980469 C 593.53125 284.980469 594.589844 283.914062 594.589844 282.605469 C 594.589844 281.339844 593.597656 280.296875 592.332031 280.238281 L 440.722656 273.292969 C 421.964844 272.425781 406.34375 287.523438 406.34375 306.191406 L 406.34375 310.460938 C 406.34375 312.058594 405.699219 313.601562 404.554688 314.726562 C 403.40625 315.847656 401.835938 316.460938 400.257812 316.429688 L 68.964844 309.59375 C 59.464844 309.59375 51.738281 317.550781 51.738281 327.328125 C 51.738281 337.097656 59.464844 345.054688 68.964844 345.054688 L 69.316406 345.050781 L 400.257812 338.21875 C 400.296875 338.21875 400.335938 338.210938 400.375 338.210938 Z M 439.195312 393.339844 C 439.195312 393.339844 439.1875 393.339844 439.1875 393.339844 C 415.109375 393.332031 395.40625 374.191406 394.449219 350.292969 L 68.964844 357.007812 C 52.886719 357.007812 39.804688 343.6875 39.804688 327.328125 C 39.804688 310.960938 52.886719 297.640625 68.964844 297.640625 L 69.5625 297.648438 L 394.449219 304.355469 C 395.441406 279.769531 416.269531 260.226562 441.273438 261.363281 L 592.878906 268.300781 C 600.53125 268.644531 606.527344 274.933594 606.527344 282.605469 C 606.527344 287.113281 604.441406 291.136719 601.183594 293.765625 C 604.449219 296.285156 606.527344 300.246094 606.527344 304.730469 C 606.527344 309.097656 604.488281 313.007812 601.324219 315.542969 C 604.488281 318.082031 606.527344 321.984375 606.527344 326.339844 C 606.527344 330.710938 604.480469 334.609375 601.3125 337.152344 C 604.503906 339.695312 606.527344 343.589844 606.527344 347.949219 C 606.527344 352.59375 604.300781 356.675781 600.832031 359.183594 C 604.300781 361.992188 606.527344 366.285156 606.527344 371.09375 C 606.527344 379.300781 600.113281 386.015625 591.933594 386.390625 L 441.273438 393.285156 C 440.574219 393.320312 439.882812 393.339844 439.195312 393.339844 "/>
<g clip-path="url(#clip2)" clip-rule="nonzero">
<path style=" stroke:none;fill-rule:nonzero;fill:rgb(13.729858%,12.159729%,12.548828%);fill-opacity:1;" d="M 295.589844 496.148438 L 610.617188 503.097656 C 607.507812 465.449219 575.953125 435.765625 537.621094 435.765625 C 535.96875 435.765625 534.292969 435.828125 532.632812 435.933594 L 295.648438 451.800781 L 295.648438 459.578125 C 295.648438 461.1875 295.003906 462.726562 293.859375 463.847656 C 292.710938 464.972656 291.171875 465.582031 289.5625 465.554688 L 47.554688 460.558594 C 38.066406 460.558594 30.339844 468.515625 30.339844 478.292969 C 30.339844 488.066406 38.066406 496.023438 47.554688 496.023438 L 47.917969 496.015625 L 289.5625 491.027344 C 291.167969 490.988281 292.710938 491.605469 293.859375 492.734375 C 294.796875 493.660156 295.402344 494.863281 295.589844 496.148438 Z M 616.832031 515.183594 C 616.792969 515.183594 616.746094 515.183594 616.703125 515.183594 L 289.546875 507.976562 C 286.683594 507.910156 284.328125 505.828125 283.8125 503.105469 L 47.554688 507.976562 C 31.476562 507.976562 18.402344 494.660156 18.402344 478.292969 C 18.402344 461.925781 31.476562 448.605469 47.554688 448.605469 L 48.164062 448.613281 L 283.714844 453.480469 L 283.714844 446.210938 C 283.714844 443.070312 286.152344 440.460938 289.28125 440.25 L 531.839844 424.007812 C 533.757812 423.882812 535.703125 423.8125 537.621094 423.8125 C 584.59375 423.8125 622.800781 462.125 622.800781 509.210938 C 622.800781 510.816406 622.152344 512.355469 621.007812 513.484375 C 619.886719 514.578125 618.390625 515.183594 616.832031 515.183594 "/>
</g>
</g>
</svg>
