<?xml version="1.0" encoding="UTF-8"?>
<svg xmlns="http://www.w3.org/2000/svg" xmlns:xlink="http://www.w3.org/1999/xlink" width="810pt" height="809.999993pt" viewBox="0 0 810 809.999993" version="1.2">
<defs>
<clipPath id="clip1">
  <path d="M 78 23.074219 L 309 23.074219 L 309 447 L 78 447 Z M 78 23.074219 "/>
</clipPath>
</defs>
<g id="surface1">
<path style="fill:none;stroke-width:1.5;stroke-linecap:round;stroke-linejoin:round;stroke:rgb(0%,0%,0%);stroke-opacity:1;stroke-miterlimit:4;" d="M 27.930092 39.449899 L 41.999939 53.549952 C 42.081972 53.631772 42.167678 53.709302 42.257363 53.782542 C 42.346742 53.856088 42.439794 53.924732 42.536213 53.989085 C 42.632326 54.053131 42.7315 54.112581 42.833735 54.167128 C 42.93597 54.221368 43.040347 54.270706 43.14748 54.31514 C 43.254306 54.359268 43.363275 54.398186 43.47408 54.431895 C 43.584886 54.465297 43.696916 54.49349 43.810476 54.51586 C 43.924036 54.538537 44.038515 54.555391 44.153606 54.56673 C 44.268696 54.578068 44.384399 54.583584 44.500102 54.583584 C 44.615805 54.583584 44.731202 54.578068 44.846293 54.56673 C 44.96169 54.555391 45.075862 54.538537 45.189423 54.51586 C 45.302983 54.49349 45.415319 54.465297 45.526124 54.431895 C 45.63693 54.398186 45.745593 54.359268 45.852725 54.31514 C 45.959551 54.270706 46.064235 54.221368 46.166164 54.167128 C 46.268399 54.112581 46.367573 54.053131 46.463992 53.989085 C 46.560105 53.924732 46.653157 53.856088 46.742842 53.782542 C 46.832221 53.709302 46.917927 53.631772 46.99996 53.549952 L 58.289875 42.32985 " transform="matrix(12.761666,0,0,12.747071,28.16315,20.523886)"/>
<g clip-path="url(#clip1)" clip-rule="nonzero">
<path style="fill:none;stroke-width:1.5;stroke-linecap:round;stroke-linejoin:round;stroke:rgb(0%,0%,0%);stroke-opacity:1;stroke-miterlimit:4;" d="M 17.000142 0.999888 L 5.730123 12.219991 C 5.648702 12.302424 5.571873 12.388228 5.499023 12.478016 C 5.426173 12.567803 5.357914 12.660962 5.294247 12.757491 C 5.23058 12.853715 5.17181 12.953002 5.117632 13.055354 C 5.063759 13.1574 5.014785 13.261897 4.970707 13.368845 C 4.926936 13.475794 4.888368 13.584581 4.855004 13.695207 C 4.821946 13.806139 4.794092 13.917991 4.771747 14.031375 C 4.749402 14.144759 4.732567 14.259062 4.721242 14.373978 C 4.710223 14.489201 4.704407 14.604423 4.704407 14.719952 C 4.704407 14.835481 4.710223 14.95101 4.721242 15.065926 C 4.732567 15.180842 4.749402 15.295146 4.771747 15.408529 C 4.794092 15.521913 4.821946 15.634072 4.855004 15.744697 C 4.888368 15.855323 4.926936 15.964111 4.970707 16.071059 C 5.014785 16.178008 5.063759 16.282505 5.117632 16.384857 C 5.17181 16.486902 5.23058 16.58619 5.294247 16.682719 C 5.357914 16.778942 5.426173 16.872101 5.499023 16.961889 C 5.571873 17.051677 5.648702 17.137787 5.730123 17.219914 L 21.180141 32.690074 " transform="matrix(12.761666,0,0,12.747071,28.16315,20.523886)"/>
</g>
<path style="fill:none;stroke-width:1.5;stroke-linecap:round;stroke-linejoin:round;stroke:rgb(0%,0%,0%);stroke-opacity:1;stroke-miterlimit:4;" d="M 33.759929 27.000041 L 57.299972 13.80001 C 57.299972 13.80001 58.100097 15.490043 55.359957 17.370071 C 52.620124 19.250098 32.789922 33.169963 32.789922 33.169963 " transform="matrix(12.761666,0,0,12.747071,28.16315,20.523886)"/>
<path style="fill:none;stroke-width:1.5;stroke-linecap:round;stroke-linejoin:round;stroke:rgb(0%,0%,0%);stroke-opacity:1;stroke-miterlimit:4;" d="M 29.179868 35.999964 C 29.295877 35.956143 29.409437 35.906192 29.519936 35.850113 C 30.701147 35.086457 31.791143 34.210031 32.789922 33.219913 L 31.189977 31.550106 M 24.750097 31.609862 L 24.330138 31.809969 C 22.500011 32.660042 18.889957 33.48989 17.690074 33.249945 C 17.13268 33.049838 16.61171 32.780168 16.126554 32.440935 C 15.641397 32.101703 15.209195 31.704553 14.829946 31.250098 C 14.61262 30.959897 14.376011 30.686549 14.120118 30.430057 C 14.035024 30.348236 13.947788 30.268561 13.859021 30.191031 C 13.769948 30.113501 13.679038 30.038116 13.586598 29.964876 C 13.493852 29.891943 13.39927 29.821155 13.303157 29.752511 C 13.207044 29.684175 13.1094 29.617983 13.00992 29.554549 C 12.91044 29.490809 12.809736 29.42952 12.707195 29.37099 C 12.60496 29.312153 12.501194 29.256074 12.395899 29.202446 C 12.290909 29.148819 12.184389 29.097643 12.07695 29.049225 C 11.969206 29.000807 11.860543 28.955147 11.750656 28.911938 C 11.640769 28.869036 11.529657 28.828586 11.417933 28.790893 C 11.305903 28.753201 11.193261 28.718266 11.079701 28.686396 C 10.966141 28.65422 10.851968 28.624801 10.736877 28.598447 C 10.621787 28.571787 10.506084 28.548191 10.390075 28.527352 C 10.273759 28.506514 10.157138 28.488434 10.040211 28.473418 C 9.923284 28.458096 9.805744 28.445839 9.688205 28.436645 C 9.570359 28.427146 9.452513 28.42071 9.334668 28.417033 C 9.216822 28.413662 9.09867 28.413049 8.980825 28.415194 C 8.862673 28.417339 8.744828 28.422242 8.626982 28.43021 C 8.509136 28.438484 8.391903 28.449209 8.27467 28.462999 C 8.157436 28.476789 8.040509 28.493337 7.924194 28.512643 C 7.807572 28.532256 7.691869 28.554626 7.576473 28.579754 C 7.461076 28.604882 7.346597 28.632769 7.232731 28.66372 C 7.118558 28.694364 7.00561 28.728073 6.893274 28.764233 C 6.780938 28.8007 6.669521 28.839618 6.559327 28.881294 C 6.448828 28.923277 6.339553 28.967711 6.231196 29.014903 C 6.123145 29.062095 6.016013 29.111739 5.910411 29.164141 C 5.804503 29.216543 5.700126 29.271396 5.596972 29.329007 C 5.494125 29.386618 5.392503 29.446375 5.29241 29.508889 C 5.192318 29.571404 5.093756 29.636369 4.996725 29.703787 C 4.899694 29.770898 4.804499 29.840767 4.710835 29.912781 C 4.617477 29.984795 4.525649 30.058954 4.435964 30.135565 C 4.345973 30.211869 4.258124 30.290625 4.172112 30.371526 C 4.0861 30.452121 4.001925 30.535167 3.919892 30.620051 C 3.835104 30.701872 3.752153 30.785837 3.671345 30.871947 C 3.590536 30.958058 3.511871 31.046007 3.435347 31.135795 C 3.358824 31.225889 3.28475 31.317516 3.212818 31.410981 C 3.14058 31.504446 3.071097 31.599749 3.003757 31.696585 C 2.936417 31.793728 2.871525 31.892096 2.809082 31.992303 C 2.746333 32.09251 2.686339 32.193942 2.6291 32.297214 C 2.571554 32.400178 2.516458 32.504676 2.464116 32.610398 C 2.411774 32.716121 2.361881 32.82307 2.314743 32.931244 C 2.267605 33.039418 2.223221 33.148819 2.181286 33.259138 C 2.139658 33.369458 2.100478 33.481003 2.064359 33.593161 C 2.027934 33.705625 1.994264 33.818703 1.963655 33.9327 C 1.932739 34.04639 1.904885 34.161306 1.879785 34.276529 C 1.854686 34.391751 1.832341 34.507587 1.812751 34.624035 C 1.793161 34.740483 1.776632 34.857238 1.762858 34.974606 C 1.749084 35.091667 1.738371 35.209341 1.730412 35.327015 C 1.722454 35.444689 1.71725 35.56267 1.715108 35.68065 C 1.712965 35.798631 1.713577 35.916611 1.71725 36.034592 C 1.720923 36.152572 1.727351 36.270553 1.736534 36.388227 C 1.746023 36.505901 1.758267 36.623269 1.773265 36.74033 C 1.78857 36.857391 1.806323 36.97384 1.827444 37.089981 C 1.848258 37.206123 1.871827 37.321959 1.898457 37.436875 C 1.924781 37.551791 1.954166 37.666094 1.986306 37.779785 C 2.018445 37.893168 2.05334 38.005939 2.090989 38.117791 C 2.128639 38.229643 2.169043 38.340575 2.211896 38.450588 C 2.255055 38.560295 2.300969 38.669082 2.349331 38.77695 C 2.397694 38.884511 2.448811 38.990847 2.502378 39.095957 C 2.555944 39.201067 2.612265 39.304951 2.670728 39.407303 C 2.729498 39.509655 2.790717 39.610475 2.854384 39.710069 C 2.918051 39.809356 2.984167 39.907112 3.052732 40.003335 C 3.12099 40.099251 3.192004 40.193636 3.264854 40.286488 C 3.33801 40.379034 3.413309 40.470047 3.491056 40.558916 C 3.568498 40.647784 3.648082 40.734814 3.730114 40.820005 C 3.814902 40.901825 3.901832 40.981807 3.990905 41.059337 C 4.079672 41.137174 4.170582 41.212559 4.263021 41.285798 C 4.355767 41.359038 4.450044 41.430133 4.546157 41.498776 C 4.64227 41.567113 4.739914 41.633305 4.839394 41.697351 C 4.938874 41.761091 5.039578 41.82238 5.142119 41.881217 C 5.244354 41.940054 5.348119 41.99644 5.453109 42.050067 C 5.558405 42.103695 5.664925 42.154871 5.772363 42.203595 C 5.880108 42.252013 5.988771 42.29798 6.098658 42.340882 C 6.208545 42.38409 6.319657 42.42454 6.431381 42.462233 C 6.54341 42.500232 6.656052 42.535166 6.769613 42.567343 C 6.883173 42.599519 6.997652 42.628938 7.112742 42.655292 C 7.227833 42.681953 7.34323 42.705549 7.459545 42.726693 C 7.57586 42.747531 7.692482 42.765611 7.809409 42.780627 C 7.926642 42.795643 8.043876 42.808207 8.161721 42.8174 C 8.279261 42.8269 8.397106 42.833335 8.515258 42.837013 C 8.63341 42.840384 8.751255 42.841303 8.869407 42.839158 C 8.987559 42.836706 9.105404 42.831803 9.22325 42.823836 C 9.341096 42.815868 9.458635 42.804836 9.575869 42.791046 C 9.693102 42.777256 9.810029 42.760708 9.926345 42.741096 C 10.042966 42.72179 10.158669 42.69942 10.274066 42.673985 C 10.389462 42.648857 10.503941 42.62097 10.618114 42.59002 C 10.73198 42.559375 10.845234 42.525667 10.95757 42.4892 C 11.069906 42.452733 11.181324 42.413815 11.291517 42.371832 C 11.402016 42.32985 11.511291 42.285415 11.619648 42.238223 C 11.727699 42.191031 11.834831 42.141081 11.940433 42.088679 C 12.046341 42.035971 12.150719 41.981117 12.253872 41.923506 C 12.356719 41.865895 12.458342 41.805526 12.558434 41.743011 C 12.658526 41.680497 12.757088 41.615531 12.854119 41.547807 C 12.950844 41.48039 13.046039 41.410827 13.139703 41.338507 C 13.233062 41.266493 13.324889 41.192027 13.414574 41.115416 C 13.50426 41.038805 13.592414 40.96005 13.67812 40.879149 C 13.764132 40.797941 13.848001 40.715202 13.930034 40.630011 C 13.930034 40.630011 18.410004 36.930018 20.189931 35.719875 C 20.371138 35.612314 20.558467 35.51701 20.752223 35.43427 C 20.946286 35.351837 21.144634 35.282581 21.347879 35.226502 C 21.550819 35.170729 21.756819 35.12844 21.96588 35.100247 C 22.174635 35.072055 22.384308 35.057958 22.5949 35.057958 C 22.805798 35.057958 23.015471 35.072055 23.224226 35.100247 C 23.432981 35.12844 23.638982 35.170729 23.842227 35.226502 C 24.045472 35.282581 24.24382 35.351837 24.437577 35.43427 C 24.631639 35.51701 24.818968 35.612314 24.999869 35.719875 M 5.850111 32.53011 C 5.950815 32.425 6.056723 32.325406 6.167223 32.231022 C 6.278028 32.136638 6.392813 32.047769 6.512189 31.964723 C 6.631565 31.881371 6.75492 31.804453 6.881643 31.733359 C 7.008671 31.662264 7.13876 31.597604 7.272217 31.53938 C 7.405367 31.481156 7.541272 31.429674 7.679626 31.384627 C 7.81798 31.339886 7.95817 31.301887 8.100503 31.27063 C 8.24253 31.239679 8.385781 31.21547 8.530257 31.198616 C 8.674732 31.181455 8.81982 31.171649 8.965214 31.168891 C 9.110608 31.166133 9.255696 31.170423 9.400784 31.181761 C 9.545872 31.193406 9.690041 31.211793 9.833292 31.237534 C 9.976238 31.263275 10.117958 31.295758 10.257843 31.335596 C 10.398033 31.375127 10.535775 31.4214 10.671068 31.474414 C 10.80636 31.527735 10.938898 31.587185 11.068682 31.653377 C 11.198159 31.719569 11.324269 31.791889 11.446706 31.870339 C 11.569143 31.948788 11.687295 32.033366 11.801467 32.123461 C 11.91564 32.213555 12.025221 32.309165 12.129904 32.409985 C 12.230609 32.515095 12.325497 32.624801 12.415182 32.739411 C 12.504868 32.853714 12.588737 32.972307 12.666791 33.094885 C 12.744844 33.217462 12.816776 33.343716 12.882586 33.473342 C 12.948396 33.602967 13.007471 33.735657 13.060119 33.871105 C 13.113073 34.006552 13.158987 34.144452 13.198167 34.284496 C 13.237347 34.424541 13.269793 34.566117 13.294892 34.709226 C 13.320298 34.852335 13.338663 34.996363 13.349989 35.141311 C 13.361008 35.286258 13.365294 35.431512 13.362233 35.576766 C 13.359172 35.722327 13.349071 35.866968 13.331929 36.011302 C 13.314482 36.155943 13.290301 36.299052 13.259079 36.440935 C 13.227858 36.583125 13.189903 36.723169 13.144907 36.861375 C 13.099911 36.999581 13.048182 37.135335 12.990024 37.268638 C 12.93156 37.401634 12.866975 37.531872 12.795962 37.65874 C 12.724948 37.785607 12.647813 37.908491 12.564862 38.028003 C 12.481605 38.14721 12.392838 38.262126 12.298561 38.372752 C 12.204285 38.483378 12.104805 38.5891 12.000121 38.68992 C 11.899111 38.794724 11.793203 38.894011 11.682397 38.988396 C 11.571592 39.08278 11.456501 39.171342 11.336819 39.254388 C 11.217443 39.337128 11.094087 39.414045 10.967059 39.484833 C 10.840031 39.555621 10.709635 39.620281 10.576179 39.678199 C 10.443029 39.736116 10.307124 39.787599 10.168464 39.832339 C 10.03011 39.87708 9.88992 39.914773 9.747587 39.945723 C 9.60556 39.976674 9.462308 40.00027 9.317833 40.017125 C 9.173357 40.033979 9.028269 40.043785 8.882875 40.046237 C 8.737481 40.048688 8.592087 40.044092 8.447 40.032447 C 8.302218 40.020802 8.158048 40.001802 8.014797 39.976061 C 7.871852 39.950014 7.730131 39.917224 7.590247 39.877387 C 7.450362 39.837549 7.312621 39.79097 7.177328 39.737649 C 7.042035 39.684328 6.909803 39.624571 6.780326 39.558379 C 6.650849 39.491881 6.524739 39.419254 6.402608 39.340805 C 6.280171 39.262049 6.162019 39.177471 6.047847 39.08707 C 5.93398 38.99667 5.824705 38.901059 5.720022 38.799933 C 5.619317 38.69513 5.524122 38.58573 5.434131 38.471733 C 5.34414 38.357736 5.259965 38.239449 5.181911 38.116872 C 5.103551 37.994601 5.031314 37.868653 4.965504 37.739334 C 4.899694 37.609709 4.840312 37.477325 4.787358 37.342184 C 4.734404 37.206736 4.68849 37.069143 4.649004 36.929405 C 4.609824 36.789361 4.577378 36.648091 4.551973 36.504982 C 4.526567 36.361873 4.508202 36.218151 4.496876 36.073204 C 4.485551 35.928256 4.481571 35.783309 4.484632 35.638055 C 4.487693 35.492801 4.497794 35.34816 4.514936 35.203825 C 4.532077 35.05949 4.556564 34.916382 4.587786 34.774499 C 4.619007 34.632922 4.657269 34.492877 4.70257 34.354672 C 4.747566 34.216466 4.799295 34.081018 4.857759 33.948022 C 4.916223 33.815026 4.981114 33.685094 5.052128 33.558533 C 5.123447 33.431972 5.200583 33.309088 5.28384 33.190188 C 5.367097 33.070982 5.45617 32.956372 5.550753 32.846053 C 5.645335 32.735734 5.745121 32.630317 5.850111 32.53011 Z M 5.850111 32.53011 " transform="matrix(12.761666,0,0,12.747071,28.16315,20.523886)"/>
<path style="fill:none;stroke-width:1.5;stroke-linecap:round;stroke-linejoin:round;stroke:rgb(0%,0%,0%);stroke-opacity:1;stroke-miterlimit:4;" d="M 46.92007 3.410062 C 46.92007 3.410062 45.220032 2.609939 43.340012 5.350152 C 41.459992 8.090059 27.54013 27.919982 27.54013 27.919982 L 31.459951 31.099941 Z M 46.92007 3.410062 " transform="matrix(12.761666,0,0,12.747071,28.16315,20.523886)"/>
<path style="fill:none;stroke-width:1.5;stroke-linecap:round;stroke-linejoin:round;stroke:rgb(0%,0%,0%);stroke-opacity:1;stroke-miterlimit:4;" d="M 30.29986 46.59002 C 30.045497 46.331688 29.772157 46.094808 29.480144 45.879991 C 29.025291 45.50276 28.628289 45.072514 28.288832 44.588947 C 27.949682 44.10538 27.680014 43.585959 27.480136 43.030072 C 27.239853 41.819928 28.069976 38.21003 28.930096 36.390066 C 30.029886 34.030149 31.429953 31.099941 31.429953 31.099941 L 27.510133 27.919982 C 26.522679 28.921132 25.64603 30.011149 24.87988 31.190035 C 24.795093 31.366853 24.720712 31.547961 24.657045 31.733359 C 24.593378 31.919063 24.54073 32.107525 24.499101 32.299359 C 24.457779 32.491192 24.427782 32.684558 24.40911 32.879762 C 24.390133 33.075272 24.383092 33.270783 24.387378 33.466906 C 24.391663 33.66303 24.40758 33.858234 24.434822 34.052519 C 24.462064 34.246804 24.500632 34.438637 24.550525 34.628632 C 24.600418 34.81832 24.66133 35.004331 24.733262 35.186971 C 24.804888 35.369304 24.887227 35.547041 24.979973 35.719875 C 25.087717 35.900983 25.182912 36.088526 25.265557 36.282198 C 25.348202 36.476176 25.417379 36.674751 25.473394 36.877923 C 25.529409 37.080788 25.571343 37.287024 25.599504 37.495712 C 25.62797 37.7044 25.642051 37.914313 25.642051 38.125146 C 25.642051 38.335672 25.62797 38.545586 25.599504 38.754273 C 25.571343 38.962961 25.529409 39.169197 25.473394 39.372062 C 25.417379 39.575234 25.348202 39.773809 25.265557 39.967787 C 25.182912 40.161459 25.087717 40.349002 24.979973 40.53011 C 23.78009 42.309931 20.069943 46.780014 20.069943 46.780014 C 19.99189 46.864286 19.915673 46.950396 19.841904 47.038346 C 19.76783 47.126295 19.696204 47.216083 19.626415 47.307709 C 19.556932 47.399029 19.489592 47.492188 19.4247 47.586878 C 19.359503 47.681569 19.296754 47.777792 19.236453 47.875854 C 19.176153 47.973609 19.118302 48.072591 19.062593 48.17341 C 19.00719 48.273924 18.95393 48.375969 18.903425 48.47924 C 18.85292 48.582205 18.804863 48.686702 18.759561 48.792119 C 18.713954 48.897841 18.671101 49.004484 18.630696 49.112045 C 18.590598 49.219607 18.552949 49.328087 18.517748 49.437794 C 18.482854 49.547194 18.450408 49.657514 18.420717 49.768446 C 18.391332 49.879378 18.364396 49.99123 18.340215 50.103694 C 18.316033 50.215853 18.294607 50.32893 18.275629 50.442314 C 18.256957 50.555698 18.241041 50.669388 18.227879 50.783691 C 18.214717 50.897688 18.20431 51.012298 18.196963 51.126907 C 18.189311 51.241517 18.184414 51.356433 18.182577 51.471349 C 18.180434 51.586265 18.181353 51.701182 18.185026 51.815791 C 18.188393 51.930707 18.194821 52.045623 18.204003 52.160233 C 18.213186 52.274536 18.225124 52.38884 18.240122 52.502836 C 18.254815 52.616833 18.272262 52.730523 18.292464 52.843601 C 18.312972 52.956678 18.335929 53.069143 18.361641 53.181301 C 18.387353 53.293153 18.415819 53.404698 18.447041 53.515324 C 18.478262 53.62595 18.512239 53.735656 18.548664 53.844444 C 18.585089 53.953537 18.624268 54.061712 18.666203 54.16866 C 18.707832 54.275609 18.752215 54.381638 18.799353 54.486442 C 18.846185 54.591552 18.895772 54.695129 18.947808 54.797788 C 18.999844 54.90014 19.054022 55.001266 19.110955 55.101166 C 19.167889 55.201067 19.227271 55.299435 19.289101 55.396271 C 19.350932 55.493413 19.414905 55.588717 19.481327 55.682488 C 19.547443 55.77626 19.616314 55.868499 19.687022 55.9589 C 19.758035 56.049607 19.830885 56.138169 19.906184 56.225199 C 19.981176 56.312229 20.058618 56.397113 20.137896 56.480466 C 20.217174 56.563512 20.298594 56.644719 20.381851 56.723782 C 20.465109 56.80315 20.550202 56.880374 20.637133 56.955453 C 20.724369 57.030531 20.813136 57.103158 20.903739 57.173946 C 20.994343 57.244735 21.086476 57.313378 21.180447 57.37957 C 21.274417 57.445761 21.369612 57.509808 21.466643 57.571403 C 21.563675 57.632998 21.662236 57.692141 21.762329 57.748833 C 21.862115 57.805832 21.963431 57.860072 22.065972 57.911861 C 22.168513 57.96365 22.272279 58.012987 22.377268 58.059873 C 22.482258 58.106759 22.588166 58.150886 22.695298 58.192563 C 22.802431 58.234239 22.910481 58.273464 23.01945 58.309624 C 23.128419 58.346091 23.238307 58.379799 23.349112 58.41075 C 23.459611 58.442007 23.571029 58.4702 23.683059 58.495941 C 23.795089 58.521376 23.907731 58.544359 24.020985 58.564584 C 24.133933 58.58481 24.247493 58.601971 24.361666 58.61668 C 24.475532 58.631389 24.590011 58.643034 24.704489 58.652227 C 24.818968 58.661114 24.933753 58.667549 25.048537 58.67092 C 25.163628 58.674291 25.278413 58.674904 25.393198 58.672759 C 25.508288 58.670614 25.623073 58.665711 25.737552 58.65805 C 25.852336 58.650388 25.966815 58.639663 26.080987 58.626486 C 26.19516 58.613309 26.30872 58.597067 26.42228 58.578374 C 26.535535 58.559375 26.648483 58.537924 26.760819 58.513408 C 26.873155 58.4892 26.984878 58.462233 27.095684 58.432201 C 27.206796 58.402476 27.316989 58.369993 27.42657 58.335059 C 27.535845 58.299818 27.644202 58.262125 27.751946 58.221675 C 27.859385 58.181224 27.966211 58.138016 28.071507 58.092662 C 28.177109 58.047002 28.281486 57.998891 28.384639 57.948021 C 28.487793 57.897458 28.589415 57.844137 28.69012 57.788364 C 28.790518 57.732898 28.889692 57.674674 28.987335 57.614305 C 29.085285 57.553936 29.181398 57.491115 29.275981 57.425842 C 29.370869 57.36057 29.463921 57.293153 29.555137 57.22359 C 29.646659 57.153721 29.736038 57.082013 29.824192 57.007854 C 29.912041 56.933695 29.998053 56.857697 30.082228 56.779248 C 30.166404 56.701105 30.248436 56.620817 30.328939 56.53869 C 30.409135 56.456257 30.487189 56.372292 30.563406 56.286181 C 30.639623 56.200071 30.713697 56.112121 30.785629 56.02264 C 30.857561 55.932852 30.927044 55.841532 30.994384 55.748374 C 31.06203 55.655215 31.127228 55.560831 31.189977 55.464301 C 31.252726 55.368078 31.313332 55.270629 31.371184 55.171342 C 31.429341 55.072054 31.48505 54.971541 31.538004 54.869802 C 31.591264 54.767756 31.642076 54.664791 31.690132 54.560294 C 31.738189 54.456104 31.783796 54.350381 31.826955 54.244045 C 31.869808 54.137403 31.910213 54.029842 31.948168 53.921361 C 31.985817 53.812574 32.021018 53.703173 32.053464 53.59316 C 32.08591 53.482841 32.115601 53.371909 32.142537 53.260057 C 32.169779 53.148512 32.19396 53.036047 32.215693 52.923276 C 32.237119 52.810199 32.256097 52.697121 32.272014 52.583124 C 32.287931 52.469434 32.301399 52.355131 32.311806 52.240828 C 32.322213 52.126218 32.330171 52.011608 32.335069 51.896999 C 32.339966 51.782083 32.342109 51.667166 32.341191 51.55225 C 32.340579 51.437334 32.337212 51.322418 32.330784 51.207808 C 32.324662 51.092892 32.315479 50.978283 32.303847 50.863979 C 32.29191 50.749676 32.277217 50.635679 32.25977 50.522296 C 32.242323 50.408605 32.222427 50.295528 32.19947 50.182757 C 32.176513 50.070292 32.150801 49.958134 32.122335 49.846895 C 32.094174 49.73535 32.062953 49.624724 32.029283 49.515018 C 31.995612 49.405005 31.959187 49.296217 31.920008 49.188043 C 31.881134 49.079869 31.839505 48.97292 31.795122 48.866891 C 31.750738 48.760861 31.703906 48.655752 31.654625 48.552174 C 31.605344 48.44829 31.553309 48.345631 31.498824 48.244505 C 31.444646 48.143379 31.387713 48.043478 31.328637 47.944804 C 31.269255 47.846436 31.20773 47.749293 31.143757 47.653989 C 31.079784 47.558379 31.013668 47.464608 30.945103 47.372368 C 30.876538 47.280129 30.805831 47.189422 30.732675 47.100554 C 30.659825 47.011991 30.584832 46.924962 30.507697 46.839771 C 30.430562 46.754579 30.351284 46.671227 30.269863 46.59002 Z M 21.909865 55.00004 C 21.80059 54.898607 21.696519 54.791965 21.597651 54.680114 C 21.498783 54.568568 21.405425 54.45212 21.318188 54.331075 C 21.230952 54.21003 21.149531 54.085001 21.074845 53.955989 C 20.999852 53.826976 20.931287 53.694593 20.869457 53.558839 C 20.807626 53.423085 20.752529 53.284572 20.704473 53.143302 C 20.656416 53.002032 20.615094 52.858923 20.581424 52.713669 C 20.547448 52.568415 20.520511 52.421629 20.501228 52.273617 C 20.481638 52.125912 20.4697 51.977287 20.465109 51.828049 C 20.460211 51.678811 20.462966 51.52988 20.473067 51.380949 C 20.482862 51.232017 20.500309 51.084005 20.525103 50.936913 C 20.54959 50.78982 20.58173 50.64426 20.620604 50.500232 C 20.659783 50.356203 20.706003 50.214627 20.759264 50.075195 C 20.812218 49.935764 20.872212 49.79909 20.93894 49.665787 C 21.005668 49.532178 21.078518 49.402247 21.158102 49.275992 C 21.237686 49.149738 21.323086 49.027773 21.414914 48.910099 C 21.506435 48.792119 21.603773 48.679348 21.706314 48.571173 C 21.809161 48.462999 21.917211 48.360034 22.030159 48.262585 C 22.143108 48.165136 22.260647 48.07351 22.382778 47.987706 C 22.504603 47.901902 22.630713 47.822227 22.760802 47.748987 C 22.890585 47.67544 23.023736 47.608942 23.160559 47.548573 C 23.297076 47.48851 23.436042 47.435189 23.578069 47.388916 C 23.71979 47.342643 23.863653 47.303112 24.009353 47.271242 C 24.155053 47.239066 24.301978 47.214244 24.450127 47.19647 C 24.598275 47.179003 24.747036 47.168584 24.896103 47.165826 C 25.045477 47.163068 25.194237 47.167665 25.342998 47.179309 C 25.491759 47.191261 25.639602 47.210567 25.786526 47.237227 C 25.933451 47.263581 26.078539 47.29729 26.222096 47.338353 C 26.365347 47.37911 26.506762 47.427222 26.645422 47.482075 C 26.784082 47.536928 26.919681 47.598523 27.052525 47.66686 C 27.185063 47.735197 27.314234 47.809969 27.439426 47.89087 C 27.564618 47.972077 27.685524 48.059107 27.802145 48.152266 C 27.918767 48.245424 28.03049 48.343793 28.137317 48.447983 C 28.244143 48.552174 28.345766 48.661267 28.441879 48.775571 C 28.537686 48.889874 28.627983 49.008467 28.712158 49.131657 C 28.79664 49.254541 28.874693 49.381715 28.946319 49.512566 C 29.017945 49.643417 29.083142 49.777333 29.141606 49.914619 C 29.20007 50.051906 29.251493 50.19195 29.296183 50.33414 C 29.340872 50.476636 29.378216 50.62097 29.408519 50.766837 C 29.438822 50.91301 29.461779 51.060409 29.47739 51.208728 C 29.493306 51.357046 29.501571 51.505977 29.502489 51.655215 C 29.503713 51.804453 29.497286 51.953078 29.483511 52.101703 C 29.469737 52.250327 29.448617 52.398033 29.42015 52.544513 C 29.39199 52.690992 29.356483 52.835633 29.31363 52.978742 C 29.271083 53.121545 29.22119 53.262202 29.164563 53.400101 C 29.107936 53.538307 29.044881 53.673142 28.974786 53.804912 C 28.90469 53.936683 28.828473 54.064776 28.745829 54.188886 C 28.663184 54.313301 28.574417 54.433121 28.48014 54.548343 C 28.385558 54.663872 28.285465 54.774498 28.179864 54.879914 C 28.079159 54.984411 27.973557 55.083699 27.863058 55.177777 C 27.752558 55.271855 27.637468 55.360417 27.518398 55.443157 C 27.399022 55.526203 27.275972 55.602813 27.14925 55.673602 C 27.022528 55.74439 26.892745 55.809049 26.759594 55.866967 C 26.626444 55.924885 26.490845 55.976367 26.352797 56.021108 C 26.21475 56.065849 26.074559 56.103541 25.932839 56.134798 C 25.791118 56.165749 25.647867 56.189652 25.503697 56.206506 C 25.359527 56.223667 25.215052 56.233473 25.069658 56.236231 C 24.92457 56.238989 24.779788 56.234699 24.635006 56.22336 C 24.490225 56.211715 24.346361 56.193329 24.203416 56.167894 C 24.060471 56.142153 23.919362 56.10967 23.779478 56.070445 C 23.6399 56.030914 23.502464 55.984641 23.367171 55.931933 C 23.231879 55.878918 23.099647 55.819468 22.970169 55.753583 C 22.840998 55.687698 22.715194 55.615684 22.592757 55.537541 C 22.47032 55.459398 22.352169 55.375433 22.238302 55.285645 C 22.12413 55.195857 22.014855 55.100553 21.909865 55.00004 Z M 21.909865 55.00004 " transform="matrix(12.761666,0,0,12.747071,28.16315,20.523886)"/>
<path style="fill:none;stroke-width:1.5;stroke-linecap:round;stroke-linejoin:round;stroke:rgb(0%,0%,0%);stroke-opacity:1;stroke-miterlimit:4;" d="M 28.230063 33.210107 C 28.230063 33.244122 28.226696 33.277831 28.219962 33.31154 C 28.213228 33.344942 28.203433 33.377425 28.190271 33.408989 C 28.177415 33.440552 28.161192 33.470584 28.14252 33.498776 C 28.123542 33.527276 28.10181 33.55363 28.077629 33.577839 C 28.053447 33.601741 28.027429 33.623499 27.998963 33.642498 C 27.970496 33.661191 27.940499 33.677433 27.908972 33.690303 C 27.877444 33.70348 27.844998 33.713287 27.811328 33.720028 C 27.777964 33.72677 27.744294 33.730141 27.710012 33.730141 C 27.675423 33.730754 27.641141 33.727996 27.607164 33.721867 C 27.573188 33.715738 27.54013 33.706238 27.507991 33.693368 C 27.475851 33.680497 27.445242 33.664869 27.416469 33.645869 C 27.38739 33.627176 27.360454 33.605419 27.335967 33.58121 C 27.311173 33.557001 27.289134 33.530647 27.269851 33.502147 C 27.250261 33.473342 27.234038 33.44331 27.22057 33.41144 C 27.207102 33.37957 27.197001 33.346474 27.190267 33.312766 C 27.183532 33.27875 27.179859 33.244429 27.179859 33.210107 C 27.179859 33.175173 27.183532 33.140851 27.190267 33.10653 C 27.197001 33.072514 27.207102 33.039418 27.220264 33.007242 C 27.233732 32.975065 27.249955 32.944421 27.269238 32.915616 C 27.288522 32.886503 27.310561 32.859843 27.335354 32.835327 C 27.359842 32.810506 27.386472 32.788748 27.415551 32.769442 C 27.444629 32.750136 27.474933 32.733588 27.507072 32.720411 C 27.539212 32.706928 27.572576 32.697122 27.606552 32.690074 C 27.640835 32.683332 27.675117 32.679961 27.710012 32.679961 C 27.7446 32.679961 27.778882 32.683332 27.812553 32.690074 C 27.846529 32.697122 27.879587 32.707234 27.91142 32.720411 C 27.943254 32.733895 27.973557 32.750136 28.002024 32.769749 C 28.030796 32.789055 28.05712 32.811118 28.081302 32.83594 C 28.105483 32.860456 28.12691 32.887423 28.145887 32.916228 C 28.164865 32.945341 28.180476 32.975678 28.193332 33.007855 C 28.206187 33.040031 28.215676 33.073127 28.221798 33.107142 C 28.22792 33.141158 28.230675 33.175479 28.230063 33.210107 Z M 28.230063 33.210107 " transform="matrix(12.761666,0,0,12.747071,28.16315,20.523886)"/>
<path style="fill:none;stroke-width:1.5;stroke-linecap:round;stroke-linejoin:round;stroke:rgb(0%,0%,0%);stroke-opacity:1;stroke-miterlimit:4;" d="M 19.66988 3.71007 L 12.750048 10.629858 " transform="matrix(12.761666,0,0,12.747071,28.16315,20.523886)"/>
<path style="fill:none;stroke-width:1.5;stroke-linecap:round;stroke-linejoin:round;stroke:rgb(0%,0%,0%);stroke-opacity:1;stroke-miterlimit:4;" d="M 22.33013 6.380107 L 15.409991 13.290089 " transform="matrix(12.761666,0,0,12.747071,28.16315,20.523886)"/>
<path style="fill:none;stroke-width:1.5;stroke-linecap:round;stroke-linejoin:round;stroke:rgb(0%,0%,0%);stroke-opacity:1;stroke-miterlimit:4;" d="M 24.990074 9.040032 L 18.080036 15.950014 " transform="matrix(12.761666,0,0,12.747071,28.16315,20.523886)"/>
<path style="fill:none;stroke-width:1.5;stroke-linecap:round;stroke-linejoin:round;stroke:rgb(0%,0%,0%);stroke-opacity:1;stroke-miterlimit:4;" d="M 27.660118 11.699957 L 20.73998 18.620052 " transform="matrix(12.761666,0,0,12.747071,28.16315,20.523886)"/>
<path style="fill:none;stroke-width:1.5;stroke-linecap:round;stroke-linejoin:round;stroke:rgb(0%,0%,0%);stroke-opacity:1;stroke-miterlimit:4;" d="M 30.320062 14.369994 L 23.410024 21.279977 " transform="matrix(12.761666,0,0,12.747071,28.16315,20.523886)"/>
<path style="fill:none;stroke-width:1.5;stroke-linecap:round;stroke-linejoin:round;stroke:rgb(0%,0%,0%);stroke-opacity:1;stroke-miterlimit:4;" d="M 32.990107 17.029919 L 26.069968 23.950014 " transform="matrix(12.761666,0,0,12.747071,28.16315,20.523886)"/>
<path style="fill:none;stroke-width:1.5;stroke-linecap:round;stroke-linejoin:round;stroke:rgb(0%,0%,0%);stroke-opacity:1;stroke-miterlimit:4;" d="M 44.789972 28.830118 L 37.870139 35.749906 " transform="matrix(12.761666,0,0,12.747071,28.16315,20.523886)"/>
<path style="fill:none;stroke-width:1.5;stroke-linecap:round;stroke-linejoin:round;stroke:rgb(0%,0%,0%);stroke-opacity:1;stroke-miterlimit:4;" d="M 47.449916 31.499849 L 40.539878 38.410138 " transform="matrix(12.761666,0,0,12.747071,28.16315,20.523886)"/>
<path style="fill:none;stroke-width:1.5;stroke-linecap:round;stroke-linejoin:round;stroke:rgb(0%,0%,0%);stroke-opacity:1;stroke-miterlimit:4;" d="M 50.109859 34.16008 L 43.200128 41.070063 " transform="matrix(12.761666,0,0,12.747071,28.16315,20.523886)"/>
<path style="fill:none;stroke-width:1.5;stroke-linecap:round;stroke-linejoin:round;stroke:rgb(0%,0%,0%);stroke-opacity:1;stroke-miterlimit:4;" d="M 52.920094 36.969856 L 46.010057 43.880144 " transform="matrix(12.761666,0,0,12.747071,28.16315,20.523886)"/>
<path style="fill:none;stroke-width:1.5;stroke-linecap:round;stroke-linejoin:round;stroke:rgb(0%,0%,0%);stroke-opacity:1;stroke-miterlimit:4;" d="M 55.590139 39.630087 L 48.67 46.549876 " transform="matrix(12.761666,0,0,12.747071,28.16315,20.523886)"/>
</g>
</svg>
