<?xml version="1.0" encoding="UTF-8"?>
<svg xmlns="http://www.w3.org/2000/svg" xmlns:xlink="http://www.w3.org/1999/xlink" width="810pt" height="809.999993pt" viewBox="0 0 810 809.999993" version="1.2">
<defs>
<clipPath id="clip1">
  <path d="M 18 127.691406 L 792 127.691406 L 792 630.941406 L 18 630.941406 Z M 18 127.691406 "/>
</clipPath>
</defs>
<g id="surface1">
<g clip-path="url(#clip1)" clip-rule="nonzero">
<path style=" stroke:none;fill-rule:nonzero;fill:rgb(0%,0%,0%);fill-opacity:1;" d="M 671.664062 631.292969 L 137.40625 631.292969 C 53.117188 631.292969 27.179688 600.140625 20.699219 574.183594 C 11.621094 536.542969 40.148438 497.605469 72.566406 480.730469 C 88.128906 472.945312 243.738281 382.089844 376.007812 306.808594 C 378.601562 265.273438 401.941406 249.699219 420.097656 239.3125 C 433.0625 231.527344 439.546875 226.335938 439.546875 217.25 C 439.546875 199.078125 426.578125 196.480469 414.910156 196.480469 C 385.082031 196.480469 378.601562 225.035156 377.304688 236.71875 C 377.304688 238.015625 377.304688 238.015625 376.007812 239.3125 C 373.414062 245.804688 366.929688 245.804688 364.335938 245.804688 C 348.773438 245.804688 322.839844 238.015625 322.839844 205.566406 C 322.839844 173.121094 351.367188 127.691406 414.910156 127.691406 C 470.667969 127.691406 506.976562 161.4375 506.976562 213.355469 C 506.976562 257.484375 483.636719 274.359375 464.183594 287.339844 C 453.8125 295.125 444.734375 301.617188 440.84375 310.703125 C 578.300781 391.171875 722.238281 474.242188 737.800781 482.03125 C 770.21875 498.902344 798.746094 539.140625 789.667969 575.480469 C 781.886719 600.140625 757.25 631.292969 671.664062 631.292969 Z M 413.613281 174.417969 C 439.546875 174.417969 457.703125 189.992188 457.703125 214.652344 C 457.703125 235.421875 443.4375 244.507812 429.171875 253.589844 C 412.316406 263.976562 395.457031 275.65625 394.160156 310.703125 C 394.160156 314.59375 392.863281 317.191406 388.972656 318.488281 C 250.222656 398.960938 97.207031 487.222656 80.347656 496.308594 C 54.414062 509.285156 31.070312 540.4375 38.851562 567.695312 C 46.632812 597.546875 80.347656 611.824219 137.40625 611.824219 L 671.664062 611.824219 C 728.722656 611.824219 762.4375 597.546875 768.921875 568.992188 C 775.40625 541.734375 752.0625 510.585938 727.425781 497.605469 C 710.566406 488.519531 553.660156 397.664062 422.6875 322.382812 C 418.800781 319.785156 417.503906 315.894531 417.503906 312 C 422.6875 291.230469 436.953125 280.847656 451.21875 270.464844 C 469.371094 257.484375 486.230469 245.804688 486.230469 212.058594 C 486.230469 170.523438 459 145.863281 413.613281 145.863281 C 363.039062 145.863281 340.996094 179.609375 340.996094 204.269531 C 340.996094 218.546875 351.367188 222.441406 357.851562 223.738281 C 364.335938 197.78125 381.195312 174.417969 413.613281 174.417969 Z M 671.664062 589.757812 L 137.40625 589.757812 C 92.019531 589.757812 64.785156 580.671875 60.898438 563.800781 C 57.007812 548.226562 73.863281 524.863281 92.019531 515.777344 C 107.578125 507.988281 268.375 414.535156 399.347656 339.257812 C 401.941406 337.957031 405.832031 337.957031 409.722656 339.257812 L 411.019531 339.257812 C 595.15625 445.6875 704.082031 509.285156 718.347656 515.777344 C 736.503906 524.863281 753.359375 548.226562 749.46875 563.800781 C 744.28125 580.671875 717.050781 589.757812 671.664062 589.757812 Z M 79.050781 559.90625 C 79.050781 559.90625 88.128906 571.585938 137.40625 571.585938 L 671.664062 571.585938 C 720.941406 571.585938 730.019531 559.90625 730.019531 559.90625 C 730.019531 556.011719 722.238281 541.734375 709.269531 533.949219 C 691.117188 524.863281 534.210938 434.003906 404.535156 358.726562 C 347.476562 391.171875 121.84375 522.265625 99.800781 533.949219 C 86.832031 540.4375 77.753906 556.011719 79.050781 559.90625 Z M 79.050781 559.90625 "/>
</g>
</g>
</svg>
