<?xml version="1.0" encoding="UTF-8"?>
<svg xmlns="http://www.w3.org/2000/svg" xmlns:xlink="http://www.w3.org/1999/xlink" width="810pt" height="809.999993pt" viewBox="0 0 810 809.999993" version="1.2">
<defs>
<clipPath id="clip1">
  <path d="M 315 27.519531 L 458 27.519531 L 458 187 L 315 187 Z M 315 27.519531 "/>
</clipPath>
<clipPath id="clip2">
  <path d="M 39.667969 625 L 770.003906 625 L 770.003906 782.769531 L 39.667969 782.769531 Z M 39.667969 625 "/>
</clipPath>
</defs>
<g id="surface1">
<path style=" stroke:none;fill-rule:nonzero;fill:rgb(1.568604%,2.349854%,2.349854%);fill-opacity:1;" d="M 237.71875 72.5 C 234.429688 72.5 231.199219 72.976562 228.175781 73.957031 C 216.820312 77.609375 208.074219 87.675781 203.539062 102.339844 C 198.707031 117.988281 199.242188 136.722656 205.109375 155.101562 C 210.949219 173.453125 221.355469 189.039062 234.371094 198.988281 C 243.171875 205.726562 252.480469 209.289062 261.316406 209.289062 C 264.578125 209.289062 267.808594 208.785156 270.832031 207.804688 C 282.183594 204.183594 290.929688 194.117188 295.464844 179.449219 C 300.296875 163.773438 299.765625 145.039062 293.894531 126.6875 C 288.054688 108.339844 277.648438 92.75 264.636719 82.773438 C 255.832031 76.066406 246.523438 72.5 237.71875 72.5 Z M 261.226562 225.058594 C 249.011719 225.058594 236.414062 220.367188 224.824219 211.488281 C 209.289062 199.609375 196.957031 181.292969 190.140625 159.882812 C 183.324219 138.476562 182.757812 116.386719 188.539062 97.679688 C 194.648438 77.964844 207.007812 64.21875 223.402344 58.992188 C 228.054688 57.507812 232.886719 56.734375 237.808594 56.734375 C 249.992188 56.734375 262.5625 61.425781 274.179688 70.304688 C 289.714844 82.179688 302.046875 100.5 308.863281 121.910156 C 315.683594 143.285156 316.246094 165.375 310.464844 184.113281 C 304.359375 203.828125 291.996094 217.574219 275.632812 222.800781 C 270.949219 224.285156 266.117188 225.058594 261.226562 225.058594 "/>
<path style=" stroke:none;fill-rule:nonzero;fill:rgb(1.568604%,2.349854%,2.349854%);fill-opacity:1;" d="M 288.292969 211.546875 C 287.699219 211.546875 287.136719 211.457031 286.601562 211.339844 C 273.855469 208.546875 262.085938 201.273438 253.429688 190.882812 C 245.335938 181.144531 240 168.554688 238.429688 155.429688 C 237.363281 146.492188 237.984375 137.703125 238.609375 129.242188 C 238.757812 127.046875 238.90625 124.878906 239.023438 122.738281 C 239.558594 113.921875 239.617188 103.738281 236.207031 95.15625 C 233.570312 88.566406 227.523438 81.410156 219.902344 80.339844 C 217.828125 80.042969 215.992188 78.945312 214.714844 77.28125 C 213.46875 75.589844 212.9375 73.511719 213.234375 71.460938 C 213.765625 67.601562 217.117188 64.691406 221 64.691406 C 221.355469 64.691406 221.742188 64.722656 222.097656 64.78125 C 234.457031 66.535156 245.457031 75.945312 250.792969 89.367188 C 255.328125 100.796875 255.328125 113.121094 254.707031 123.660156 L 254.261719 130.339844 C 253.667969 138.445312 253.132812 146.105469 254.023438 153.558594 C 255.238281 163.714844 259.300781 173.394531 265.496094 180.816406 C 271.929688 188.535156 280.613281 193.941406 289.953125 195.988281 C 294.191406 196.910156 296.886719 201.125 295.941406 205.371094 C 295.167969 208.933594 291.9375 211.546875 288.292969 211.546875 "/>
<path style=" stroke:none;fill-rule:nonzero;fill:rgb(1.568604%,2.349854%,2.349854%);fill-opacity:1;" d="M 160.882812 200.054688 C 153.472656 200.054688 146.890625 202.015625 141.375 205.847656 C 131.59375 212.644531 126.199219 224.847656 126.167969 240.199219 C 126.140625 256.589844 132.1875 274.34375 143.15625 290.171875 C 158.660156 312.5 181.8125 326.929688 202.117188 326.929688 C 209.527344 326.929688 216.019531 325 221.472656 321.199219 C 231.257812 314.398438 236.652344 302.195312 236.683594 286.84375 C 236.710938 270.457031 230.695312 252.699219 219.695312 236.875 C 208.726562 221.046875 194.203125 209.203125 178.847656 203.53125 C 172.652344 201.214844 166.605469 200.054688 160.882812 200.054688 Z M 202.292969 342.574219 C 176.445312 342.574219 148.875 325.917969 130.261719 299.136719 C 117.453125 280.699219 110.429688 259.765625 110.488281 240.167969 C 110.515625 219.535156 118.3125 202.757812 132.425781 192.929688 C 140.636719 187.199219 150.179688 184.320312 160.792969 184.320312 C 168.351562 184.320312 176.265625 185.804688 184.269531 188.773438 C 202.621094 195.542969 219.785156 209.4375 232.589844 227.90625 C 245.398438 246.34375 252.421875 267.277344 252.394531 286.875 C 252.332031 307.511719 244.539062 324.285156 230.425781 334.113281 C 222.363281 339.726562 212.90625 342.574219 202.292969 342.574219 "/>
<path style=" stroke:none;fill-rule:nonzero;fill:rgb(1.568604%,2.349854%,2.349854%);fill-opacity:1;" d="M 232.917969 320.128906 C 221.296875 320.128906 209.882812 316.683594 199.863281 310.152344 C 189.25 303.234375 180.476562 292.753906 175.113281 280.667969 C 171.464844 272.445312 169.480469 263.894531 167.582031 255.609375 C 167.046875 253.324219 166.574219 251.273438 166.101562 249.226562 C 163.996094 240.675781 161.058594 230.9375 155.28125 223.71875 C 151.753906 219.296875 145.023438 214.160156 137.730469 214.160156 C 136.929688 214.160156 136.128906 214.21875 135.328125 214.339844 C 134.945312 214.425781 134.527344 214.457031 134.113281 214.457031 C 130.289062 214.457031 126.96875 211.605469 126.375 207.804688 C 125.695312 203.53125 128.601562 199.492188 132.898438 198.808594 C 134.46875 198.570312 136.101562 198.453125 137.699219 198.453125 C 148.609375 198.453125 159.785156 204.214844 167.523438 213.894531 C 175.230469 223.484375 178.816406 235.242188 181.335938 245.515625 C 181.871094 247.652344 182.375 249.847656 182.878906 252.015625 C 184.6875 259.945312 186.40625 267.425781 189.460938 274.316406 C 193.609375 283.636719 200.339844 291.683594 208.429688 296.96875 C 215.8125 301.78125 224.4375 304.421875 232.796875 304.421875 C 233.953125 304.421875 235.109375 304.363281 236.265625 304.273438 C 236.296875 304.273438 236.296875 304.273438 236.296875 304.273438 C 240.921875 304.273438 244.390625 307.421875 244.746094 311.460938 C 244.921875 313.539062 244.269531 315.585938 242.90625 317.191406 C 241.542969 318.792969 239.644531 319.773438 237.570312 319.921875 C 236 320.070312 234.457031 320.128906 232.917969 320.128906 "/>
<g clip-path="url(#clip1)" clip-rule="nonzero">
<path style=" stroke:none;fill-rule:nonzero;fill:rgb(1.568604%,2.349854%,2.349854%);fill-opacity:1;" d="M 406.867188 43.285156 C 401.027344 43.285156 394.859375 44.503906 388.515625 46.9375 C 373.222656 52.757812 358.8125 64.753906 347.996094 80.667969 C 337.175781 96.609375 331.335938 114.425781 331.542969 130.816406 C 331.71875 146.167969 337.234375 158.308594 347.074219 165.019531 C 352.53125 168.730469 358.960938 170.601562 366.226562 170.601562 C 372.035156 170.601562 378.203125 169.386719 384.574219 166.949219 C 399.871094 161.132812 414.25 149.136719 425.066406 133.222656 C 446.472656 101.71875 446.886719 63.089844 425.988281 48.835938 C 420.5625 45.15625 414.128906 43.285156 406.867188 43.285156 Z M 366.136719 186.367188 C 355.761719 186.367188 346.363281 183.546875 338.242188 178.023438 C 324.042969 168.347656 316.066406 151.628906 315.832031 130.992188 C 315.59375 111.425781 322.410156 90.40625 335.011719 71.847656 C 347.636719 53.261719 364.652344 39.1875 382.914062 32.238281 C 391.125 29.09375 399.1875 27.519531 406.925781 27.519531 C 417.332031 27.519531 426.699219 30.308594 434.820312 35.863281 C 463.21875 55.222656 464.671875 102.847656 438.050781 142.039062 C 425.453125 160.625 408.4375 174.671875 390.148438 181.648438 C 381.9375 184.796875 373.875 186.367188 366.136719 186.367188 "/>
</g>
<path style=" stroke:none;fill-rule:nonzero;fill:rgb(1.568604%,2.349854%,2.349854%);fill-opacity:1;" d="M 361.097656 184.082031 C 358.101562 184.082031 355.316406 182.332031 354.011719 179.628906 C 348.378906 167.871094 346.839844 154.09375 349.65625 140.882812 C 352.324219 128.46875 358.933594 116.503906 368.269531 107.179688 C 374.671875 100.796875 381.964844 95.867188 388.992188 91.117188 L 394.355469 87.496094 C 401.621094 82.449219 409.652344 76.214844 414.277344 68.253906 C 417.863281 62.140625 419.761719 52.933594 415.910156 46.253906 C 414.839844 44.441406 414.574219 42.335938 415.109375 40.285156 C 415.640625 38.265625 416.945312 36.574219 418.753906 35.507812 C 419.96875 34.824219 421.332031 34.464844 422.695312 34.464844 C 425.484375 34.464844 428.09375 35.980469 429.484375 38.386719 C 435.738281 49.222656 435.117188 63.714844 427.855469 76.183594 C 421.660156 86.8125 411.964844 94.382812 403.308594 100.410156 C 401.472656 101.6875 399.632812 102.933594 397.765625 104.183594 C 391.007812 108.753906 384.664062 113.03125 379.359375 118.316406 C 372.125 125.53125 367.054688 134.707031 365.011719 144.175781 C 362.90625 154.003906 364.03125 164.1875 368.152344 172.800781 C 369.070312 174.699219 369.191406 176.835938 368.507812 178.828125 C 367.796875 180.816406 366.375 182.390625 364.507812 183.308594 C 363.4375 183.816406 362.28125 184.082031 361.097656 184.082031 "/>
<path style=" stroke:none;fill-rule:nonzero;fill:rgb(1.568604%,2.349854%,2.349854%);fill-opacity:1;" d="M 296.679688 267.605469 C 288.648438 284.171875 285.417969 301.75 287.550781 317.367188 C 289.65625 332.570312 296.621094 343.941406 307.234375 349.375 C 311.710938 351.691406 316.691406 352.847656 322.054688 352.847656 C 329.289062 352.847656 336.90625 350.769531 344.644531 346.644531 C 359.109375 338.953125 371.917969 325.296875 380.660156 308.132812 C 389.4375 290.972656 393.054688 272.59375 390.828125 256.320312 C 388.726562 241.121094 381.757812 229.746094 371.144531 224.316406 C 366.667969 222.027344 361.660156 220.839844 356.292969 220.839844 C 349.0625 220.839844 341.472656 222.949219 333.734375 227.046875 C 319.832031 234.4375 307.5 247.355469 298.753906 263.535156 L 291.761719 259.945312 L 289.683594 264.011719 Z M 322.054688 368.617188 C 314.230469 368.617188 306.847656 366.863281 300.058594 363.359375 C 284.765625 355.519531 274.804688 339.933594 271.988281 319.503906 C 269.347656 300.085938 273.5 278.382812 283.726562 258.398438 C 293.953125 238.417969 309.101562 222.355469 326.382812 213.152344 C 336.433594 207.804688 346.511719 205.074219 356.292969 205.074219 C 364.148438 205.074219 371.53125 206.855469 378.320312 210.328125 C 393.617188 218.167969 403.578125 233.757812 406.394531 254.214844 C 409.03125 273.601562 404.878906 295.308594 394.652344 315.289062 C 384.425781 335.273438 369.277344 351.335938 351.996094 360.539062 C 341.945312 365.882812 331.867188 368.617188 322.054688 368.617188 "/>
<path style=" stroke:none;fill-rule:nonzero;fill:rgb(1.568604%,2.349854%,2.349854%);fill-opacity:1;" d="M 322.53125 366.597656 C 319.832031 366.597656 317.371094 365.261719 315.917969 363.003906 C 308.835938 352.046875 305.605469 338.566406 306.789062 325.085938 C 307.886719 312.46875 312.984375 299.761719 321.105469 289.339844 C 326.652344 282.214844 333.289062 276.453125 339.695312 270.839844 C 341.324219 269.445312 342.953125 268.019531 344.554688 266.566406 C 351.105469 260.6875 358.308594 253.53125 361.957031 245.039062 C 364.742188 238.476562 365.453125 229.152344 360.828125 222.976562 C 358.222656 219.535156 358.902344 214.605469 362.34375 211.992188 C 363.734375 210.921875 365.367188 210.390625 367.085938 210.390625 C 369.546875 210.390625 371.859375 211.515625 373.339844 213.507812 C 380.871094 223.484375 382.027344 237.941406 376.363281 251.214844 C 371.5625 262.527344 362.875 271.257812 355.019531 278.292969 C 353.390625 279.75 351.730469 281.203125 350.070312 282.660156 C 343.875 288.0625 338.09375 293.082031 333.46875 299.019531 C 327.183594 307.066406 323.269531 316.832031 322.441406 326.453125 C 321.550781 336.488281 323.921875 346.4375 329.109375 354.480469 C 330.238281 356.265625 330.621094 358.371094 330.179688 360.421875 C 329.734375 362.46875 328.519531 364.222656 326.769531 365.347656 C 325.496094 366.179688 324.011719 366.597656 322.53125 366.597656 "/>
<path style=" stroke:none;fill-rule:nonzero;fill:rgb(1.568604%,2.349854%,2.349854%);fill-opacity:1;" d="M 466.304688 190.496094 C 457.113281 190.496094 447.507812 194.386719 438.554688 201.777344 C 425.898438 212.199219 416.085938 228.175781 410.929688 246.730469 C 405.742188 265.289062 405.890625 284.023438 411.285156 299.492188 C 416.351562 314.011719 425.484375 323.75 436.957031 326.957031 C 439.625 327.699219 442.378906 328.085938 445.226562 328.085938 C 467.902344 328.085938 491.765625 303.886719 500.71875 271.851562 C 505.878906 253.292969 505.757812 234.527344 500.332031 219.058594 C 495.265625 204.570312 486.164062 194.832031 474.691406 191.625 C 471.964844 190.851562 469.148438 190.496094 466.304688 190.496094 Z M 445.078125 343.792969 C 440.898438 343.792969 436.71875 343.199219 432.714844 342.101562 C 416.175781 337.46875 403.308594 324.195312 396.492188 304.71875 C 390 286.222656 389.761719 264.128906 395.808594 242.484375 C 401.828125 220.871094 413.476562 202.105469 428.566406 189.636719 C 440.394531 179.894531 453.40625 174.730469 466.183594 174.730469 C 470.484375 174.730469 474.75 175.324219 478.902344 176.480469 C 495.441406 181.113281 508.308594 194.386719 515.15625 213.863281 C 521.617188 232.359375 521.855469 254.453125 515.835938 276.066406 C 504.898438 315.320312 475.136719 343.792969 445.078125 343.792969 "/>
<path style=" stroke:none;fill-rule:nonzero;fill:rgb(1.568604%,2.349854%,2.349854%);fill-opacity:1;" d="M 453.792969 340.941406 C 451.660156 340.941406 449.671875 340.082031 448.191406 338.566406 C 439.089844 329.246094 433.21875 316.683594 431.679688 303.234375 C 430.257812 290.617188 432.6875 277.164062 438.585938 265.347656 C 442.585938 257.300781 447.894531 250.324219 453.050781 243.585938 C 454.414062 241.804688 455.75 240.082031 457.023438 238.328125 C 462.269531 231.261719 467.902344 222.800781 469.769531 213.746094 C 471.195312 206.796875 470.066406 197.472656 464.285156 192.394531 C 462.714844 191 461.765625 189.070312 461.648438 186.992188 C 461.5 184.882812 462.183594 182.863281 463.574219 181.292969 C 465.058594 179.597656 467.222656 178.621094 469.476562 178.621094 C 471.371094 178.621094 473.238281 179.332031 474.664062 180.578125 C 484.03125 188.863281 488.0625 202.789062 485.15625 216.921875 C 482.667969 228.976562 475.90625 239.25 469.621094 247.710938 C 468.4375 249.316406 467.222656 250.917969 466.007812 252.492188 C 460.640625 259.5 455.988281 265.585938 452.636719 272.355469 C 448.101562 281.5 446.175781 291.832031 447.269531 301.453125 C 448.425781 311.460938 452.726562 320.722656 459.425781 327.582031 C 460.878906 329.097656 461.679688 331.085938 461.648438 333.164062 C 461.617188 335.273438 460.789062 337.230469 459.277344 338.714844 C 457.796875 340.140625 455.867188 340.941406 453.792969 340.941406 "/>
<path style=" stroke:none;fill-rule:nonzero;fill:rgb(1.568604%,2.349854%,2.349854%);fill-opacity:1;" d="M 528.347656 77.667969 C 505.433594 77.667969 487.46875 86.992188 481.480469 101.957031 C 477.0625 113.03125 479.226562 126.183594 487.644531 139.039062 C 496.597656 152.757812 511.390625 164.25 529.238281 171.433594 C 540.796875 176.066406 553.101562 178.53125 564.839844 178.53125 C 587.753906 178.53125 605.6875 169.207031 611.707031 154.242188 C 616.121094 143.167969 613.957031 129.984375 605.539062 117.15625 C 596.585938 103.441406 581.796875 91.949219 563.921875 84.765625 C 552.359375 80.132812 540.058594 77.667969 528.347656 77.667969 Z M 564.601562 194.238281 C 551.054688 194.238281 536.796875 191.386719 523.398438 186.011719 C 502.585938 177.667969 485.214844 164.039062 474.515625 147.652344 C 463.21875 130.398438 460.523438 112.109375 466.925781 96.105469 C 475.34375 75.054688 498.96875 61.960938 528.585938 61.960938 C 542.132812 61.960938 556.390625 64.78125 569.789062 70.15625 C 590.597656 78.527344 607.941406 92.15625 618.671875 108.546875 C 629.964844 125.796875 632.664062 144.117188 626.261719 160.089844 C 617.84375 181.144531 594.214844 194.238281 564.601562 194.238281 "/>
<path style=" stroke:none;fill-rule:nonzero;fill:rgb(1.568604%,2.349854%,2.349854%);fill-opacity:1;" d="M 598.898438 164.070312 C 594.394531 164.070312 589.886719 163.328125 585.441406 161.902344 C 573.761719 158.132812 564.277344 150.292969 556.566406 143.109375 C 554.9375 141.59375 553.308594 140.050781 551.707031 138.507812 C 545.808594 132.863281 540.265625 127.550781 533.980469 123.511719 C 525.441406 118.046875 515.421875 115.019531 505.757812 115.019531 C 495.621094 115.078125 485.957031 118.34375 478.425781 124.253906 C 477.035156 125.351562 475.34375 125.917969 473.59375 125.917969 C 471.136719 125.917969 468.882812 124.816406 467.398438 122.917969 C 464.730469 119.503906 465.324219 114.542969 468.734375 111.871094 C 478.992188 103.828125 492.09375 99.371094 505.582031 99.3125 C 518.476562 99.3125 531.429688 103.203125 542.457031 110.300781 C 549.988281 115.140625 556.332031 121.195312 562.46875 127.046875 L 567.238281 131.585938 C 573.703125 137.585938 581.5 144.117188 590.273438 146.9375 C 593 147.828125 595.964844 148.304688 598.871094 148.304688 C 602.664062 148.304688 608 147.503906 612.0625 143.792969 C 613.515625 142.484375 615.410156 141.773438 617.367188 141.773438 C 619.5625 141.773438 621.667969 142.691406 623.148438 144.324219 C 626.082031 147.503906 625.847656 152.492188 622.644531 155.429688 C 616.539062 160.984375 608.117188 164.070312 598.898438 164.070312 "/>
<path style=" stroke:none;fill-rule:nonzero;fill:rgb(1.568604%,2.349854%,2.349854%);fill-opacity:1;" d="M 632.695312 208.816406 C 617.25 208.816406 600.558594 213.894531 585.679688 223.066406 C 553.335938 243.078125 537.210938 278.175781 550.460938 299.703125 C 557.160156 310.570312 570.707031 316.804688 587.636719 316.804688 C 603.078125 316.804688 619.769531 311.726562 634.648438 302.550781 C 666.992188 282.539062 683.117188 247.445312 669.867188 225.917969 C 663.167969 215.050781 649.621094 208.816406 632.695312 208.816406 Z M 587.871094 332.449219 C 565.195312 332.449219 546.695312 323.542969 537.09375 307.957031 C 519.070312 278.679688 537.152344 234.585938 577.4375 209.707031 C 594.691406 199.046875 614.226562 193.167969 632.457031 193.167969 C 655.105469 193.167969 673.632812 202.105469 683.207031 217.664062 C 701.261719 246.941406 683.148438 291.03125 642.890625 315.914062 C 625.609375 326.570312 606.101562 332.449219 587.871094 332.449219 "/>
<path style=" stroke:none;fill-rule:nonzero;fill:rgb(1.568604%,2.349854%,2.349854%);fill-opacity:1;" d="M 558.703125 323.515625 C 554.40625 323.515625 550.964844 320.160156 550.847656 315.855469 C 550.492188 302.820312 554.699219 289.605469 562.675781 278.710938 C 570.144531 268.464844 581.054688 260.242188 593.414062 255.550781 C 601.804688 252.371094 610.429688 250.859375 618.789062 249.402344 C 620.984375 249.019531 623.117188 248.632812 625.253906 248.246094 C 633.910156 246.613281 643.75 244.238281 651.25 238.832031 C 657.03125 234.707031 662.484375 227.105469 661.683594 219.414062 C 661.476562 217.335938 662.101562 215.289062 663.40625 213.65625 C 664.738281 212.023438 666.605469 211.011719 668.679688 210.773438 L 669.453125 210.746094 C 673.511719 210.746094 676.894531 213.773438 677.308594 217.8125 C 678.582031 230.253906 672.121094 243.199219 660.410156 251.628906 C 650.421875 258.785156 638.503906 261.753906 628.128906 263.714844 L 621.546875 264.875 C 613.453125 266.296875 605.953125 267.605469 598.988281 270.246094 C 589.441406 273.871094 581.054688 280.164062 575.332031 288.003906 C 569.402344 296.109375 566.292969 305.847656 566.527344 315.4375 C 566.589844 317.546875 565.847656 319.535156 564.394531 321.050781 C 562.941406 322.5625 561.015625 323.453125 558.910156 323.515625 L 558.703125 323.515625 "/>
<path style=" stroke:none;fill-rule:nonzero;fill:rgb(42.349243%,30.198669%,23.919678%);fill-opacity:1;" d="M 433.636719 690.351562 C 398.863281 690.351562 359.851562 662.769531 336.550781 621.707031 C 307.679688 570.84375 309.546875 513.746094 339.992188 488.183594 C 352.886719 496.4375 364.921875 511.519531 370.375 526.691406 C 375.03125 539.640625 377.519531 553.207031 380.128906 567.546875 C 380.957031 572.03125 381.757812 576.546875 382.648438 581.027344 C 390.386719 619.953125 412.675781 665.5 452.695312 687.292969 C 446.738281 689.3125 440.363281 690.351562 433.636719 690.351562 "/>
<path style=" stroke:none;fill-rule:nonzero;fill:rgb(42.349243%,30.198669%,23.919678%);fill-opacity:1;" d="M 472.734375 674.941406 C 431.886719 659.5625 409.386719 614.90625 401.886719 577.199219 C 400.996094 572.804688 400.195312 568.410156 399.398438 564.015625 C 396.757812 549.496094 394.03125 534.503906 388.8125 520.042969 C 383.894531 506.296875 373.25 489.699219 358.8125 477.703125 C 364.328125 476.007812 370.199219 475.148438 376.332031 475.148438 C 411.105469 475.148438 450.117188 502.730469 473.417969 543.796875 C 500.867188 592.132812 500.214844 648.339844 472.734375 674.941406 "/>
<path style=" stroke:none;fill-rule:nonzero;fill:rgb(1.568604%,2.349854%,2.349854%);fill-opacity:1;" d="M 404.820312 387.945312 C 216.703125 387.945312 69.34375 327.789062 69.34375 251.035156 C 69.34375 227.9375 81.40625 170.929688 193.015625 140.496094 C 193.699219 140.316406 194.410156 140.226562 195.089844 140.226562 C 198.617188 140.226562 201.730469 142.601562 202.652344 146.019531 C 203.214844 148.066406 202.945312 150.175781 201.910156 151.984375 C 200.84375 153.828125 199.152344 155.132812 197.136719 155.667969 C 95.960938 183.25 85.054688 231.558594 85.054688 251.035156 C 85.054688 316.714844 231.492188 372.207031 404.820312 372.207031 C 578.179688 372.207031 724.621094 316.714844 724.621094 251.035156 C 724.621094 222.652344 684.246094 180.460938 616.65625 158.992188 C 612.535156 157.6875 610.222656 153.234375 611.558594 149.105469 C 612.59375 145.839844 615.589844 143.613281 619 143.613281 C 619.796875 143.613281 620.628906 143.730469 621.398438 144 C 690.292969 165.910156 740.332031 210.921875 740.332031 251.035156 C 740.332031 327.789062 592.941406 387.945312 404.820312 387.945312 "/>
<path style=" stroke:none;fill-rule:nonzero;fill:rgb(1.568604%,2.349854%,2.349854%);fill-opacity:1;" d="M 290.101562 467.546875 C 289.683594 467.546875 289.269531 467.519531 288.855469 467.429688 C 153.175781 445.515625 77.136719 409.621094 62.878906 360.6875 C 50.964844 319.832031 86.890625 287.050781 88.433594 285.65625 C 89.886719 284.378906 91.753906 283.667969 93.679688 283.667969 C 95.902344 283.667969 98.039062 284.617188 99.519531 286.308594 C 102.394531 289.515625 102.128906 294.503906 98.898438 297.386719 C 98.601562 297.652344 68.777344 325.148438 78 356.414062 C 86.59375 385.660156 130.617188 425.949219 291.316406 451.898438 C 295.582031 452.613281 298.519531 456.652344 297.835938 460.925781 C 297.214844 464.757812 293.953125 467.546875 290.101562 467.546875 "/>
<path style=" stroke:none;fill-rule:nonzero;fill:rgb(1.568604%,2.349854%,2.349854%);fill-opacity:1;" d="M 122.316406 506.917969 C 121.632812 506.917969 120.953125 506.828125 120.328125 506.652344 C 87.070312 497.863281 67.148438 482.839844 61.070312 461.90625 C 51.023438 427.285156 84.046875 390.972656 85.46875 389.429688 C 86.949219 387.796875 88.996094 386.90625 91.21875 386.90625 C 93.207031 386.90625 95.101562 387.648438 96.554688 389.011719 C 99.726562 391.953125 99.90625 396.941406 96.96875 400.117188 C 89.054688 408.757812 69.847656 435.925781 76.160156 457.570312 C 80.605469 472.804688 96.820312 484.203125 124.300781 491.449219 C 128.511719 492.546875 131 496.851562 129.90625 501.039062 C 128.984375 504.484375 125.871094 506.917969 122.316406 506.917969 "/>
<path style=" stroke:none;fill-rule:nonzero;fill:rgb(1.568604%,2.349854%,2.349854%);fill-opacity:1;" d="M 261.433594 698.191406 C 197.34375 693.203125 134.882812 683.613281 102.21875 673.753906 C 64.925781 662.472656 39.726562 627.585938 40.945312 588.925781 C 42.871094 526.988281 69.046875 473.871094 70.171875 471.644531 C 71.507812 468.972656 74.203125 467.28125 77.199219 467.28125 C 78.414062 467.28125 79.597656 467.578125 80.695312 468.113281 C 82.5625 469.03125 83.957031 470.664062 84.636719 472.65625 C 85.289062 474.613281 85.140625 476.753906 84.222656 478.621094 C 83.15625 480.820312 58.433594 532.304688 56.625 589.402344 C 55.648438 620.992188 76.25 649.496094 106.753906 658.703125 C 137.996094 668.144531 200.605469 677.703125 262.5625 682.515625 C 264.636719 682.664062 266.5625 683.644531 267.925781 685.246094 C 269.289062 686.820312 269.941406 688.867188 269.765625 690.945312 C 269.46875 695.015625 266.027344 698.222656 261.96875 698.222656 L 261.433594 698.191406 "/>
<path style=" stroke:none;fill-rule:nonzero;fill:rgb(1.568604%,2.349854%,2.349854%);fill-opacity:1;" d="M 519.574219 467.546875 C 515.71875 467.546875 512.457031 464.757812 511.835938 460.925781 C 511.152344 456.652344 514.058594 452.613281 518.328125 451.898438 C 679.203125 425.921875 723.167969 385.570312 731.703125 356.292969 C 740.921875 324.671875 711.070312 297.652344 710.777344 297.386719 C 707.542969 294.503906 707.277344 289.546875 710.152344 286.308594 C 711.636719 284.617188 713.769531 283.667969 716.023438 283.667969 C 717.917969 283.667969 719.789062 284.378906 721.210938 285.65625 C 722.75 287.050781 758.710938 319.832031 746.792969 360.6875 C 732.503906 409.621094 656.496094 445.515625 520.847656 467.429688 C 520.402344 467.519531 519.988281 467.546875 519.574219 467.546875 "/>
<path style=" stroke:none;fill-rule:nonzero;fill:rgb(1.568604%,2.349854%,2.349854%);fill-opacity:1;" d="M 687.355469 506.917969 C 683.800781 506.917969 680.65625 504.484375 679.769531 501.039062 C 678.671875 496.851562 681.160156 492.546875 685.339844 491.449219 C 712.851562 484.203125 729.066406 472.804688 733.511719 457.570312 C 739.828125 435.925781 720.617188 408.757812 712.671875 400.117188 C 709.769531 396.910156 709.945312 391.953125 713.117188 388.984375 C 714.597656 387.648438 716.46875 386.90625 718.453125 386.90625 C 720.675781 386.90625 722.722656 387.824219 724.203125 389.429688 C 725.628906 390.972656 758.648438 427.285156 748.601562 461.90625 C 742.523438 482.839844 722.574219 497.863281 689.34375 506.652344 C 688.691406 506.828125 688.039062 506.917969 687.355469 506.917969 "/>
<path style=" stroke:none;fill-rule:nonzero;fill:rgb(1.568604%,2.349854%,2.349854%);fill-opacity:1;" d="M 547.703125 698.222656 C 543.644531 698.222656 540.203125 695.042969 539.878906 690.945312 C 539.730469 688.867188 540.382812 686.847656 541.746094 685.246094 C 543.109375 683.644531 545.007812 682.664062 547.113281 682.515625 C 609.066406 677.703125 671.675781 668.144531 702.921875 658.703125 C 733.421875 649.496094 754.027344 620.992188 753.046875 589.402344 C 751.238281 532.304688 726.515625 480.820312 725.449219 478.652344 C 724.5 476.753906 724.351562 474.613281 725.035156 472.625 C 725.6875 470.636719 727.109375 469.03125 728.976562 468.113281 C 730.074219 467.546875 731.257812 467.28125 732.476562 467.28125 C 735.46875 467.28125 738.167969 468.941406 739.5 471.644531 C 740.597656 473.902344 766.800781 527.347656 768.730469 588.925781 C 769.945312 627.585938 744.746094 662.472656 707.425781 673.753906 C 674.789062 683.613281 612.328125 693.203125 548.328125 698.191406 L 547.703125 698.222656 "/>
<g clip-path="url(#clip2)" clip-rule="nonzero">
<path style=" stroke:none;fill-rule:nonzero;fill:rgb(1.568604%,2.349854%,2.349854%);fill-opacity:1;" d="M 403.753906 783.050781 C 357.746094 783.050781 311.503906 781.863281 266.265625 779.515625 C 213.707031 776.753906 174.460938 773.015625 142.800781 767.699219 C 91.308594 759.058594 58.640625 740.027344 45.714844 711.105469 C 28.402344 672.417969 53.632812 631.386719 54.726562 629.632812 C 56.179688 627.347656 58.671875 625.980469 61.367188 625.980469 C 62.851562 625.980469 64.304688 626.398438 65.546875 627.199219 C 69.222656 629.515625 70.320312 634.355469 68.007812 638.035156 C 67.769531 638.394531 46.101562 673.753906 60.09375 704.78125 C 70.792969 728.535156 99.488281 744.480469 145.378906 752.171875 C 176.535156 757.398438 215.21875 761.109375 267.097656 763.808594 C 311.949219 766.15625 357.894531 767.34375 403.695312 767.34375 C 449.109375 767.34375 495.234375 766.15625 540.738281 763.871094 C 594.335938 761.136719 632.425781 757.515625 664.265625 752.171875 C 710.183594 744.480469 738.878906 728.535156 749.578125 704.78125 C 763.628906 673.578125 741.871094 638.363281 741.636719 638.007812 C 739.382812 634.355469 740.480469 629.484375 744.15625 627.199219 C 745.398438 626.398438 746.851562 625.980469 748.304688 625.980469 C 751.03125 625.980469 753.492188 627.347656 754.945312 629.664062 C 756.011719 631.386719 781.269531 672.417969 763.957031 711.105469 C 751.003906 740.027344 718.335938 759.058594 666.871094 767.699219 C 634.414062 773.132812 595.757812 776.785156 541.507812 779.546875 C 495.859375 781.890625 449.523438 783.050781 403.753906 783.050781 "/>
</g>
</g>
</svg>
