<?xml version="1.0" encoding="UTF-8"?>
<svg xmlns="http://www.w3.org/2000/svg" xmlns:xlink="http://www.w3.org/1999/xlink" width="810pt" height="809.999993pt" viewBox="0 0 810 809.999993" version="1.2">
<defs>
<clipPath id="clip1">
  <path d="M 752 191 L 802.644531 191 L 802.644531 242 L 752 242 Z M 752 191 "/>
</clipPath>
<clipPath id="clip2">
  <path d="M 70 81 L 740 81 L 740 319 L 70 319 Z M 70 81 "/>
</clipPath>
<clipPath id="clip3">
  <path d="M 87 666 L 722 666 L 722 714.75 L 87 714.75 Z M 87 666 "/>
</clipPath>
</defs>
<g id="surface1">
<path style=" stroke:none;fill-rule:nonzero;fill:rgb(0%,0%,0%);fill-opacity:1;" d="M 46.355469 361.035156 C 44.5625 361.035156 42.789062 360.199219 41.664062 358.621094 L 14.746094 321.003906 C 12.882812 318.40625 13.480469 314.800781 16.074219 312.9375 C 18.636719 311.09375 22.257812 311.667969 24.132812 314.277344 L 51.050781 351.894531 C 52.914062 354.492188 52.3125 358.101562 49.71875 359.960938 C 48.703125 360.691406 47.527344 361.035156 46.355469 361.035156 "/>
<path style=" stroke:none;fill-rule:nonzero;fill:rgb(0%,0%,0%);fill-opacity:1;" d="M 14.101562 355.695312 C 12.308594 355.695312 10.535156 354.851562 9.410156 353.28125 C 7.546875 350.679688 8.144531 347.074219 10.738281 345.214844 L 48.328125 318.28125 C 50.894531 316.433594 54.515625 317.007812 56.386719 319.621094 C 58.246094 322.21875 57.652344 325.824219 55.054688 327.683594 L 17.460938 354.613281 C 16.449219 355.34375 15.277344 355.695312 14.101562 355.695312 "/>
<path style=" stroke:none;fill-rule:nonzero;fill:rgb(0%,0%,0%);fill-opacity:1;" d="M 68.1875 600.554688 C 66.394531 600.554688 64.625 599.710938 63.492188 598.140625 L 36.574219 560.527344 C 34.710938 557.933594 35.3125 554.324219 37.90625 552.457031 C 40.46875 550.609375 44.089844 551.195312 45.960938 553.796875 L 72.878906 591.414062 C 74.742188 594.007812 74.144531 597.613281 71.550781 599.472656 C 70.535156 600.203125 69.359375 600.554688 68.1875 600.554688 "/>
<path style=" stroke:none;fill-rule:nonzero;fill:rgb(0%,0%,0%);fill-opacity:1;" d="M 35.921875 595.210938 C 34.125 595.210938 32.355469 594.367188 31.226562 592.792969 C 29.363281 590.199219 29.964844 586.59375 32.558594 584.726562 L 70.164062 557.796875 C 72.722656 555.949219 76.34375 556.53125 78.214844 559.140625 C 80.078125 561.734375 79.480469 565.339844 76.886719 567.199219 L 39.28125 594.128906 C 38.265625 594.859375 37.09375 595.210938 35.921875 595.210938 "/>
<path style=" stroke:none;fill-rule:nonzero;fill:rgb(0%,0%,0%);fill-opacity:1;" d="M 758.34375 425.648438 C 756.546875 425.648438 754.777344 424.808594 753.644531 423.234375 L 726.726562 385.613281 C 724.867188 383.015625 725.460938 379.410156 728.0625 377.550781 C 730.621094 375.703125 734.242188 376.28125 736.113281 378.886719 L 763.03125 416.507812 C 764.898438 419.101562 764.296875 422.707031 761.703125 424.574219 C 760.6875 425.300781 759.515625 425.648438 758.34375 425.648438 "/>
<path style=" stroke:none;fill-rule:nonzero;fill:rgb(0%,0%,0%);fill-opacity:1;" d="M 726.078125 420.300781 C 724.28125 420.300781 722.515625 419.460938 721.382812 417.882812 C 719.519531 415.289062 720.125 411.683594 722.71875 409.824219 L 760.320312 382.890625 C 762.878906 381.050781 766.503906 381.621094 768.371094 384.226562 C 770.234375 386.824219 769.636719 390.429688 767.046875 392.292969 L 729.441406 419.226562 C 728.421875 419.953125 727.253906 420.300781 726.078125 420.300781 "/>
<path style=" stroke:none;fill-rule:nonzero;fill:rgb(0%,0%,0%);fill-opacity:1;" d="M 758.34375 131.546875 C 756.546875 131.546875 754.777344 130.703125 753.644531 129.132812 L 726.726562 91.511719 C 724.867188 88.917969 725.460938 85.3125 728.0625 83.445312 C 730.621094 81.601562 734.242188 82.179688 736.113281 84.785156 L 763.03125 122.398438 C 764.898438 125 764.296875 128.605469 761.703125 130.46875 C 760.6875 131.195312 759.515625 131.546875 758.34375 131.546875 "/>
<path style=" stroke:none;fill-rule:nonzero;fill:rgb(0%,0%,0%);fill-opacity:1;" d="M 726.078125 126.195312 C 724.28125 126.195312 722.515625 125.351562 721.382812 123.777344 C 719.519531 121.1875 720.125 117.578125 722.71875 115.714844 L 760.320312 88.789062 C 762.878906 86.9375 766.503906 87.519531 768.371094 90.125 C 770.234375 92.722656 769.636719 96.328125 767.046875 98.191406 L 729.441406 125.121094 C 728.421875 125.84375 727.253906 126.195312 726.078125 126.195312 "/>
<path style=" stroke:none;fill-rule:nonzero;fill:rgb(0%,0%,0%);fill-opacity:1;" d="M 68.1875 445.308594 C 60.898438 445.308594 54.964844 451.246094 54.964844 458.535156 C 54.964844 465.828125 60.898438 471.769531 68.1875 471.769531 C 75.472656 471.769531 81.410156 465.828125 81.410156 458.535156 C 81.410156 451.246094 75.472656 445.308594 68.1875 445.308594 Z M 68.1875 483.328125 C 54.523438 483.328125 43.410156 472.210938 43.410156 458.535156 C 43.410156 444.867188 54.523438 433.75 68.1875 433.75 C 81.851562 433.75 92.964844 444.867188 92.964844 458.535156 C 92.964844 472.210938 81.851562 483.328125 68.1875 483.328125 "/>
<g clip-path="url(#clip1)" clip-rule="nonzero">
<path style=" stroke:none;fill-rule:nonzero;fill:rgb(0%,0%,0%);fill-opacity:1;" d="M 777.339844 203.125 C 770.050781 203.125 764.121094 209.0625 764.121094 216.355469 C 764.121094 223.644531 770.050781 229.578125 777.339844 229.578125 C 784.625 229.578125 790.5625 223.644531 790.5625 216.355469 C 790.5625 209.0625 784.625 203.125 777.339844 203.125 Z M 777.339844 241.140625 C 763.679688 241.140625 752.5625 230.023438 752.5625 216.355469 C 752.5625 202.6875 763.679688 191.570312 777.339844 191.570312 C 791 191.570312 802.113281 202.6875 802.113281 216.355469 C 802.113281 230.023438 791 241.140625 777.339844 241.140625 "/>
</g>
<g clip-path="url(#clip2)" clip-rule="nonzero">
<path style=" stroke:none;fill-rule:nonzero;fill:rgb(0%,0%,0%);fill-opacity:1;" d="M 733.890625 318.757812 L 264.089844 318.757812 C 260.894531 318.757812 258.3125 316.175781 258.3125 312.976562 C 258.3125 309.785156 260.894531 307.199219 264.089844 307.199219 L 726.570312 307.199219 L 722.804688 291.5 C 722.703125 291.058594 722.644531 290.601562 722.644531 290.152344 L 675.273438 92.535156 L 134.726562 92.535156 L 83.578125 307.199219 L 170.253906 307.199219 C 173.449219 307.199219 176.03125 309.785156 176.03125 312.976562 C 176.03125 316.175781 173.449219 318.757812 170.253906 318.757812 L 76.265625 318.757812 C 74.496094 318.757812 72.824219 317.949219 71.730469 316.5625 C 70.632812 315.175781 70.242188 313.359375 70.648438 311.644531 L 124.554688 85.410156 C 125.175781 82.808594 127.496094 80.976562 130.171875 80.976562 L 679.828125 80.976562 C 682.503906 80.976562 684.828125 82.808594 685.449219 85.410156 L 734.039062 288.488281 C 734.140625 288.929688 734.195312 289.378906 734.195312 289.828125 L 739.511719 311.632812 C 739.917969 313.347656 739.519531 315.171875 738.429688 316.554688 C 737.332031 317.941406 735.664062 318.757812 733.890625 318.757812 "/>
</g>
<path style=" stroke:none;fill-rule:nonzero;fill:rgb(0%,0%,0%);fill-opacity:1;" d="M 123.1875 365.699219 C 94.125 365.699219 70.488281 342.046875 70.488281 312.976562 C 70.488281 309.785156 73.070312 307.199219 76.265625 307.199219 C 79.460938 307.199219 82.042969 309.785156 82.042969 312.976562 C 82.042969 335.679688 100.496094 354.140625 123.1875 354.140625 C 145.953125 354.140625 164.476562 335.679688 164.476562 312.976562 C 164.476562 309.785156 167.0625 307.199219 170.253906 307.199219 C 173.449219 307.199219 176.03125 309.785156 176.03125 312.976562 C 176.03125 342.046875 152.328125 365.699219 123.1875 365.699219 "/>
<path style=" stroke:none;fill-rule:nonzero;fill:rgb(0%,0%,0%);fill-opacity:1;" d="M 176.4375 318.757812 C 179.246094 338.730469 196.453125 354.140625 217.179688 354.140625 C 237.902344 354.140625 255.097656 338.730469 257.90625 318.757812 Z M 217.179688 365.699219 C 188.113281 365.699219 164.476562 342.046875 164.476562 312.976562 C 164.476562 309.785156 167.0625 307.199219 170.253906 307.199219 L 264.089844 307.199219 C 267.28125 307.199219 269.867188 309.785156 269.867188 312.976562 C 269.867188 342.046875 246.230469 365.699219 217.179688 365.699219 "/>
<path style=" stroke:none;fill-rule:nonzero;fill:rgb(0%,0%,0%);fill-opacity:1;" d="M 311.15625 365.699219 C 282.015625 365.699219 258.3125 342.046875 258.3125 312.976562 C 258.3125 309.785156 260.894531 307.199219 264.089844 307.199219 C 267.28125 307.199219 269.867188 309.785156 269.867188 312.976562 C 269.867188 335.679688 288.386719 354.140625 311.15625 354.140625 C 333.84375 354.140625 352.300781 335.679688 352.300781 312.976562 C 352.300781 309.785156 354.886719 307.199219 358.078125 307.199219 C 361.269531 307.199219 363.855469 309.785156 363.855469 312.976562 C 363.855469 342.046875 340.21875 365.699219 311.15625 365.699219 "/>
<path style=" stroke:none;fill-rule:nonzero;fill:rgb(0%,0%,0%);fill-opacity:1;" d="M 405 365.699219 C 375.9375 365.699219 352.300781 342.046875 352.300781 312.976562 C 352.300781 309.785156 354.886719 307.199219 358.078125 307.199219 C 361.269531 307.199219 363.855469 309.785156 363.855469 312.976562 C 363.855469 335.679688 382.3125 354.140625 405 354.140625 C 427.765625 354.140625 446.292969 335.679688 446.292969 312.976562 C 446.292969 309.785156 448.875 307.199219 452.066406 307.199219 C 455.261719 307.199219 457.84375 309.785156 457.84375 312.976562 C 457.84375 342.046875 434.144531 365.699219 405 365.699219 "/>
<path style=" stroke:none;fill-rule:nonzero;fill:rgb(0%,0%,0%);fill-opacity:1;" d="M 498.988281 365.699219 C 469.925781 365.699219 446.292969 342.046875 446.292969 312.976562 C 446.292969 309.785156 448.875 307.199219 452.066406 307.199219 C 455.261719 307.199219 457.84375 309.785156 457.84375 312.976562 C 457.84375 335.679688 476.304688 354.140625 498.988281 354.140625 C 521.675781 354.140625 540.132812 335.679688 540.132812 312.976562 C 540.132812 309.785156 542.71875 307.199219 545.910156 307.199219 C 549.105469 307.199219 551.683594 309.785156 551.683594 312.976562 C 551.683594 342.046875 528.054688 365.699219 498.988281 365.699219 "/>
<path style=" stroke:none;fill-rule:nonzero;fill:rgb(0%,0%,0%);fill-opacity:1;" d="M 592.980469 365.699219 C 563.839844 365.699219 540.132812 342.046875 540.132812 312.976562 C 540.132812 309.785156 542.71875 307.199219 545.910156 307.199219 C 549.105469 307.199219 551.683594 309.785156 551.683594 312.976562 C 551.683594 335.679688 570.210938 354.140625 592.980469 354.140625 C 615.667969 354.140625 634.128906 335.679688 634.128906 312.976562 C 634.128906 309.785156 636.707031 307.199219 639.902344 307.199219 C 643.097656 307.199219 645.679688 309.785156 645.679688 312.976562 C 645.679688 342.046875 622.042969 365.699219 592.980469 365.699219 "/>
<path style=" stroke:none;fill-rule:nonzero;fill:rgb(0%,0%,0%);fill-opacity:1;" d="M 686.8125 365.699219 C 657.761719 365.699219 634.128906 342.046875 634.128906 312.976562 C 634.128906 309.785156 636.707031 307.199219 639.902344 307.199219 C 643.097656 307.199219 645.679688 309.785156 645.679688 312.976562 C 645.679688 335.679688 664.136719 354.140625 686.8125 354.140625 C 709.589844 354.140625 728.113281 335.679688 728.113281 312.976562 C 728.113281 309.785156 730.699219 307.199219 733.890625 307.199219 C 737.085938 307.199219 739.664062 309.785156 739.664062 312.976562 C 739.664062 342.046875 715.957031 365.699219 686.8125 365.699219 "/>
<path style=" stroke:none;fill-rule:nonzero;fill:rgb(0%,0%,0%);fill-opacity:1;" d="M 686.894531 678.269531 L 123.1875 678.269531 C 119.992188 678.269531 117.410156 675.6875 117.410156 672.488281 L 117.410156 359.917969 C 117.410156 356.722656 119.992188 354.140625 123.1875 354.140625 C 126.382812 354.140625 128.960938 356.722656 128.960938 359.917969 L 128.960938 666.710938 L 681.117188 666.710938 L 681.035156 359.917969 C 681.035156 356.730469 683.617188 354.140625 686.8125 354.140625 C 690.007812 354.140625 692.589844 356.722656 692.589844 359.917969 L 692.667969 672.488281 C 692.667969 674.019531 692.058594 675.488281 690.976562 676.574219 C 689.890625 677.65625 688.425781 678.269531 686.894531 678.269531 "/>
<path style=" stroke:none;fill-rule:nonzero;fill:rgb(0%,0%,0%);fill-opacity:1;" d="M 210.699219 666.710938 L 315.929688 666.710938 L 315.929688 447.160156 L 210.699219 447.160156 Z M 321.707031 678.269531 L 204.925781 678.269531 C 201.730469 678.269531 199.148438 675.6875 199.148438 672.488281 L 199.148438 441.382812 C 199.148438 438.1875 201.730469 435.605469 204.925781 435.605469 L 321.707031 435.605469 C 324.898438 435.605469 327.484375 438.1875 327.484375 441.382812 L 327.484375 672.488281 C 327.484375 675.6875 324.898438 678.269531 321.707031 678.269531 "/>
<path style=" stroke:none;fill-rule:nonzero;fill:rgb(0%,0%,0%);fill-opacity:1;" d="M 422.28125 559.429688 L 620.949219 559.429688 L 620.949219 420.585938 L 422.28125 420.585938 Z M 626.726562 570.984375 L 416.507812 570.984375 C 413.3125 570.984375 410.730469 568.402344 410.730469 565.207031 L 410.730469 414.808594 C 410.730469 411.609375 413.3125 409.027344 416.507812 409.027344 L 626.726562 409.027344 C 629.914062 409.027344 632.503906 411.609375 632.503906 414.808594 L 632.503906 565.207031 C 632.503906 568.402344 629.914062 570.984375 626.726562 570.984375 "/>
<path style=" stroke:none;fill-rule:nonzero;fill:rgb(0%,0%,0%);fill-opacity:1;" d="M 574.136719 190.816406 C 573.746094 190.816406 573.347656 190.769531 572.953125 190.652344 C 571.875 190.339844 546.308594 182.851562 535.632812 162.238281 C 524.964844 141.730469 533.761719 116.71875 534.144531 115.660156 C 534.910156 113.523438 537.148438 112.328125 539.394531 112.96875 C 539.910156 113.113281 552.261719 116.65625 563.332031 125.542969 C 565.203125 127.039062 565.496094 129.773438 564.007812 131.640625 C 562.5 133.511719 559.777344 133.800781 557.917969 132.304688 C 551.859375 127.449219 545.234375 124.371094 541.101562 122.742188 C 539.300781 130.035156 536.730469 145.566406 543.328125 158.246094 C 550.226562 171.566406 565.285156 178.585938 571.996094 181.152344 C 573.097656 180.160156 574.613281 179.640625 576.066406 180.074219 C 578.359375 180.753906 579.78125 182.757812 579.105469 185.039062 C 579.105469 185.058594 578.859375 185.875 578.859375 185.886719 C 578.765625 186.238281 578.136719 188.207031 577.953125 188.53125 C 577.1875 189.964844 575.710938 190.816406 574.136719 190.816406 "/>
<path style=" stroke:none;fill-rule:nonzero;fill:rgb(0%,0%,0%);fill-opacity:1;" d="M 575 183.8125 L 574.953125 183.820312 L 575.011719 183.820312 Z M 575.761719 190.816406 C 574.199219 190.816406 572.71875 189.964844 571.949219 188.53125 C 571.769531 188.207031 571.414062 187.167969 571.320312 186.816406 L 575.261719 184.859375 L 570.777344 184.996094 C 570.136719 182.683594 571.476562 180.296875 573.792969 179.648438 C 575.449219 179.164062 577.1875 179.765625 578.257812 181.015625 C 585.121094 178.328125 599.785156 171.292969 606.441406 158.277344 C 613.058594 145.578125 610.488281 130.050781 608.6875 122.757812 C 604.589844 124.386719 598.023438 127.460938 591.988281 132.304688 C 590.128906 133.789062 587.40625 133.503906 585.894531 131.640625 C 584.410156 129.773438 584.699219 127.039062 586.574219 125.542969 C 597.644531 116.660156 609.871094 113.113281 610.390625 112.96875 C 612.546875 112.335938 614.867188 113.515625 615.648438 115.660156 C 616.027344 116.71875 624.832031 141.730469 614.136719 162.25 C 603.609375 182.847656 578.03125 190.339844 576.953125 190.652344 C 576.554688 190.769531 576.160156 190.816406 575.761719 190.816406 "/>
<path style=" stroke:none;fill-rule:nonzero;fill:rgb(0%,0%,0%);fill-opacity:1;" d="M 574.953125 295.648438 C 572.5625 295.648438 570.621094 293.707031 570.621094 291.316406 L 570.621094 183.820312 C 570.621094 181.429688 572.5625 179.488281 574.953125 179.488281 C 577.34375 179.488281 579.285156 181.429688 579.285156 183.820312 L 579.285156 291.316406 C 579.285156 293.707031 577.34375 295.648438 574.953125 295.648438 "/>
<path style=" stroke:none;fill-rule:nonzero;fill:rgb(0%,0%,0%);fill-opacity:1;" d="M 574.929688 114.761719 C 569.972656 120.425781 560.523438 133.082031 560.523438 147.402344 C 560.523438 161.71875 569.972656 174.386719 574.929688 180.042969 C 579.882812 174.386719 589.335938 161.71875 589.335938 147.402344 C 589.335938 133.082031 579.882812 120.425781 574.929688 114.761719 Z M 574.929688 190.683594 C 573.867188 190.683594 572.808594 190.292969 571.972656 189.519531 C 571.164062 188.757812 551.859375 170.53125 551.859375 147.402344 C 551.859375 124.277344 571.164062 106.046875 571.972656 105.289062 C 573.640625 103.742188 576.21875 103.742188 577.890625 105.289062 C 578.695312 106.046875 598 124.277344 598 147.402344 C 598 170.53125 578.695312 188.757812 577.890625 189.519531 C 577.050781 190.292969 575.988281 190.683594 574.929688 190.683594 "/>
<path style=" stroke:none;fill-rule:nonzero;fill:rgb(0%,0%,0%);fill-opacity:1;" d="M 531.335938 248.574219 C 544.355469 256.75 560.691406 257.582031 569.039062 257.414062 C 566.300781 250.335938 559.863281 237.421875 547.335938 229.542969 C 534.328125 221.371094 517.984375 220.535156 509.640625 220.710938 C 512.382812 227.789062 518.8125 240.703125 531.335938 248.574219 Z M 567.011719 266.125 C 557.199219 266.125 540.589844 264.621094 526.730469 255.925781 C 526.730469 255.917969 526.730469 255.917969 526.730469 255.917969 C 505.839844 242.789062 499.800781 218.753906 499.554688 217.742188 C 499.261719 216.542969 499.496094 215.269531 500.195312 214.253906 C 500.90625 213.230469 502.015625 212.566406 503.246094 212.421875 C 504.359375 212.277344 531.230469 209.191406 551.933594 222.207031 C 572.84375 235.332031 578.875 259.367188 579.121094 260.378906 C 579.417969 261.582031 579.183594 262.855469 578.480469 263.871094 C 577.769531 264.894531 576.667969 265.558594 575.4375 265.703125 C 575.0625 265.746094 571.875 266.125 567.011719 266.125 "/>
<g clip-path="url(#clip3)" clip-rule="nonzero">
<path style=" stroke:none;fill-rule:nonzero;fill:rgb(0%,0%,0%);fill-opacity:1;" d="M 99.402344 703.167969 L 710.246094 703.167969 L 710.246094 678.269531 L 99.402344 678.269531 Z M 716.023438 714.726562 L 93.628906 714.726562 C 90.433594 714.726562 87.851562 712.144531 87.851562 708.949219 L 87.851562 672.488281 C 87.851562 669.292969 90.433594 666.710938 93.628906 666.710938 L 716.023438 666.710938 C 719.210938 666.710938 721.800781 669.292969 721.800781 672.488281 L 721.800781 708.949219 C 721.800781 712.144531 719.210938 714.726562 716.023438 714.726562 "/>
</g>
<path style=" stroke:none;fill-rule:nonzero;fill:rgb(0%,0%,0%);fill-opacity:1;" d="M 156.324219 229.472656 C 161.703125 232.792969 169.578125 235.554688 177.859375 235.554688 C 190.132812 235.554688 197.324219 229.066406 197.324219 219.675781 C 197.324219 210.976562 192.34375 206.003906 179.789062 201.164062 C 164.605469 195.785156 155.21875 187.90625 155.21875 174.796875 C 155.21875 160.292969 167.230469 149.527344 185.308594 149.527344 C 194.828125 149.527344 201.730469 151.734375 205.871094 154.078125 L 202.570312 163.886719 C 199.519531 162.226562 193.316406 159.46875 184.898438 159.46875 C 172.199219 159.46875 167.367188 167.058594 167.367188 173.414062 C 167.367188 182.113281 173.019531 186.394531 185.859375 191.363281 C 201.597656 197.441406 209.597656 205.03125 209.597656 218.710938 C 209.597656 233.0625 198.96875 245.496094 177.027344 245.496094 C 168.058594 245.496094 158.253906 242.871094 153.289062 239.558594 L 156.324219 229.472656 "/>
<path style=" stroke:none;fill-rule:nonzero;fill:rgb(0%,0%,0%);fill-opacity:1;" d="M 238.0625 151.046875 L 238.0625 189.980469 L 283.066406 189.980469 L 283.066406 151.046875 L 295.203125 151.046875 L 295.203125 244.113281 L 283.066406 244.113281 L 283.066406 200.476562 L 238.0625 200.476562 L 238.0625 244.113281 L 226.054688 244.113281 L 226.054688 151.046875 L 238.0625 151.046875 "/>
<path style=" stroke:none;fill-rule:nonzero;fill:rgb(0%,0%,0%);fill-opacity:1;" d="M 323.398438 198.132812 C 323.398438 218.007812 334.171875 235.828125 353.078125 235.828125 C 372.125 235.828125 382.886719 218.289062 382.886719 197.164062 C 382.886719 178.660156 373.230469 159.324219 353.214844 159.324219 C 333.335938 159.324219 323.398438 177.699219 323.398438 198.132812 Z M 395.589844 196.613281 C 395.589844 228.648438 376.128906 245.632812 352.382812 245.632812 C 327.820312 245.632812 310.558594 226.574219 310.558594 198.410156 C 310.558594 168.859375 328.925781 149.527344 353.769531 149.527344 C 379.164062 149.527344 395.589844 168.992188 395.589844 196.613281 "/>
<path style=" stroke:none;fill-rule:nonzero;fill:rgb(0%,0%,0%);fill-opacity:1;" d="M 423.230469 197.027344 C 425.859375 197.714844 429.167969 197.992188 433.171875 197.992188 C 447.667969 197.992188 456.503906 190.953125 456.503906 178.105469 C 456.503906 165.816406 447.804688 159.878906 434.546875 159.878906 C 429.3125 159.878906 425.3125 160.292969 423.230469 160.847656 Z M 411.226562 152.148438 C 417.027344 151.183594 424.617188 150.351562 434.277344 150.351562 C 446.148438 150.351562 454.84375 153.113281 460.363281 158.082031 C 465.472656 162.503906 468.503906 169.269531 468.503906 177.554688 C 468.503906 185.976562 466.023438 192.605469 461.332031 197.441406 C 454.976562 204.210938 444.632812 207.65625 432.902344 207.65625 C 429.3125 207.65625 425.996094 207.523438 423.230469 206.828125 L 423.230469 244.113281 L 411.226562 244.113281 L 411.226562 152.148438 "/>
</g>
</svg>
