<?xml version="1.0" encoding="UTF-8"?>
<svg xmlns="http://www.w3.org/2000/svg" xmlns:xlink="http://www.w3.org/1999/xlink" width="810pt" height="809.999993pt" viewBox="0 0 810 809.999993" version="1.2">
<defs>
<clipPath id="clip1">
  <path d="M 159 219.191406 L 246 219.191406 L 246 590.441406 L 159 590.441406 Z M 159 219.191406 "/>
</clipPath>
<clipPath id="clip2">
  <path d="M 564 219.191406 L 651 219.191406 L 651 590.441406 L 564 590.441406 Z M 564 219.191406 "/>
</clipPath>
</defs>
<g id="surface1">
<path style=" stroke:none;fill-rule:nonzero;fill:rgb(0%,0%,0%);fill-opacity:1;" d="M 269.476562 421.460938 L 540.878906 421.460938 L 540.878906 388.277344 L 269.476562 388.277344 Z M 555.296875 435.863281 L 255.058594 435.863281 L 255.058594 373.878906 L 555.296875 373.878906 L 555.296875 435.863281 "/>
<path style=" stroke:none;fill-rule:nonzero;fill:rgb(0%,0%,0%);fill-opacity:1;" d="M 43.140625 388.277344 C 36.613281 388.277344 31.292969 393.589844 31.292969 400.113281 L 31.292969 409.632812 C 31.292969 416.15625 36.613281 421.460938 43.140625 421.460938 L 88.328125 421.460938 L 88.328125 388.277344 Z M 102.75 435.863281 L 43.140625 435.863281 C 28.65625 435.863281 16.875 424.09375 16.875 409.632812 L 16.875 400.113281 C 16.875 385.648438 28.65625 373.878906 43.140625 373.878906 L 102.75 373.878906 L 102.75 435.863281 "/>
<path style=" stroke:none;fill-rule:nonzero;fill:rgb(0%,0%,0%);fill-opacity:1;" d="M 722.027344 421.460938 L 767.214844 421.460938 C 773.746094 421.460938 779.054688 416.15625 779.054688 409.632812 L 779.054688 400.113281 C 779.054688 393.589844 773.746094 388.277344 767.214844 388.277344 L 722.027344 388.277344 Z M 767.214844 435.863281 L 707.605469 435.863281 L 707.605469 373.878906 L 767.214844 373.878906 C 781.699219 373.878906 793.476562 385.648438 793.476562 400.113281 L 793.476562 409.632812 C 793.476562 424.09375 781.699219 435.863281 767.214844 435.863281 "/>
<g clip-path="url(#clip1)" clip-rule="nonzero">
<path style=" stroke:none;fill-rule:nonzero;fill:rgb(0%,0%,0%);fill-opacity:1;" d="M 190.8125 233.628906 C 181.65625 233.628906 174.203125 241.078125 174.203125 250.222656 L 174.203125 559.523438 C 174.203125 568.671875 181.65625 576.113281 190.8125 576.113281 L 214.628906 576.113281 C 223.785156 576.113281 231.238281 568.671875 231.238281 559.523438 L 231.238281 250.222656 C 231.238281 241.078125 223.785156 233.628906 214.628906 233.628906 Z M 214.628906 590.511719 L 190.8125 590.511719 C 173.703125 590.511719 159.785156 576.613281 159.785156 559.523438 L 159.785156 250.222656 C 159.785156 233.132812 173.703125 219.230469 190.8125 219.230469 L 214.628906 219.230469 C 231.738281 219.230469 245.65625 233.132812 245.65625 250.222656 L 245.65625 559.523438 C 245.65625 576.613281 231.738281 590.511719 214.628906 590.511719 "/>
</g>
<path style=" stroke:none;fill-rule:nonzero;fill:rgb(0%,0%,0%);fill-opacity:1;" d="M 119.359375 269.320312 C 110.199219 269.320312 102.75 276.765625 102.75 285.910156 L 102.75 523.832031 C 102.75 532.984375 110.199219 540.425781 119.359375 540.425781 L 143.179688 540.425781 C 152.332031 540.425781 159.785156 532.984375 159.785156 523.832031 L 159.785156 285.910156 C 159.785156 276.765625 152.332031 269.320312 143.179688 269.320312 Z M 143.179688 554.828125 L 119.359375 554.828125 C 102.246094 554.828125 88.328125 540.921875 88.328125 523.832031 L 88.328125 285.910156 C 88.328125 268.820312 102.246094 254.921875 119.359375 254.921875 L 143.179688 254.921875 C 160.285156 254.921875 174.203125 268.820312 174.203125 285.910156 L 174.203125 523.832031 C 174.203125 540.921875 160.285156 554.828125 143.179688 554.828125 "/>
<g clip-path="url(#clip2)" clip-rule="nonzero">
<path style=" stroke:none;fill-rule:nonzero;fill:rgb(0%,0%,0%);fill-opacity:1;" d="M 595.722656 233.628906 C 586.5625 233.628906 579.109375 241.078125 579.109375 250.222656 L 579.109375 559.523438 C 579.109375 568.671875 586.5625 576.113281 595.722656 576.113281 L 619.542969 576.113281 C 628.699219 576.113281 636.148438 568.671875 636.148438 559.523438 L 636.148438 250.222656 C 636.148438 241.078125 628.699219 233.628906 619.542969 233.628906 Z M 619.542969 590.511719 L 595.722656 590.511719 C 578.617188 590.511719 564.691406 576.613281 564.691406 559.523438 L 564.691406 250.222656 C 564.691406 233.132812 578.617188 219.230469 595.722656 219.230469 L 619.542969 219.230469 C 636.648438 219.230469 650.566406 233.132812 650.566406 250.222656 L 650.566406 559.523438 C 650.566406 576.613281 636.648438 590.511719 619.542969 590.511719 "/>
</g>
<path style=" stroke:none;fill-rule:nonzero;fill:rgb(0%,0%,0%);fill-opacity:1;" d="M 667.175781 269.320312 C 658.019531 269.320312 650.566406 276.765625 650.566406 285.910156 L 650.566406 523.832031 C 650.566406 532.984375 658.019531 540.425781 667.175781 540.425781 L 690.996094 540.425781 C 700.15625 540.425781 707.605469 532.984375 707.605469 523.832031 L 707.605469 285.910156 C 707.605469 276.765625 700.15625 269.320312 690.996094 269.320312 Z M 690.996094 554.828125 L 667.175781 554.828125 C 650.070312 554.828125 636.148438 540.921875 636.148438 523.832031 L 636.148438 285.910156 C 636.148438 268.820312 650.070312 254.921875 667.175781 254.921875 L 690.996094 254.921875 C 708.101562 254.921875 722.027344 268.820312 722.027344 285.910156 L 722.027344 523.832031 C 722.027344 540.921875 708.101562 554.828125 690.996094 554.828125 "/>
<path style=" stroke:none;fill-rule:nonzero;fill:rgb(0%,0%,0%);fill-opacity:1;" d="M 250.359375 340.414062 C 247.765625 340.414062 245.65625 342.523438 245.65625 345.109375 L 245.65625 464.070312 C 245.65625 466.660156 247.765625 468.765625 250.359375 468.765625 C 252.953125 468.765625 255.058594 466.660156 255.058594 464.070312 L 255.058594 345.109375 C 255.058594 342.523438 252.953125 340.414062 250.359375 340.414062 Z M 250.359375 483.167969 C 239.816406 483.167969 231.238281 474.597656 231.238281 464.070312 L 231.238281 345.109375 C 231.238281 334.582031 239.816406 326.011719 250.359375 326.011719 C 260.898438 326.011719 269.476562 334.582031 269.476562 345.109375 L 269.476562 464.070312 C 269.476562 474.597656 260.898438 483.167969 250.359375 483.167969 "/>
<path style=" stroke:none;fill-rule:nonzero;fill:rgb(0%,0%,0%);fill-opacity:1;" d="M 559.996094 340.414062 C 557.402344 340.414062 555.296875 342.523438 555.296875 345.109375 L 555.296875 464.070312 C 555.296875 466.660156 557.402344 468.765625 559.996094 468.765625 C 562.585938 468.765625 564.691406 466.660156 564.691406 464.070312 L 564.691406 345.109375 C 564.691406 342.523438 562.585938 340.414062 559.996094 340.414062 Z M 559.996094 483.167969 C 549.449219 483.167969 540.878906 474.597656 540.878906 464.070312 L 540.878906 345.109375 C 540.878906 334.582031 549.449219 326.011719 559.996094 326.011719 C 570.539062 326.011719 579.109375 334.582031 579.109375 345.109375 L 579.109375 464.070312 C 579.109375 474.597656 570.539062 483.167969 559.996094 483.167969 "/>
<path style=" stroke:none;fill-rule:nonzero;fill:rgb(0%,0%,0%);fill-opacity:1;" d="M 113.738281 420.78125 C 111.75 420.78125 110.132812 419.171875 110.132812 417.183594 L 110.132812 294.078125 C 110.132812 292.09375 111.75 290.476562 113.738281 290.476562 C 115.730469 290.476562 117.34375 292.09375 117.34375 294.078125 L 117.34375 417.183594 C 117.34375 419.171875 115.730469 420.78125 113.738281 420.78125 "/>
<path style=" stroke:none;fill-rule:nonzero;fill:rgb(0%,0%,0%);fill-opacity:1;" d="M 695.191406 517.304688 C 693.203125 517.304688 691.585938 515.699219 691.585938 513.707031 L 691.585938 390.601562 C 691.585938 388.617188 693.203125 387.003906 695.191406 387.003906 C 697.1875 387.003906 698.796875 388.617188 698.796875 390.601562 L 698.796875 513.707031 C 698.796875 515.699219 697.1875 517.304688 695.191406 517.304688 "/>
<path style=" stroke:none;fill-rule:nonzero;fill:rgb(0%,0%,0%);fill-opacity:1;" d="M 206.585938 565.570312 L 200.761719 565.570312 C 198.765625 565.570312 197.15625 563.957031 197.15625 561.972656 C 197.15625 559.980469 198.765625 558.371094 200.761719 558.371094 L 206.585938 558.371094 C 211.007812 558.371094 214.605469 554.777344 214.605469 550.355469 L 214.605469 506.011719 C 214.605469 504.023438 216.222656 502.410156 218.210938 502.410156 C 220.203125 502.410156 221.816406 504.023438 221.816406 506.011719 L 221.816406 550.355469 C 221.816406 558.742188 214.984375 565.570312 206.585938 565.570312 "/>
<path style=" stroke:none;fill-rule:nonzero;fill:rgb(0%,0%,0%);fill-opacity:1;" d="M 591.046875 305.09375 C 589.050781 305.09375 587.441406 303.484375 587.441406 301.492188 L 587.441406 257.148438 C 587.441406 248.761719 594.273438 241.9375 602.667969 241.9375 L 608.496094 241.9375 C 610.484375 241.9375 612.101562 243.550781 612.101562 245.539062 C 612.101562 247.53125 610.484375 249.136719 608.496094 249.136719 L 602.667969 249.136719 C 598.246094 249.136719 594.652344 252.734375 594.652344 257.148438 L 594.652344 301.492188 C 594.652344 303.484375 593.035156 305.09375 591.046875 305.09375 "/>
</g>
</svg>
