<?xml version="1.0" encoding="UTF-8"?>
<svg xmlns="http://www.w3.org/2000/svg" xmlns:xlink="http://www.w3.org/1999/xlink" width="810pt" height="809.999993pt" viewBox="0 0 810 809.999993" version="1.2">
<g id="surface1">
<path style=" stroke:none;fill-rule:nonzero;fill:rgb(1.568604%,2.349854%,2.349854%);fill-opacity:1;" d="M 506.410156 503.023438 C 505.746094 503.023438 505.0625 502.996094 504.363281 502.949219 C 463.738281 539.550781 423.382812 575.785156 384.265625 610.90625 C 341.925781 648.929688 298.144531 688.242188 254.117188 727.921875 C 240.425781 740.140625 227.550781 746.085938 214.75 746.085938 C 194.082031 746.085938 175.40625 730.257812 158.316406 713.164062 L 140.089844 694.949219 C 106.53125 661.378906 93.359375 634.949219 125.332031 599.15625 C 165.003906 555.128906 204.53125 511.433594 242.757812 469.175781 C 277.835938 430.410156 314.015625 390.40625 350.394531 350.066406 C 349.925781 345.300781 350.464844 341.253906 352.019531 337.976562 C 313.378906 380.84375 274.890625 423.378906 237.652344 464.550781 C 199.414062 506.8125 159.886719 550.515625 120.195312 594.550781 C 80.910156 638.542969 107.347656 671.957031 135.214844 699.824219 L 153.441406 718.039062 C 171.582031 736.183594 191.566406 752.980469 214.75 752.980469 C 229.320312 752.980469 243.703125 746.460938 258.722656 733.050781 C 302.75 693.367188 346.53125 654.054688 388.871094 616.035156 C 431.058594 578.164062 474.664062 539.003906 518.527344 499.476562 C 518.824219 499.207031 519.050781 498.902344 519.238281 498.558594 C 516.140625 501.515625 511.832031 503.023438 506.410156 503.023438 "/>
<path style=" stroke:none;fill-rule:nonzero;fill:rgb(1.568604%,2.349854%,2.349854%);fill-opacity:1;" d="M 512.359375 466.160156 C 517.960938 479.292969 518.859375 489.207031 514.605469 493.460938 C 512.84375 495.230469 510.082031 496.128906 506.410156 496.128906 C 486.910156 496.128906 449.410156 472.246094 415.210938 438.050781 C 394.113281 416.953125 376.824219 394.652344 366.515625 375.25 C 357.101562 357.539062 354.585938 343.855469 359.792969 338.648438 C 361.5625 336.878906 364.328125 335.980469 368 335.980469 C 373.214844 335.980469 379.734375 337.707031 387.121094 340.867188 C 388.261719 338.917969 389.570312 336.996094 391.042969 335.113281 C 382.210938 331.207031 374.355469 329.085938 368 329.085938 C 362.421875 329.085938 358.023438 330.660156 354.917969 333.773438 C 353.707031 334.984375 352.753906 336.402344 352.019531 337.976562 C 350.464844 341.253906 349.925781 345.300781 350.394531 350.066406 C 351.136719 357.761719 354.476562 367.304688 360.421875 378.492188 C 371.050781 398.476562 388.773438 421.359375 410.335938 442.917969 C 445.171875 477.757812 482.507812 501.515625 504.363281 502.949219 C 505.0625 502.996094 505.746094 503.023438 506.410156 503.023438 C 511.832031 503.023438 516.140625 501.515625 519.238281 498.558594 L 519.480469 498.335938 C 526.203125 491.621094 525.703125 479.195312 518.152344 462.171875 C 516.25 463.644531 514.328125 465.011719 512.359375 466.160156 "/>
<path style=" stroke:none;fill-rule:nonzero;fill:rgb(1.568604%,2.349854%,2.349854%);fill-opacity:1;" d="M 622.480469 350.292969 C 622.042969 350.292969 621.558594 350.222656 621.097656 350.195312 L 519.101562 452.191406 C 510.449219 460.84375 501.40625 465.054688 491.46875 465.054688 C 477.410156 465.054688 461.519531 456.292969 444.238281 439.019531 L 414.242188 409.015625 C 400.550781 395.324219 392.167969 382.460938 389.320312 370.761719 C 386.042969 357.304688 389.886719 345.328125 401.0625 334.152344 L 503.015625 232.199219 C 502.71875 227.101562 503.957031 223.070312 506.769531 220.25 C 507.191406 219.835938 507.683594 219.496094 508.160156 219.144531 C 507.164062 219.046875 506.140625 219.324219 505.375 220.089844 L 396.1875 329.277344 C 394.285156 331.179688 392.578125 333.128906 391.042969 335.113281 C 389.570312 336.996094 388.261719 338.917969 387.121094 340.867188 C 381.421875 350.652344 379.894531 361.199219 382.625 372.394531 C 385.773438 385.332031 394.769531 399.292969 409.367188 413.890625 L 439.371094 443.894531 C 457.984375 462.503906 475.515625 471.949219 491.46875 471.949219 C 498.75 471.949219 505.746094 470.003906 512.359375 466.160156 C 514.328125 465.011719 516.25 463.644531 518.152344 462.171875 C 520.125 460.628906 522.074219 458.96875 523.976562 457.066406 L 633.164062 347.878906 C 633.8125 347.230469 634.179688 346.351562 634.179688 345.445312 L 634.152344 345.15625 C 633.800781 345.625 633.425781 346.0625 633.003906 346.484375 C 630.480469 349.007812 626.933594 350.292969 622.480469 350.292969 "/>
<path style=" stroke:none;fill-rule:nonzero;fill:rgb(1.568604%,2.349854%,2.349854%);fill-opacity:1;" d="M 626.261719 319.867188 C 626.746094 321.511719 627.097656 323.054688 627.328125 324.527344 C 630.410156 332.730469 630.777344 338.953125 628.128906 341.609375 C 626.945312 342.796875 625.039062 343.398438 622.480469 343.398438 C 619.1875 343.398438 615.175781 342.4375 610.683594 340.722656 C 595.945312 338.144531 572.996094 323.144531 551.546875 301.707031 C 537.445312 287.59375 525.835938 272.597656 518.871094 259.492188 C 515.351562 252.875 513.214844 247.085938 512.441406 242.21875 C 509.363281 234.011719 508.992188 227.78125 511.640625 225.125 C 512.828125 223.949219 514.730469 223.347656 517.289062 223.347656 C 520.585938 223.347656 524.589844 224.308594 529.078125 226.015625 C 530.441406 226.257812 531.859375 226.578125 533.351562 227.027344 L 537.949219 222.433594 C 529.976562 218.597656 522.882812 216.453125 517.289062 216.453125 C 513.574219 216.453125 510.546875 217.386719 508.160156 219.144531 C 507.683594 219.496094 507.191406 219.835938 506.769531 220.25 C 503.957031 223.070312 502.71875 227.101562 503.015625 232.199219 C 503.375 238.367188 505.96875 246.097656 510.808594 255.210938 C 518.914062 270.472656 532.433594 287.933594 548.882812 304.371094 C 575.617188 331.105469 604.3125 349.25 621.097656 350.195312 C 621.558594 350.222656 622.042969 350.292969 622.480469 350.292969 C 626.933594 350.292969 630.480469 349.007812 633.003906 346.484375 C 633.425781 346.0625 633.800781 345.625 634.152344 345.15625 C 638.894531 338.765625 636.953125 327.929688 630.839844 315.289062 L 626.261719 319.867188 "/>
<path style=" stroke:none;fill-rule:nonzero;fill:rgb(1.568604%,2.349854%,2.349854%);fill-opacity:1;" d="M 524.859375 225.582031 C 520.898438 225.582031 517.757812 226.722656 515.492188 228.976562 C 512.523438 231.957031 511.515625 236.4375 512.441406 242.21875 C 513.214844 247.085938 515.351562 252.875 518.871094 259.492188 C 525.835938 272.597656 537.445312 287.59375 551.546875 301.707031 C 572.996094 323.144531 595.945312 338.144531 610.683594 340.722656 C 612.175781 340.984375 613.601562 341.164062 614.914062 341.164062 C 618.863281 341.164062 622.015625 340.011719 624.269531 337.761719 C 627.25 334.777344 628.253906 330.300781 627.328125 324.527344 C 627.097656 323.054688 626.746094 321.511719 626.261719 319.867188 L 620.542969 325.585938 C 621.144531 329.328125 620.558594 331.71875 619.402344 332.886719 C 618.476562 333.800781 616.96875 334.265625 614.914062 334.265625 C 612.390625 334.265625 609.367188 333.59375 605.980469 332.390625 C 593.4375 330.875 573.140625 317.828125 554.285156 298.96875 C 542.292969 286.980469 532.433594 274.242188 526.507812 263.09375 C 523.234375 256.933594 521.355469 251.601562 520.855469 247.175781 C 518.230469 239.859375 518.671875 235.558594 520.367188 233.851562 C 521.285156 232.945312 522.800781 232.476562 524.859375 232.476562 C 525.730469 232.476562 526.671875 232.566406 527.660156 232.71875 L 533.351562 227.027344 C 531.859375 226.578125 530.441406 226.257812 529.078125 226.015625 C 527.597656 225.761719 526.160156 225.582031 524.859375 225.582031 "/>
<path style=" stroke:none;fill-rule:nonzero;fill:rgb(1.568604%,2.349854%,2.349854%);fill-opacity:1;" d="M 739.382812 205.589844 C 738.984375 205.660156 738.582031 205.695312 738.1875 205.695312 C 736.320312 205.695312 734.542969 204.90625 732.855469 203.523438 L 612.667969 323.710938 C 612.390625 323.90625 612.140625 324.140625 611.933594 324.410156 L 611.746094 324.632812 C 611.070312 325.308594 609.921875 325.648438 608.324219 325.648438 C 599.570312 325.648438 579.875 314.8125 559.160156 294.09375 C 547.644531 282.582031 538.207031 270.417969 532.597656 259.859375 C 526.878906 249.09375 526.886719 243.25 528.628906 241.507812 L 528.878906 241.292969 C 529.148438 241.085938 529.382812 240.835938 529.570312 240.558594 L 647.367188 122.761719 C 656.777344 113.359375 693.746094 90.027344 713.230469 88.078125 C 714.800781 85.035156 716.910156 83.015625 719.71875 82.53125 C 720.125 82.460938 720.535156 82.425781 720.949219 82.425781 C 722.359375 82.425781 723.742188 82.871094 725.105469 83.671875 C 722.71875 81.957031 719.59375 81.042969 715.699219 81.042969 C 694.691406 81.042969 653.480469 106.898438 642.492188 117.886719 L 524.273438 236.105469 L 524.066406 236.339844 L 523.746094 236.632812 C 521.300781 239.078125 520.34375 242.640625 520.855469 247.175781 C 521.355469 251.601562 523.234375 256.933594 526.507812 263.09375 C 532.433594 274.242188 542.292969 286.980469 554.285156 298.96875 C 573.140625 317.828125 593.4375 330.875 605.980469 332.390625 C 606.796875 332.488281 607.578125 332.542969 608.324219 332.542969 C 611.816406 332.542969 614.609375 331.519531 616.628906 329.5 L 616.914062 329.195312 L 617.148438 328.980469 L 741.105469 205.023438 C 740.558594 205.285156 739.980469 205.492188 739.382812 205.589844 "/>
<path style=" stroke:none;fill-rule:nonzero;fill:rgb(1.568604%,2.349854%,2.349854%);fill-opacity:1;" d="M 738.203125 198.800781 L 738.1875 198.800781 C 734.730469 198.800781 725.4375 180.855469 719.242188 145.089844 C 713.085938 109.554688 717.609375 89.894531 720.949219 89.320312 C 724.882812 89.320312 735.304688 107.167969 741.222656 141.28125 C 747.082031 175.136719 741.941406 198.148438 738.203125 198.800781 Z M 719.71875 82.53125 C 716.910156 83.015625 714.800781 85.035156 713.230469 88.078125 C 706.945312 100.316406 709.539062 129.476562 712.449219 146.273438 C 714.546875 158.394531 721.621094 194.339844 732.855469 203.523438 C 734.542969 204.90625 736.320312 205.695312 738.1875 205.695312 C 738.582031 205.695312 738.984375 205.660156 739.382812 205.589844 C 739.980469 205.492188 740.558594 205.285156 741.105469 205.023438 C 751.519531 200.121094 752.929688 168.476562 748.015625 140.105469 C 743.769531 115.660156 735.117188 89.578125 725.105469 83.671875 C 723.742188 82.871094 722.359375 82.425781 720.949219 82.425781 C 720.535156 82.425781 720.125 82.460938 719.71875 82.53125 "/>
</g>
</svg>
