<svg xmlns="http://www.w3.org/2000/svg" viewBox="0 0 402 462.87"><defs><style>.cls-1{fill:#29abe2;}.cls-2{fill:#040507;}.cls-3{fill:#c1272d;}.cls-4{fill:#fbb03b;}.cls-5{font-size:173.21px;font-family:Leafy;}</style></defs><title>logoRecurso 10</title><g id="Capa_2" data-name="Capa 2"><g id="Capa_1-2" data-name="Capa 1"><path class="cls-1" d="M357.74,267.26c-.49-7.6-1.16-15.19-1.93-22.77-.59-5.84-1.46-11.66-2.21-17.5h0c.07-6.3-1.81-12.35-2.38-18.59-.25-2.85,0-5.83-1.24-8.57a124.7,124.7,0,0,0-5.73-26.18c-1.55-4.5-1.94-9.4-3-14.1a178.22,178.22,0,0,0-5.86-20.22,89.28,89.28,0,0,0-7.5-16.84c-.51-.84-1.09-1.87-2.19-1.56s-.71,1.48-.67,2.25c.28,5.72-.78,11.42-.19,17.14.66,6.38-.87,12.66-.94,19a167.92,167.92,0,0,1-1.54,24.37c-1,6.38-2.78,12.63-4.21,18.94-2.29,3.34-3.05,7.35-4.7,11-5.32,11.64-13.41,20.39-25.07,25.89-4.49,2.12-9.52,2.5-13.93,4.76-17.82-.18-35.64-.21-53.45-.5-16.29-.27-32.6-.52-48.92.36-12.51.67-25.09,0-37.63.22-6.53.12-12.49-1.9-18.5-3.85-7-2.28-12.39-7.19-17.94-11.76a71.82,71.82,0,0,1-9.83-15.61c-6.23-13-9.14-26.79-9.8-41-.33-7.16-.85-14.3-1.37-21.45.45-9.28.11-18.57,0-27.85,0-.7.25-1.69-.67-2s-1.5.47-2.1,1.13a7.53,7.53,0,0,0-1.09,1.54c-3.8,7-6.3,14.6-8.91,22.11-4.08,11.7-5,24.19-9.13,35.91-2.51,7.15-2.36,14.86-4,22.2-.9,6.78-2.09,13.54-2.34,20.41a11.27,11.27,0,0,0-.37,5.1,18,18,0,0,0-1.07,3.36c-.84,6.89-1.89,13.77-2.29,20.69-.8,13.85-2.06,27.7-1.58,41.6.33,9.45-.16,18.89.93,28.38.74,6.46,1.19,13,1.8,19.52a85.91,85.91,0,0,0,2.52,19.45c5.24,22.14,12.56,43.45,27.26,61.36,4.47,5.46,9.48,10.56,16.14,13.61,4.77,2.19,9.59,4.29,14.18,6.91,6.1,3.49,13,4.67,19.79,5,8.83.46,17.67.57,26.54.2,11.22-.47,22.48-.19,33.72-.18,29.71,0,59.42.09,89.13,0,4.07,0,8.05-1.05,12-1.93,6.53-1.43,11.84-5.53,17.9-8,2.49-1,5.15-1.87,7.26-3.44a82.27,82.27,0,0,0,25.66-31.35c6.53-14,12.17-28.26,15.14-43.44.84-4.27,2.28-8.56,1.58-13.05,1.29-8.92,1.92-17.9,2.7-26.87,1-11.51.51-23,.76-34.53C358.59,280.15,358.16,273.69,357.74,267.26Zm-5.17-42.87a9,9,0,0,0-.09,1.15A9,9,0,0,1,352.57,224.39Z"/><path class="cls-2" d="M200.79,462.17c-14.81,0-29.63.09-44.45,0-8.42-.08-16.81,1.13-25.24.61-7.73-.47-15.53-.63-23.15-1.85-5.32-.86-10.3-3.48-15.06-6.24a73.29,73.29,0,0,0-9-4.19,39.73,39.73,0,0,1-11.71-7.83,96.58,96.58,0,0,1-23.82-33.77C43.7,398,39.1,387,36.1,375.53c-3.16-12.09-4.14-24.48-5.64-36.84-2.3-19-2.29-38.09-2.19-57.18.07-12.28,1.1-24.51,2.22-36.73.49-5.47,1.26-10.9,1.64-16.37a3.93,3.93,0,0,0-.29-1.9c-3.93-7.75-4.21-16.28-4.91-24.64-.49-5.75-3.09-10.92-3.63-16.61-.89-9.22-3.15-18.21-4.87-27.3-.59-3.15.1-6.41-.66-9.65a162.56,162.56,0,0,1-3.19-17.71c-1.28-10.86-2.91-21.68-4.43-32.51C8.92,89.38,7.6,80.69,6.4,72,4.89,61,3.11,50.15,1.81,39.18A82.7,82.7,0,0,0,.25,28.36c-.68-2.67.15-5.18,1.05-7.59A46.21,46.21,0,0,1,9.94,6.38C14.11,1.63,19.29-.21,25.63.67c3.29.45,6.69.12,10,.22C51.76,1.35,67.82-.32,83.91.06a6.09,6.09,0,0,1,5,2.28c12.51,14.6,22.89,30.68,32.46,47.27,6.33,11,13.41,21.44,20.38,32C144.6,85.92,148,87.89,153,87c7-1.22,14-.67,21-.54,10.59.2,21.17-1.4,31.71-.61,13.81,1,27.63-.18,41.41.89,1.9.15,2.37-1.3,3.15-2.32q16.05-20.81,32.84-41C295,29.22,306.85,15,319.62,1.64a5.06,5.06,0,0,1,4-1.55c10.25-.26,20.45,1.3,30.7.79,4.53-.23,9.06-.28,13.59-.54,8.43-.47,16.73,1.24,23.83,5.87a22.07,22.07,0,0,1,9.75,23.29c-1.75,8.15-2.23,16.57-3.36,24.87s-2.43,16.78-3.58,25.19C393,90.83,391.8,102.15,390,113.37c-1.56,9.53-2.59,19.14-4.19,28.66-2.91,17.26-6.2,34.45-7.61,51.94-.91,11.24-3.63,22.18-6.87,33a20.21,20.21,0,0,0-.68,8.9c.92,6.6,1.24,13.28,1.83,19.92,1.61,18.31,1.47,36.66,1.15,55-.15,9-1.09,18-2.1,27-.95,8.43-1.39,16.92-3,25.29a171.72,171.72,0,0,1-11.41,37.5c-2.59,5.93-4.9,12-8,17.66C343.46,428.59,336.29,438,326.72,445c-9,6.63-19.39,10.78-29.77,14.83-4.68,1.83-9.63,1.89-14.51,2.28-10.44.84-20.89.39-31.35.13C234.33,461.86,217.56,462.17,200.79,462.17ZM48.72,224.09a11.29,11.29,0,0,0-.37,5.1,18.3,18.3,0,0,0-1.07,3.37c-.84,6.89-1.89,13.77-2.29,20.69-.8,13.85-2.06,27.7-1.58,41.6.33,9.45-.16,18.89.93,28.38.74,6.46,1.19,13,1.8,19.52a85.91,85.91,0,0,0,2.52,19.45c5.24,22.14,12.56,43.45,27.26,61.36,4.47,5.46,9.48,10.56,16.14,13.61,4.77,2.19,9.59,4.29,14.18,6.91,6.1,3.49,13,4.67,19.79,5,8.83.46,17.67.57,26.54.2,11.22-.47,22.48-.19,33.72-.18,29.71,0,59.42.09,89.13,0,4.07,0,8.05-1.05,12-1.93,6.53-1.43,11.84-5.53,17.9-8,2.49-1,5.15-1.87,7.26-3.44a82.27,82.27,0,0,0,25.66-31.35c6.53-14,12.17-28.26,15.14-43.44.84-4.27,2.28-8.56,1.58-13.05,1.29-8.92,1.92-17.9,2.7-26.87,1-11.51.51-23,.76-34.53.14-6.43-.29-12.9-.71-19.33-.49-7.6-1.16-15.19-1.93-22.77-.59-5.84-1.46-11.66-2.21-17.49.07-6.3-1.81-12.36-2.38-18.6-.25-2.85,0-5.83-1.24-8.56a124.66,124.66,0,0,0-5.73-26.19c-1.55-4.5-1.94-9.4-3-14.1a178.22,178.22,0,0,0-5.86-20.22,89.28,89.28,0,0,0-7.5-16.84c-.51-.84-1.09-1.87-2.19-1.56s-.71,1.48-.67,2.25c.28,5.72-.78,11.42-.19,17.14.66,6.38-.87,12.66-.94,19a167.92,167.92,0,0,1-1.54,24.37c-1,6.38-2.78,12.63-4.21,18.94-2.29,3.34-3.05,7.35-4.7,11-5.32,11.64-13.41,20.39-25.07,25.89-4.49,2.12-9.52,2.5-13.93,4.76-17.82-.18-35.64-.21-53.45-.5-16.29-.27-32.6-.52-48.92.36-12.51.67-25.09,0-37.63.22-6.53.12-12.49-1.9-18.5-3.85-7-2.28-12.39-7.19-17.94-11.76a71.82,71.82,0,0,1-9.83-15.61c-6.23-13-9.14-26.79-9.8-41-.33-7.16-.85-14.3-1.37-21.45.45-9.28.11-18.57,0-27.85,0-.7.25-1.69-.67-2s-1.5.47-2.1,1.13a7.53,7.53,0,0,0-1.09,1.54c-3.8,7-6.3,14.6-8.91,22.11-4.08,11.7-5,24.19-9.13,35.91-2.51,7.15-2.36,14.86-4,22.2C50.16,210.47,49,217.23,48.72,224.09ZM118.93,95c4.57-.48,9.14-1.08,13.72-1.4,2.42-.17,2.13-1.21,1.28-2.7a24.84,24.84,0,0,0-1.37-2.18c-16.94-23.54-34-47-50.71-70.68-2.5-3.53-5-4.55-8.81-3.65-1.29-.07-2.58-.19-3.87-.19q-19.77-.08-39.53-.1c-.95,0-2.3-.32-2.7.52-.55,1.13,1,1.68,1.47,2.55a14,14,0,0,0,1.23,2.22c8.18,9.4,15,19.87,22.46,29.79C61.83,62,71.91,74.61,81.47,87.58c2,2.7,4.74,5,5.65,8.27.49,1.8,1.3,2,2.67,1.86,6.31-.6,12.62-1.24,18.9-1.86C112.16,96.3,115.54,95.52,118.93,95Zm177.79,1.11c3.78.86,7.69.57,11.48,1.18,3.38.54,5.69.86,7.8-3.24,2.9-5.64,7.22-10.6,11.19-15.64,8.82-11.18,17.55-22.41,26-33.9,6.88-9.4,14-18.63,20.93-28,.42-.57,1.62-1.1.91-2.1a2.13,2.13,0,0,0-2.37-.63c-3.18.79-6.44.48-9.65.82a23.1,23.1,0,0,0-6.73-.68c-10.9.28-21.79.65-32.64,1.81a4.36,4.36,0,0,0-3.41,2Q309.3,33,298.37,48.25C288.17,62.52,278,76.82,267.76,91c-1.42,2-.68,2.4,1.19,2.54,2.35.18,4.73.15,7,.55C282.85,95.3,289.82,95.38,296.72,96.12ZM88.93,147.29c-.51,3.24.16,6.44.34,9.66.49,8.6-.16,17.22.65,25.83.47,5,2.29,9.78,3,14.74a42.73,42.73,0,0,0,7.45,19.5c4.94,8.22,12.59,12.78,21.68,14.12,5.65.83,11.57.42,17.37.65,6.12.24,12.28-.31,18.39-.4,14.35-.23,28.7-.28,43.05-.61,11.65-.27,23.28,1.06,34.95.55a53.52,53.52,0,0,1,9.39,0c8.92,1.19,17.8.43,26.7-.14,4-.3,8,.25,12.11-1.13a33.91,33.91,0,0,0,17.91-13.41c4.83-7.12,6.69-15.25,7.84-23.6a2.74,2.74,0,0,0,1.08-2.24c1-6.06,1.91-12.12,1.45-18.29-.8-10.8,1.63-21.49,1-32.28-.35-6.32.74-12.69-.9-19a9.69,9.69,0,0,1,.33-6c1.36-3.38-.17-5.8-3.81-5.91-4.1-.12-8.21,0-12.32.08-2.41-.92-4.93,0-7.36-.46-6.46-1.15-13-1.1-19.51-1.47-8.9-.51-17.82-.67-26.72-1a2.35,2.35,0,0,0-2.12-.53c-17.26,1-34.51-1.45-51.8-.13-12.15.94-24.4-.6-36.55.94-10-.49-19.89.91-29.85,1.13-5.52.12-11,.89-16.53,1.37-4.21,0-8.42-.06-12.62,0s-5.16,1.27-4.66,5.36a68.42,68.42,0,0,1,.07,8.71C88.9,131.34,88.93,139.31,88.93,147.29ZM384.76,27.67c-3.16,3-4.86,5.89-6.93,8.51C366.19,51,354.77,66,342.7,80.5c-6.23,7.47-10,15.54-10.88,25.13-.25,2.71-.05,5.08,2.31,6.91a8.48,8.48,0,0,1,2.22,2.65c3.78,7.22,6.44,14.92,9.5,22.45,2.39,5.88,3.35,12.33,5.61,18.23,4,10.49,5.57,21.43,7.26,32.38.69,4.49,1.74,8.94,1.64,13.59,2-.32,1.93-1.87,2.06-2.84,1.16-8.36,2.29-16.74,4.46-24.9.86-3.23.32-6.42.74-9.62.61-4.52,2.3-8.82,2.71-13.33.61-6.59,1.59-13.09,2.76-19.61,1.11-6.14,1.88-12.41,2.43-18.62.67-7.68,2.48-15.16,3.13-22.84.27-3.13.68-6.38,1.27-9.51,1.09-5.75,2.33-11.46,2.39-17.35a6.7,6.7,0,0,1,.35-2.22c1.34-3.83,1.24-7.91,2-11.85.69-3.64.13-7.53.12-11.3C384.75,34.76,384.76,31.67,384.76,27.67ZM40,202.33a1.36,1.36,0,0,0,1.2-1.28c.8-5.17,1.53-10.34,2.32-15.51.94-6.23,1.85-12.44,3.38-18.59,1.25-5.09,3.3-9.87,4.57-14.94,1.37-5.41,3.17-10.72,5-16,1-2.82,2.74-5.37,3.63-8.21a45.38,45.38,0,0,1,8.29-16c1-1.12,1.71-2.34,1.45-3.62-.45-2.24,0-4.57-.59-6.72-1.15-4.41-1-9.14-4.25-13.06C59.43,81.75,54.32,74.69,49,67.84q-9.69-12.4-19.45-24.76C25.74,38.29,22,33.5,18.09,28.59a4.27,4.27,0,0,0-.75,3.17c.07,10.58,0,21.07,2.11,31.63,1.48,7.31,2.28,14.9,3,22.42a186.64,186.64,0,0,0,2.74,19.74c.91,4.37,1.05,8.77,1.72,13.13,1.24,8,2.33,16,3.59,24,.82,5.19.84,10.56,2.49,15.56a32.82,32.82,0,0,1,1.3,10.48,19.17,19.17,0,0,0,.19,3.87c1.54,7.19,3.33,14.31,4.06,21.68A39.52,39.52,0,0,0,40,202.33Z"/><path class="cls-3" d="M384.76,27.67c0,4,0,7.09,0,10.18,0,3.77.57,7.66-.12,11.3-.74,3.94-.64,8-2,11.85a6.7,6.7,0,0,0-.35,2.22c-.06,5.89-1.3,11.6-2.39,17.35-.59,3.13-1,6.38-1.27,9.51-.65,7.68-2.46,15.16-3.13,22.84-.55,6.21-1.32,12.48-2.43,18.62-1.17,6.52-2.15,13-2.76,19.61-.41,4.51-2.1,8.81-2.71,13.33-.42,3.2.12,6.39-.74,9.62-2.17,8.16-3.3,16.54-4.46,24.9-.13,1,0,2.52-2.06,2.84.1-4.65-.95-9.1-1.64-13.59-1.69-10.95-3.24-21.89-7.26-32.38-2.26-5.9-3.22-12.35-5.61-18.23-3.06-7.53-5.72-15.23-9.5-22.45a8.48,8.48,0,0,0-2.22-2.65c-2.36-1.83-2.56-4.2-2.31-6.91C332.68,96,336.47,88,342.7,80.5,354.77,66,366.19,51,377.83,36.18,379.9,33.56,381.6,30.64,384.76,27.67Z"/><path class="cls-3" d="M40,202.33a39.52,39.52,0,0,1-1.44-8c-.73-7.37-2.52-14.49-4.06-21.68a19.17,19.17,0,0,1-.19-3.87A32.82,32.82,0,0,0,33,158.27c-1.65-5-1.67-10.37-2.49-15.56-1.26-8-2.35-16-3.59-24-.67-4.36-.81-8.76-1.72-13.13a186.64,186.64,0,0,1-2.74-19.74c-.75-7.52-1.55-15.11-3-22.42-2.13-10.56-2-21-2.11-31.63a4.27,4.27,0,0,1,.75-3.17c3.88,4.91,7.65,9.7,11.42,14.49Q39.24,55.46,49,67.84C54.32,74.69,59.43,81.75,65,88.39c3.29,3.92,3.1,8.65,4.25,13.06.56,2.15.14,4.48.59,6.72.26,1.28-.5,2.5-1.45,3.62a45.38,45.38,0,0,0-8.29,16c-.89,2.84-2.64,5.39-3.63,8.21-1.84,5.28-3.64,10.59-5,16-1.27,5.07-3.32,9.85-4.57,14.94-1.53,6.15-2.44,12.36-3.38,18.59-.79,5.17-1.52,10.34-2.32,15.51A1.36,1.36,0,0,1,40,202.33Z"/><path class="cls-4" d="M375,14.44a2.13,2.13,0,0,0-2.37-.63c-3.18.79-6.44.48-9.66.82a23,23,0,0,0-6.72-.68c-10.9.28-21.79.65-32.64,1.81a4.36,4.36,0,0,0-3.41,2Q309.3,33,298.37,48.25C288.17,62.52,278,76.82,267.76,91c-1.42,2-.68,2.4,1.19,2.54,2.35.18,4.73.15,7,.55,6.86,1.17,13.83,1.25,20.73,2,3.78.86,7.69.57,11.48,1.18,3.38.54,5.69.86,7.8-3.24,2.9-5.64,7.22-10.6,11.19-15.64,8.82-11.18,17.55-22.41,26-33.9,6.88-9.4,14-18.63,20.93-28C374.5,16,375.7,15.44,375,14.44Z"/><path class="cls-4" d="M313.3,140.28c-.35-6.32.74-12.69-.9-19a9.69,9.69,0,0,1,.33-6c1.36-3.38-.17-5.8-3.81-5.91-4.1-.12-8.21,0-12.32.08-2.41-.92-4.93,0-7.36-.46-6.46-1.15-13-1.1-19.51-1.47-8.9-.51-17.82-.67-26.72-1a2.35,2.35,0,0,0-2.12-.53c-17.26,1-34.51-1.45-51.8-.13-12.15.94-24.4-.6-36.55.94-10-.49-19.89.91-29.85,1.13-5.52.12-11,.89-16.53,1.37-4.21,0-8.42-.06-12.62,0s-5.16,1.27-4.66,5.36a68.42,68.42,0,0,1,.07,8.71c0,8,0,16,0,23.93-.51,3.24.16,6.44.34,9.66.49,8.6-.16,17.22.65,25.83.47,5,2.29,9.78,3,14.74a42.73,42.73,0,0,0,7.45,19.5c4.94,8.22,12.59,12.78,21.68,14.12,5.65.83,11.57.42,17.37.65,6.12.24,12.28-.31,18.39-.4,14.35-.23,28.7-.28,43.05-.61,11.65-.27,23.28,1.06,34.95.55a53.52,53.52,0,0,1,9.39,0c8.92,1.19,17.8.43,26.7-.14,4-.3,8,.25,12.11-1.13a33.91,33.91,0,0,0,17.91-13.41c4.83-7.12,6.69-15.25,7.84-23.6a2.74,2.74,0,0,0,1.08-2.24c1-6.06,1.91-12.12,1.45-18.29C311.46,161.76,313.89,151.07,313.3,140.28ZM201.52,211.71c-7.94-.05-15.14-6.7-14.93-14.45.25-9.44,6.08-15.31,15.23-15.32,7.59-.25,14.58,6.27,14.72,14.91A14.58,14.58,0,0,1,201.52,211.71Z"/><path class="cls-4" d="M133.93,90.91a24.84,24.84,0,0,0-1.37-2.18c-16.94-23.54-34-47-50.71-70.68-2.5-3.53-5-4.55-8.8-3.65-1.3-.07-2.59-.19-3.88-.19q-19.77-.08-39.53-.1c-.95,0-2.3-.32-2.7.52-.55,1.13,1,1.68,1.47,2.55a14,14,0,0,0,1.23,2.22c8.18,9.4,15,19.87,22.46,29.79C61.83,62,71.91,74.61,81.47,87.58c2,2.7,4.74,5,5.65,8.27.49,1.8,1.3,2,2.67,1.86,6.31-.6,12.61-1.24,18.91-1.86h0c3.46.45,6.84-.33,10.24-.84,4.56-.48,9.13-1.08,13.71-1.4C135.07,93.44,134.78,92.4,133.93,90.91Zm-24.39,4.3c.39-.07.83,0,1.22-.09C110.37,95.2,109.93,95.14,109.54,95.21Z"/><path class="cls-2" d="M120,276.36c5.27-10.71,12.45-13.4,19.88-14.61s14.83-2.06,22.21-1c5.5.81,11,.34,16.45.8a36,36,0,0,0,6.05.8c18-.62,36,.57,54-1.61a55.45,55.45,0,0,1,19.88.82c5.06.17,10,1.16,14.81,4.43,6.77,4.65,10.75,13.69,12.87,25.67a226.1,226.1,0,0,1,3,36.16c.05,3.09.73,5.91.71,9.07-.11,23.31-1.11,46.26-7.33,67.45-6.28,16.87-15.69,23.36-26.44,23.36-9.22,0-18.44.87-27.7-.58-8.12-1.28-16.37-.64-24.56-.62-16.16,0-32.33.88-48.49,1.39-4.57-1.11-9.17,0-13.79-1a24.85,24.85,0,0,1-15.22-9.64,11,11,0,0,0-1.79-1.59c-1.34-2.89-2.82-5.63-4-8.72-6.84-17.84-8-38.48-8.66-59.11-.5-14.65.6-29.26,2-43.69C114.81,294.28,116.26,284.43,120,276.36ZM274.44,387.55c1.57-3.05,2-7.13,2.4-10.81a327.46,327.46,0,0,0-.06-72.52c-1.06-10.06-3.18-19.72-10-21.63-2.26-.62-4.51-1.66-6.83-1.25a1.82,1.82,0,0,0-1.91-.86c-9.62.89-19.25-.56-28.9.9-7.84,1.19-15.78-.05-23.69.9-5.56.67-11.16,0-16.75-.78-6.51-.91-13.07-.25-19.61-.68-9.79-.65-19.64-1.15-29.45.63-9.34,1.7-12.65,6.85-14.46,23.22a359.14,359.14,0,0,0-1.89,42.23c.09,12.56.8,24.91,3.1,36.74,3.41,17.57,7.22,21.81,17.2,24.22,6.26,1.51,12.64.74,19,.36,12.7-.76,25.42-2,38.11-1.69,9.12.18,18.28.75,27.41,1.24,9.79.54,19.62,2.45,29.44.29C265.91,406.21,272,401.61,274.44,387.55Z"/><path class="cls-2" d="M201.82,181.94c7.59-.25,14.58,6.27,14.72,14.91a14.58,14.58,0,0,1-15,14.86c-7.94-.05-15.14-6.7-14.93-14.45C186.84,187.82,192.67,182,201.82,181.94Z"/><path class="cls-4" d="M276.81,299.06c-1.07-11.35-3.18-22.24-10.06-24.39-2.25-.7-4.51-1.87-6.83-1.41a1.73,1.73,0,0,0-1.91-1c-9.63,1-19.25-.64-28.91,1-7.84,1.33-15.79-.06-23.7,1-5.56.76-11.16,0-16.76-.88-6.51-1-13.07-.28-19.61-.77-9.79-.73-19.65-1.3-29.46.71-9.34,1.92-12.65,7.73-14.47,26.18a456.51,456.51,0,0,0-1.89,47.63c.09,14.17.81,28.08,3.1,41.43,3.42,19.82,7.23,24.59,17.21,27.31,6.26,1.7,12.64.84,19,.41,12.7-.86,25.42-2.2,38.12-1.91,9.12.2,18.29.84,27.42,1.4,9.79.6,19.63,2.76,29.45.32,8.41-2.08,14.47-7.27,17-23.12,1.57-3.44,2-8,2.39-12.19A415.38,415.38,0,0,0,276.81,299.06Z"/><text class="cls-5" transform="translate(146.58 404.82) scale(2.2 1)">A</text></g></g></svg>