<svg xmlns="http://www.w3.org/2000/svg" viewBox="0 0 48 56" width="48" height="56">
	<defs>
		<clipPath clipPathUnits="userSpaceOnUse" id="cp1">
			<path d="M1.6 2.41L46.55 2.41L46.55 55.37L1.6 55.37L1.6 2.41Z" />
		</clipPath>
		<clipPath clipPathUnits="userSpaceOnUse" id="cp2">
			<path d="M1.6 50.24L1.6 6.68C1.6 4.32 3.54 2.41 5.93 2.41L42.23 2.41C44.62 2.41 46.55 4.32 46.55 6.68L46.55 50.24C46.55 53.07 44.23 55.37 41.37 55.37L6.79 55.37C3.93 55.37 1.6 53.07 1.6 50.24ZM44.83 50.24L44.83 20.82C44.55 21.08 44.25 21.31 43.91 21.51L28.83 30.21C27.39 31.02 25.75 31.45 24.08 31.45C22.41 31.45 20.77 31.02 19.34 30.21L4.25 21.51C3.91 21.31 3.61 21.08 3.33 20.82L3.33 50.24C3.33 52.13 4.88 53.66 6.79 53.66L41.37 53.66C43.28 53.66 44.83 52.13 44.83 50.24ZM26.69 50.24L28.42 50.24L28.42 51.95L26.69 51.95L26.69 50.24ZM19.75 50.24L21.48 50.24L21.48 51.95L19.75 51.95L19.75 50.24ZM9.35 50.24L11.08 50.24L11.08 51.95L9.35 51.95L9.35 50.24ZM16.28 50.24L18.02 50.24L18.02 51.95L16.28 51.95L16.28 50.24ZM37.09 50.24L38.82 50.24L38.82 51.95L37.09 51.95L37.09 50.24ZM41.25 49.82L42.73 50.71C42.27 51.46 41.47 51.93 40.58 51.95L40.53 50.24C40.82 50.23 41.09 50.08 41.25 49.82ZM33.62 50.24L35.35 50.24L35.35 51.95L33.62 51.95L33.62 50.24ZM30.15 50.24L31.89 50.24L31.89 51.95L30.15 51.95L30.15 50.24ZM41.37 46.89L43.1 46.89L43.1 48.6L41.37 48.6L41.37 46.89ZM41.37 43.46L43.1 43.46L43.1 45.18L41.37 45.18L41.37 43.46ZM41.37 40.03L43.1 40.03L43.1 41.75L41.37 41.75L41.37 40.03ZM3.33 16.93C3.33 18.21 4.02 19.39 5.12 20.03L20.2 28.73C22.53 30.05 25.62 30.05 27.96 28.73L43.04 20.03C44.14 19.39 44.83 18.21 44.83 16.93L44.83 6.68C44.83 5.57 44.1 4.63 43.1 4.27L43.1 16.55C43.1 17.46 42.61 18.3 41.82 18.76L27.09 27.26C26.19 27.77 25.15 28.04 24.08 28.04C23.01 28.04 21.96 27.76 21.05 27.25L6.34 18.76C5.55 18.3 5.06 17.46 5.06 16.55L5.06 4.27C4.06 4.63 3.33 5.57 3.33 6.68L3.33 16.93ZM41.37 36.61L43.1 36.61L43.1 38.32L41.37 38.32L41.37 36.61ZM7.63 50.24L7.59 51.95C6.71 51.93 5.9 51.47 5.44 50.72L6.91 49.83C7.07 50.08 7.34 50.23 7.63 50.24ZM41.37 29.76L43.1 29.76L43.1 31.47L41.37 31.47L41.37 29.76ZM41.37 26.33L43.1 26.33L43.1 28.04L41.37 28.04L41.37 26.33ZM41.37 33.18L43.1 33.18L43.1 34.89L41.37 34.89L41.37 33.18ZM6.79 45.18L5.06 45.18L5.06 43.47L6.79 43.47L6.79 45.18ZM6.79 48.61L5.06 48.61L5.06 46.89L6.79 46.89L6.79 48.61ZM6.79 31.48L5.06 31.48L5.06 29.77L6.79 29.77L6.79 31.48ZM6.79 41.76L5.06 41.76L5.06 40.04L6.79 40.04L6.79 41.76ZM6.79 34.9L5.06 34.9L5.06 33.19L6.79 33.19L6.79 34.9ZM6.79 38.33L5.06 38.33L5.06 36.62L6.79 36.62L6.79 38.33ZM6.79 16.55C6.79 16.85 6.95 17.13 7.21 17.29L21.92 25.77C23.2 26.5 24.96 26.5 26.22 25.78L40.95 17.29C41.21 17.13 41.37 16.85 41.37 16.55L41.37 4.12L6.79 4.12L6.79 16.55ZM18.03 15.22C18.03 11.93 20.74 9.24 24.08 9.24C27.42 9.24 30.13 11.93 30.13 15.22C30.13 18.52 27.42 21.2 24.08 21.2C20.74 21.2 18.03 18.52 18.03 15.22ZM19.76 15.22C19.76 17.58 21.7 19.49 24.08 19.49C26.46 19.49 28.4 17.58 28.4 15.22C28.4 12.87 26.46 10.95 24.08 10.95C21.7 10.95 19.76 12.87 19.76 15.22ZM23.21 16.07L24.95 16.07L24.95 17.79L23.21 17.79L23.21 16.07ZM24.95 16.07L24.95 14.37L26.67 14.37L26.67 16.07L24.95 16.07ZM23.21 16.07L21.48 16.07L21.48 14.37L23.21 14.37L23.21 16.07ZM6.79 28.05L5.06 28.05L5.06 26.34L6.79 26.34L6.79 28.05ZM24.95 14.37L23.21 14.37L23.21 12.66L24.95 12.66L24.95 14.37ZM12.81 50.24L14.55 50.24L14.55 51.95L12.81 51.95L12.81 50.24ZM23.22 50.24L24.95 50.24L24.95 51.95L23.22 51.95L23.22 50.24Z" />
		</clipPath>
		<clipPath clipPathUnits="userSpaceOnUse" id="cp3">
			<path d="M1.6 50.24L1.6 6.68C1.6 4.32 3.54 2.41 5.93 2.41L42.23 2.41C44.62 2.41 46.55 4.32 46.55 6.68L46.55 50.24C46.55 53.07 44.23 55.37 41.37 55.37L6.79 55.37C3.93 55.37 1.6 53.07 1.6 50.24ZM44.83 50.24L44.83 20.82C44.55 21.08 44.25 21.31 43.91 21.51L28.83 30.21C27.39 31.02 25.75 31.45 24.08 31.45C22.41 31.45 20.77 31.02 19.34 30.21L4.25 21.51C3.91 21.31 3.61 21.08 3.33 20.82L3.33 50.24C3.33 52.13 4.88 53.66 6.79 53.66L41.37 53.66C43.28 53.66 44.83 52.13 44.83 50.24ZM26.69 50.24L28.42 50.24L28.42 51.95L26.69 51.95L26.69 50.24ZM19.75 50.24L21.48 50.24L21.48 51.95L19.75 51.95L19.75 50.24ZM9.35 50.24L11.08 50.24L11.08 51.95L9.35 51.95L9.35 50.24ZM16.28 50.24L18.02 50.24L18.02 51.95L16.28 51.95L16.28 50.24ZM37.09 50.24L38.82 50.24L38.82 51.95L37.09 51.95L37.09 50.24ZM41.25 49.82L42.73 50.71C42.27 51.46 41.47 51.93 40.58 51.95L40.53 50.24C40.82 50.23 41.09 50.08 41.25 49.82ZM33.62 50.24L35.35 50.24L35.35 51.95L33.62 51.95L33.62 50.24ZM30.15 50.24L31.89 50.24L31.89 51.95L30.15 51.95L30.15 50.24ZM41.37 46.89L43.1 46.89L43.1 48.6L41.37 48.6L41.37 46.89ZM41.37 43.46L43.1 43.46L43.1 45.18L41.37 45.18L41.37 43.46ZM41.37 40.03L43.1 40.03L43.1 41.75L41.37 41.75L41.37 40.03ZM3.33 16.93C3.33 18.21 4.02 19.39 5.12 20.03L20.2 28.73C22.53 30.05 25.62 30.05 27.96 28.73L43.04 20.03C44.14 19.39 44.83 18.21 44.83 16.93L44.83 6.68C44.83 5.57 44.1 4.63 43.1 4.27L43.1 16.55C43.1 17.46 42.61 18.3 41.82 18.76L27.09 27.26C26.19 27.77 25.15 28.04 24.08 28.04C23.01 28.04 21.96 27.76 21.05 27.25L6.34 18.76C5.55 18.3 5.06 17.46 5.06 16.55L5.06 4.27C4.06 4.63 3.33 5.57 3.33 6.68L3.33 16.93ZM41.37 36.61L43.1 36.61L43.1 38.32L41.37 38.32L41.37 36.61ZM7.63 50.24L7.59 51.95C6.71 51.93 5.9 51.47 5.44 50.72L6.91 49.83C7.07 50.08 7.34 50.23 7.63 50.24ZM41.37 29.76L43.1 29.76L43.1 31.47L41.37 31.47L41.37 29.76ZM41.37 26.33L43.1 26.33L43.1 28.04L41.37 28.04L41.37 26.33ZM41.37 33.18L43.1 33.18L43.1 34.89L41.37 34.89L41.37 33.18ZM6.79 45.18L5.06 45.18L5.06 43.47L6.79 43.47L6.79 45.18ZM6.79 48.61L5.06 48.61L5.06 46.89L6.79 46.89L6.79 48.61ZM6.79 31.48L5.06 31.48L5.06 29.77L6.79 29.77L6.79 31.48ZM6.79 41.76L5.06 41.76L5.06 40.04L6.79 40.04L6.79 41.76ZM6.79 34.9L5.06 34.9L5.06 33.19L6.79 33.19L6.79 34.9ZM6.79 38.33L5.06 38.33L5.06 36.62L6.79 36.62L6.79 38.33ZM6.79 16.55C6.79 16.85 6.95 17.13 7.21 17.29L21.92 25.77C23.2 26.5 24.96 26.5 26.22 25.78L40.95 17.29C41.21 17.13 41.37 16.85 41.37 16.55L41.37 4.12L6.79 4.12L6.79 16.55ZM18.03 15.22C18.03 11.93 20.74 9.24 24.08 9.24C27.42 9.24 30.13 11.93 30.13 15.22C30.13 18.52 27.42 21.2 24.08 21.2C20.74 21.2 18.03 18.52 18.03 15.22ZM19.76 15.22C19.76 17.58 21.7 19.49 24.08 19.49C26.46 19.49 28.4 17.58 28.4 15.22C28.4 12.87 26.46 10.95 24.08 10.95C21.7 10.95 19.76 12.87 19.76 15.22ZM23.21 16.07L24.95 16.07L24.95 17.79L23.21 17.79L23.21 16.07ZM24.95 16.07L24.95 14.37L26.67 14.37L26.67 16.07L24.95 16.07ZM23.21 16.07L21.48 16.07L21.48 14.37L23.21 14.37L23.21 16.07ZM6.79 28.05L5.06 28.05L5.06 26.34L6.79 26.34L6.79 28.05ZM24.95 14.37L23.21 14.37L23.21 12.66L24.95 12.66L24.95 14.37ZM12.81 50.24L14.55 50.24L14.55 51.95L12.81 51.95L12.81 50.24ZM23.22 50.24L24.95 50.24L24.95 51.95L23.22 51.95L23.22 50.24Z" />
		</clipPath>
		<linearGradient id="grd1" gradientUnits="userSpaceOnUse"  x1="24.08" y1="55.368" x2="24.08" y2="2.409">
			<stop offset="0" stop-color="#9f2fff"  />
			<stop offset="0.004" stop-color="#9f2fff"  />
			<stop offset="0.008" stop-color="#9e30ff"  />
			<stop offset="0.012" stop-color="#9e30fe"  />
			<stop offset="0.016" stop-color="#9d31fe"  />
			<stop offset="0.02" stop-color="#9d32fe"  />
			<stop offset="0.023" stop-color="#9c32fe"  />
			<stop offset="0.027" stop-color="#9b33fe"  />
			<stop offset="0.031" stop-color="#9a33fe"  />
			<stop offset="0.035" stop-color="#9a34fd"  />
			<stop offset="0.039" stop-color="#9934fd"  />
			<stop offset="0.043" stop-color="#9935fd"  />
			<stop offset="0.047" stop-color="#9835fd"  />
			<stop offset="0.051" stop-color="#9736fd"  />
			<stop offset="0.055" stop-color="#9736fd"  />
			<stop offset="0.059" stop-color="#9637fc"  />
			<stop offset="0.063" stop-color="#9637fc"  />
			<stop offset="0.066" stop-color="#9538fc"  />
			<stop offset="0.07" stop-color="#9538fc"  />
			<stop offset="0.074" stop-color="#9439fc"  />
			<stop offset="0.078" stop-color="#9339fc"  />
			<stop offset="0.086" stop-color="#923afb"  />
			<stop offset="0.09" stop-color="#923afb"  />
			<stop offset="0.094" stop-color="#913bfb"  />
			<stop offset="0.098" stop-color="#913bfb"  />
			<stop offset="0.102" stop-color="#903cfb"  />
			<stop offset="0.105" stop-color="#903cfa"  />
			<stop offset="0.109" stop-color="#8f3dfa"  />
			<stop offset="0.117" stop-color="#8e3efa"  />
			<stop offset="0.121" stop-color="#8d3ef9"  />
			<stop offset="0.125" stop-color="#8c3ff9"  />
			<stop offset="0.129" stop-color="#8c3ff9"  />
			<stop offset="0.133" stop-color="#8b40f9"  />
			<stop offset="0.137" stop-color="#8b41f9"  />
			<stop offset="0.141" stop-color="#8a41f9"  />
			<stop offset="0.145" stop-color="#8942f8"  />
			<stop offset="0.148" stop-color="#8942f8"  />
			<stop offset="0.156" stop-color="#8843f8"  />
			<stop offset="0.164" stop-color="#8744f8"  />
			<stop offset="0.168" stop-color="#8645f8"  />
			<stop offset="0.172" stop-color="#8645f7"  />
			<stop offset="0.176" stop-color="#8546f7"  />
			<stop offset="0.18" stop-color="#8446f7"  />
			<stop offset="0.188" stop-color="#8447f7"  />
			<stop offset="0.191" stop-color="#8347f7"  />
			<stop offset="0.195" stop-color="#8248f6"  />
			<stop offset="0.199" stop-color="#8248f6"  />
			<stop offset="0.203" stop-color="#8149f6"  />
			<stop offset="0.211" stop-color="#8149f6"  />
			<stop offset="0.215" stop-color="#7f4af6"  />
			<stop offset="0.219" stop-color="#7f4bf5"  />
			<stop offset="0.223" stop-color="#7e4bf5"  />
			<stop offset="0.227" stop-color="#7d4cf5"  />
			<stop offset="0.23" stop-color="#7c4df5"  />
			<stop offset="0.234" stop-color="#7c4df5"  />
			<stop offset="0.238" stop-color="#7b4ef5"  />
			<stop offset="0.242" stop-color="#7b4ef4"  />
			<stop offset="0.246" stop-color="#7a4ff4"  />
			<stop offset="0.25" stop-color="#7a4ff4"  />
			<stop offset="0.254" stop-color="#7a50f4"  />
			<stop offset="0.258" stop-color="#7951f4"  />
			<stop offset="0.262" stop-color="#7952f4"  />
			<stop offset="0.266" stop-color="#7852f3"  />
			<stop offset="0.27" stop-color="#7852f3"  />
			<stop offset="0.273" stop-color="#7753f3"  />
			<stop offset="0.277" stop-color="#7653f3"  />
			<stop offset="0.281" stop-color="#7554f3"  />
			<stop offset="0.285" stop-color="#7554f2"  />
			<stop offset="0.289" stop-color="#7455f2"  />
			<stop offset="0.297" stop-color="#7455f2"  />
			<stop offset="0.301" stop-color="#7356f2"  />
			<stop offset="0.305" stop-color="#7257f2"  />
			<stop offset="0.309" stop-color="#7157f1"  />
			<stop offset="0.313" stop-color="#7158f1"  />
			<stop offset="0.316" stop-color="#7058f1"  />
			<stop offset="0.32" stop-color="#7059f1"  />
			<stop offset="0.324" stop-color="#6f5af1"  />
			<stop offset="0.328" stop-color="#6e5af1"  />
			<stop offset="0.332" stop-color="#6d5bf0"  />
			<stop offset="0.336" stop-color="#6d5bf0"  />
			<stop offset="0.344" stop-color="#6d5cf0"  />
			<stop offset="0.352" stop-color="#6c5cf0"  />
			<stop offset="0.355" stop-color="#6b5eef"  />
			<stop offset="0.359" stop-color="#6a5eef"  />
			<stop offset="0.363" stop-color="#695fef"  />
			<stop offset="0.367" stop-color="#695fef"  />
			<stop offset="0.371" stop-color="#685fee"  />
			<stop offset="0.375" stop-color="#6760ee"  />
			<stop offset="0.383" stop-color="#6760ee"  />
			<stop offset="0.391" stop-color="#6661ee"  />
			<stop offset="0.395" stop-color="#6462ed"  />
			<stop offset="0.398" stop-color="#6463ed"  />
			<stop offset="0.402" stop-color="#6363ed"  />
			<stop offset="0.406" stop-color="#6364ed"  />
			<stop offset="0.41" stop-color="#6264ed"  />
			<stop offset="0.414" stop-color="#6265ed"  />
			<stop offset="0.418" stop-color="#6165ec"  />
			<stop offset="0.422" stop-color="#6166ec"  />
			<stop offset="0.426" stop-color="#6066ec"  />
			<stop offset="0.43" stop-color="#5f67ec"  />
			<stop offset="0.438" stop-color="#5f67ec"  />
			<stop offset="0.441" stop-color="#5e68eb"  />
			<stop offset="0.445" stop-color="#5d69eb"  />
			<stop offset="0.449" stop-color="#5d6aeb"  />
			<stop offset="0.453" stop-color="#5c6aeb"  />
			<stop offset="0.457" stop-color="#5c6beb"  />
			<stop offset="0.461" stop-color="#5b6beb"  />
			<stop offset="0.465" stop-color="#5b6ceb"  />
			<stop offset="0.469" stop-color="#5a6cea"  />
			<stop offset="0.473" stop-color="#596cea"  />
			<stop offset="0.477" stop-color="#586dea"  />
			<stop offset="0.48" stop-color="#586dea"  />
			<stop offset="0.484" stop-color="#576eea"  />
			<stop offset="0.488" stop-color="#566eea"  />
			<stop offset="0.492" stop-color="#566fe9"  />
			<stop offset="0.496" stop-color="#556fe9"  />
			<stop offset="0.5" stop-color="#5570e9"  />
			<stop offset="0.504" stop-color="#5470e9"  />
			<stop offset="0.508" stop-color="#5471e9"  />
			<stop offset="0.512" stop-color="#5371e9"  />
			<stop offset="0.516" stop-color="#5372e8"  />
			<stop offset="0.52" stop-color="#5273e8"  />
			<stop offset="0.523" stop-color="#5273e8"  />
			<stop offset="0.527" stop-color="#5174e8"  />
			<stop offset="0.531" stop-color="#5074e8"  />
			<stop offset="0.535" stop-color="#5075e8"  />
			<stop offset="0.539" stop-color="#4f75e7"  />
			<stop offset="0.543" stop-color="#4f76e7"  />
			<stop offset="0.547" stop-color="#4e76e7"  />
			<stop offset="0.551" stop-color="#4e77e7"  />
			<stop offset="0.555" stop-color="#4d77e7"  />
			<stop offset="0.559" stop-color="#4c78e7"  />
			<stop offset="0.563" stop-color="#4c78e6"  />
			<stop offset="0.566" stop-color="#4b79e6"  />
			<stop offset="0.57" stop-color="#4b79e6"  />
			<stop offset="0.574" stop-color="#4a7ae6"  />
			<stop offset="0.578" stop-color="#497ae6"  />
			<stop offset="0.582" stop-color="#487ae5"  />
			<stop offset="0.586" stop-color="#487be5"  />
			<stop offset="0.59" stop-color="#477be5"  />
			<stop offset="0.594" stop-color="#477ce5"  />
			<stop offset="0.598" stop-color="#477ce5"  />
			<stop offset="0.602" stop-color="#467de5"  />
			<stop offset="0.605" stop-color="#467ee4"  />
			<stop offset="0.609" stop-color="#457ee4"  />
			<stop offset="0.617" stop-color="#457fe4"  />
			<stop offset="0.621" stop-color="#4380e3"  />
			<stop offset="0.625" stop-color="#4280e3"  />
			<stop offset="0.629" stop-color="#4281e3"  />
			<stop offset="0.633" stop-color="#4181e3"  />
			<stop offset="0.637" stop-color="#4182e3"  />
			<stop offset="0.641" stop-color="#4082e3"  />
			<stop offset="0.645" stop-color="#3f83e2"  />
			<stop offset="0.648" stop-color="#3f83e2"  />
			<stop offset="0.656" stop-color="#3e84e2"  />
			<stop offset="0.664" stop-color="#3d85e2"  />
			<stop offset="0.668" stop-color="#3c85e1"  />
			<stop offset="0.672" stop-color="#3c86e1"  />
			<stop offset="0.676" stop-color="#3b86e1"  />
			<stop offset="0.68" stop-color="#3a87e1"  />
			<stop offset="0.684" stop-color="#3a87e1"  />
			<stop offset="0.688" stop-color="#3988e1"  />
			<stop offset="0.691" stop-color="#3988e0"  />
			<stop offset="0.695" stop-color="#3889e0"  />
			<stop offset="0.699" stop-color="#3889e0"  />
			<stop offset="0.703" stop-color="#378ae0"  />
			<stop offset="0.711" stop-color="#378ae0"  />
			<stop offset="0.715" stop-color="#368be0"  />
			<stop offset="0.719" stop-color="#358cdf"  />
			<stop offset="0.723" stop-color="#348ddf"  />
			<stop offset="0.727" stop-color="#338ddf"  />
			<stop offset="0.73" stop-color="#338edf"  />
			<stop offset="0.734" stop-color="#328edf"  />
			<stop offset="0.738" stop-color="#318fdf"  />
			<stop offset="0.742" stop-color="#318fde"  />
			<stop offset="0.746" stop-color="#3090de"  />
			<stop offset="0.75" stop-color="#3090de"  />
			<stop offset="0.754" stop-color="#2f91de"  />
			<stop offset="0.758" stop-color="#2f92de"  />
			<stop offset="0.762" stop-color="#2e92de"  />
			<stop offset="0.766" stop-color="#2e93dd"  />
			<stop offset="0.77" stop-color="#2d93dd"  />
			<stop offset="0.773" stop-color="#2d94dd"  />
			<stop offset="0.777" stop-color="#2c94dd"  />
			<stop offset="0.781" stop-color="#2b95dd"  />
			<stop offset="0.785" stop-color="#2b95dd"  />
			<stop offset="0.789" stop-color="#2a96dc"  />
			<stop offset="0.797" stop-color="#2a96dc"  />
			<stop offset="0.801" stop-color="#2997dc"  />
			<stop offset="0.805" stop-color="#2898dc"  />
			<stop offset="0.809" stop-color="#2898dc"  />
			<stop offset="0.813" stop-color="#2799db"  />
			<stop offset="0.816" stop-color="#2699db"  />
			<stop offset="0.82" stop-color="#269adb"  />
			<stop offset="0.824" stop-color="#259bdb"  />
			<stop offset="0.828" stop-color="#249bdb"  />
			<stop offset="0.832" stop-color="#239cdb"  />
			<stop offset="0.836" stop-color="#239cda"  />
			<stop offset="0.844" stop-color="#229dda"  />
			<stop offset="0.852" stop-color="#219dda"  />
			<stop offset="0.855" stop-color="#209fda"  />
			<stop offset="0.859" stop-color="#209fd9"  />
			<stop offset="0.867" stop-color="#1f9fd9"  />
			<stop offset="0.871" stop-color="#1ea0d8"  />
			<stop offset="0.875" stop-color="#1da1d8"  />
			<stop offset="0.883" stop-color="#1da1d8"  />
			<stop offset="0.891" stop-color="#1ca2d8"  />
			<stop offset="0.895" stop-color="#1ba3d7"  />
			<stop offset="0.898" stop-color="#1aa4d7"  />
			<stop offset="0.902" stop-color="#19a4d7"  />
			<stop offset="0.906" stop-color="#19a5d7"  />
			<stop offset="0.91" stop-color="#18a5d7"  />
			<stop offset="0.914" stop-color="#18a6d7"  />
			<stop offset="0.918" stop-color="#17a6d6"  />
			<stop offset="0.922" stop-color="#17a7d6"  />
			<stop offset="0.926" stop-color="#16a7d6"  />
			<stop offset="0.93" stop-color="#15a8d6"  />
			<stop offset="0.938" stop-color="#15a8d6"  />
			<stop offset="0.941" stop-color="#14aad5"  />
			<stop offset="0.945" stop-color="#13aad5"  />
			<stop offset="0.949" stop-color="#13abd5"  />
			<stop offset="0.953" stop-color="#12abd5"  />
			<stop offset="0.957" stop-color="#12acd5"  />
			<stop offset="0.961" stop-color="#11acd5"  />
			<stop offset="0.965" stop-color="#11acd4"  />
			<stop offset="0.969" stop-color="#10add4"  />
			<stop offset="0.973" stop-color="#0fadd4"  />
			<stop offset="0.977" stop-color="#0eaed4"  />
			<stop offset="0.98" stop-color="#0eaed4"  />
			<stop offset="0.984" stop-color="#0dafd4"  />
			<stop offset="0.988" stop-color="#0cafd3"  />
			<stop offset="0.992" stop-color="#0cb0d3"  />
			<stop offset="0.996" stop-color="#0bb0d3"  />
			<stop offset="1" stop-color="#0bb1d3"  />
		</linearGradient>
	</defs>
	<style>
		tspan { white-space:pre }
		.shp0 { fill: url(#grd1) } 
	</style>
	<g id="surface1">
		<g id="Layer">
		</g>
		<g id="Layer">
		</g>
		<g id="Layer">
		</g>
		<g id="Layer">
		</g>
		<g id="Layer">
		</g>
		<g id="Layer">
		</g>
		<g id="Layer">
		</g>
		<g id="Layer">
		</g>
		<g id="Layer">
		</g>
		<g id="Layer">
		</g>
		<g id="Layer">
		</g>
		<g id="Layer">
		</g>
		<g id="Layer">
		</g>
		<g id="Clip-Path" clip-path="url(#cp1)">
			<g id="Layer">
				<g id="Clip-Path" clip-path="url(#cp2)">
					<g id="Layer">
						<g id="Clip-Path" clip-path="url(#cp3)">
							<g id="Layer">
								<path id="Layer" class="shp0" d="M1.6 55.37L46.55 55.37L46.55 2.41L1.6 2.41L1.6 55.37Z" />
							</g>
						</g>
					</g>
				</g>
			</g>
		</g>
		<g id="Layer">
		</g>
		<g id="Layer">
		</g>
		<g id="Layer">
		</g>
		<g id="Layer">
		</g>
		<g id="Layer">
		</g>
		<g id="Layer">
		</g>
		<g id="Layer">
		</g>
		<g id="Layer">
		</g>
		<g id="Layer">
		</g>
		<g id="Layer">
		</g>
		<g id="Layer">
		</g>
		<g id="Layer">
		</g>
		<g id="Layer">
		</g>
		<g id="Layer">
		</g>
		<g id="Layer">
		</g>
		<g id="Layer">
		</g>
		<g id="Layer">
		</g>
		<g id="Layer">
		</g>
		<g id="Layer">
		</g>
		<g id="Layer">
		</g>
		<g id="Layer">
		</g>
		<g id="Layer">
		</g>
		<g id="Layer">
		</g>
		<g id="Layer">
		</g>
		<g id="Layer">
		</g>
	</g>
</svg>